<?xml version="1.0" encoding="UTF-8" standalone="no"?>
<!-- Created with Inkscape (http://www.inkscape.org/) -->

<svg
   xmlns:dc="http://purl.org/dc/elements/1.1/"
   xmlns:cc="http://creativecommons.org/ns#"
   xmlns:rdf="http://www.w3.org/1999/02/22-rdf-syntax-ns#"
   xmlns:svg="http://www.w3.org/2000/svg"
   xmlns="http://www.w3.org/2000/svg"
   xmlns:xlink="http://www.w3.org/1999/xlink"
   xmlns:sodipodi="http://sodipodi.sourceforge.net/DTD/sodipodi-0.dtd"
   xmlns:inkscape="http://www.inkscape.org/namespaces/inkscape"
   width="1488.189"
   height="1052.3622"
   id="svg3150"
   version="1.1"
   inkscape:version="0.48.0 r9654"
   sodipodi:docname="PythonZen.svg">
  <title
     id="title3191">Le Zen de Python</title>
  <defs
     id="defs3152">
    <radialGradient
       gradientUnits="userSpaceOnUse"
       gradientTransform="matrix(1,0,0,0.177966,0,108.743)"
       r="29.036913"
       fy="132.28575"
       fx="61.518883"
       cy="132.28575"
       cx="61.518883"
       id="radialGradient2801"
       xlink:href="#linearGradient2795"
       inkscape:collect="always" />
    <linearGradient
       y2="76.313133"
       x2="26.670298"
       y1="76.176224"
       x1="172.94208"
       gradientTransform="matrix(0.562541,0,0,0.567972,-11.5974,-7.60954)"
       gradientUnits="userSpaceOnUse"
       id="linearGradient2258"
       xlink:href="#linearGradient4689"
       inkscape:collect="always" />
    <linearGradient
       y2="144.75717"
       x2="-65.308502"
       y1="144.75717"
       x1="224.23996"
       gradientTransform="matrix(0.562541,0,0,0.567972,-11.5974,-7.60954)"
       gradientUnits="userSpaceOnUse"
       id="linearGradient2255"
       xlink:href="#linearGradient4671"
       inkscape:collect="always" />
    <linearGradient
       y2="144.75717"
       x2="-65.308502"
       y1="144.75717"
       x1="224.23996"
       gradientTransform="translate(100.27,99.6112)"
       gradientUnits="userSpaceOnUse"
       id="linearGradient2250"
       xlink:href="#linearGradient4671"
       inkscape:collect="always" />
    <linearGradient
       y2="76.313133"
       x2="26.670298"
       y1="77.475983"
       x1="172.94208"
       gradientTransform="translate(100.27,99.6112)"
       gradientUnits="userSpaceOnUse"
       id="linearGradient2248"
       xlink:href="#linearGradient4689"
       inkscape:collect="always" />
    <linearGradient
       y2="144.75717"
       x2="-65.308502"
       y1="144.75717"
       x1="224.23996"
       gradientTransform="translate(100.27,99.6112)"
       gradientUnits="userSpaceOnUse"
       id="linearGradient2589"
       xlink:href="#linearGradient4671"
       inkscape:collect="always" />
    <linearGradient
       y2="76.313133"
       x2="26.670298"
       y1="77.475983"
       x1="172.94208"
       gradientTransform="translate(100.27,99.6112)"
       gradientUnits="userSpaceOnUse"
       id="linearGradient2587"
       xlink:href="#linearGradient4689"
       inkscape:collect="always" />
    <linearGradient
       gradientTransform="translate(100.27,99.6112)"
       gradientUnits="userSpaceOnUse"
       xlink:href="#linearGradient4689"
       id="linearGradient2990"
       y2="76.313133"
       x2="26.670298"
       y1="77.475983"
       x1="172.94208" />
    <linearGradient
       gradientTransform="translate(100.27,99.6112)"
       gradientUnits="userSpaceOnUse"
       xlink:href="#linearGradient4671"
       id="linearGradient2987"
       y2="144.75717"
       x2="-65.308502"
       y1="144.75717"
       x1="224.23996" />
    <linearGradient
       id="linearGradient4689">
      <stop
         id="stop4691"
         offset="0"
         style="stop-color: rgb(90, 159, 212); stop-opacity: 1;" />
      <stop
         id="stop4693"
         offset="1"
         style="stop-color: rgb(48, 105, 152); stop-opacity: 1;" />
    </linearGradient>
    <linearGradient
       id="linearGradient4671">
      <stop
         id="stop4673"
         offset="0"
         style="stop-color: rgb(255, 212, 59); stop-opacity: 1;" />
      <stop
         id="stop4675"
         offset="1"
         style="stop-color: rgb(255, 232, 115); stop-opacity: 1;" />
    </linearGradient>
    <linearGradient
       id="linearGradient3236">
      <stop
         id="stop3244"
         offset="0"
         style="stop-color: rgb(244, 244, 244); stop-opacity: 1;" />
      <stop
         id="stop3240"
         offset="1"
         style="stop-color: white; stop-opacity: 1;" />
    </linearGradient>
    <linearGradient
       id="linearGradient3676">
      <stop
         id="stop3678"
         offset="0"
         style="stop-color: rgb(178, 178, 178); stop-opacity: 0.5;" />
      <stop
         id="stop3680"
         offset="1"
         style="stop-color: rgb(179, 179, 179); stop-opacity: 0;" />
    </linearGradient>
    <linearGradient
       id="linearGradient2787">
      <stop
         id="stop2789"
         offset="0"
         style="stop-color: rgb(127, 127, 127); stop-opacity: 0.5;" />
      <stop
         id="stop2791"
         offset="1"
         style="stop-color: rgb(127, 127, 127); stop-opacity: 0;" />
    </linearGradient>
    <linearGradient
       id="linearGradient2795">
      <stop
         id="stop2797"
         offset="0"
         style="stop-color: rgb(184, 184, 184); stop-opacity: 0.498039;" />
      <stop
         id="stop2799"
         offset="1"
         style="stop-color: rgb(127, 127, 127); stop-opacity: 0;" />
    </linearGradient>
    <linearGradient
       inkscape:collect="always"
       xlink:href="#linearGradient4689"
       id="linearGradient3243"
       gradientUnits="userSpaceOnUse"
       gradientTransform="matrix(0.562541,0,0,0.567972,601.11576,598.30184)"
       x1="26.648937"
       y1="20.603781"
       x2="135.66525"
       y2="114.39767" />
    <linearGradient
       inkscape:collect="always"
       xlink:href="#linearGradient4671"
       id="linearGradient3245"
       gradientUnits="userSpaceOnUse"
       gradientTransform="matrix(0.562541,0,0,0.567972,601.11576,598.30184)"
       x1="150.96111"
       y1="192.35176"
       x2="112.03144"
       y2="137.27299" />
    <radialGradient
       inkscape:collect="always"
       xlink:href="#linearGradient2795"
       id="radialGradient3247"
       gradientUnits="userSpaceOnUse"
       gradientTransform="matrix(2.38272e-8,-0.296405,1.43676,4.68367e-7,-128.544,150.52)"
       cx="61.518883"
       cy="132.28575"
       fx="61.518883"
       fy="132.28575"
       r="29.036913" />
    <linearGradient
       id="linearGradient4689-4">
      <stop
         id="stop4691-0"
         offset="0"
         style="stop-color: rgb(90, 159, 212); stop-opacity: 1;" />
      <stop
         id="stop4693-9"
         offset="1"
         style="stop-color: rgb(48, 105, 152); stop-opacity: 1;" />
    </linearGradient>
    <linearGradient
       id="linearGradient4671-8">
      <stop
         id="stop4673-8"
         offset="0"
         style="stop-color: rgb(255, 212, 59); stop-opacity: 1;" />
      <stop
         id="stop4675-2"
         offset="1"
         style="stop-color: rgb(255, 232, 115); stop-opacity: 1;" />
    </linearGradient>
    <radialGradient
       r="29.036913"
       fy="132.28575"
       fx="61.518883"
       cy="132.28575"
       cx="61.518883"
       gradientTransform="matrix(2.38272e-8,-0.296405,1.43676,4.68367e-7,-128.544,150.52)"
       gradientUnits="userSpaceOnUse"
       id="radialGradient1480-4"
       xlink:href="#linearGradient2795-5"
       inkscape:collect="always" />
    <linearGradient
       id="linearGradient2795-5">
      <stop
         id="stop2797-5"
         offset="0"
         style="stop-color: rgb(184, 184, 184); stop-opacity: 0.498039;" />
      <stop
         id="stop2799-1"
         offset="1"
         style="stop-color: rgb(127, 127, 127); stop-opacity: 0;" />
    </linearGradient>
    <radialGradient
       r="29.036913"
       fy="132.28575"
       fx="61.518883"
       cy="132.28575"
       cx="61.518883"
       gradientTransform="matrix(2.38272e-8,-0.296405,1.43676,4.68367e-7,-128.544,150.52)"
       gradientUnits="userSpaceOnUse"
       id="radialGradient1480"
       xlink:href="#linearGradient2795-1"
       inkscape:collect="always" />
    <linearGradient
       y2="114.39767"
       x2="135.66525"
       y1="20.603781"
       x1="26.648937"
       gradientTransform="matrix(0.562541,0,0,0.567972,-9.39975,-5.30532)"
       gradientUnits="userSpaceOnUse"
       id="linearGradient1478"
       xlink:href="#linearGradient4689-5"
       inkscape:collect="always" />
    <linearGradient
       y2="137.27299"
       x2="112.03144"
       y1="192.35176"
       x1="150.96111"
       gradientTransform="matrix(0.562541,0,0,0.567972,-9.39975,-5.30532)"
       gradientUnits="userSpaceOnUse"
       id="linearGradient1475"
       xlink:href="#linearGradient4671-1"
       inkscape:collect="always" />
    <radialGradient
       gradientUnits="userSpaceOnUse"
       gradientTransform="matrix(1,0,0,0.177966,0,108.743)"
       r="29.036913"
       fy="132.28575"
       fx="61.518883"
       cy="132.28575"
       cx="61.518883"
       id="radialGradient2801-3"
       xlink:href="#linearGradient2795-1"
       inkscape:collect="always" />
    <linearGradient
       y2="76.313133"
       x2="26.670298"
       y1="76.176224"
       x1="172.94208"
       gradientTransform="matrix(0.562541,0,0,0.567972,-11.5974,-7.60954)"
       gradientUnits="userSpaceOnUse"
       id="linearGradient2258-4"
       xlink:href="#linearGradient4689-5"
       inkscape:collect="always" />
    <linearGradient
       y2="144.75717"
       x2="-65.308502"
       y1="144.75717"
       x1="224.23996"
       gradientTransform="matrix(0.562541,0,0,0.567972,-11.5974,-7.60954)"
       gradientUnits="userSpaceOnUse"
       id="linearGradient2255-5"
       xlink:href="#linearGradient4671-1"
       inkscape:collect="always" />
    <linearGradient
       y2="144.75717"
       x2="-65.308502"
       y1="144.75717"
       x1="224.23996"
       gradientTransform="translate(100.27,99.6112)"
       gradientUnits="userSpaceOnUse"
       id="linearGradient2250-9"
       xlink:href="#linearGradient4671-1"
       inkscape:collect="always" />
    <linearGradient
       y2="76.313133"
       x2="26.670298"
       y1="77.475983"
       x1="172.94208"
       gradientTransform="translate(100.27,99.6112)"
       gradientUnits="userSpaceOnUse"
       id="linearGradient2248-7"
       xlink:href="#linearGradient4689-5"
       inkscape:collect="always" />
    <linearGradient
       y2="144.75717"
       x2="-65.308502"
       y1="144.75717"
       x1="224.23996"
       gradientTransform="translate(100.27,99.6112)"
       gradientUnits="userSpaceOnUse"
       id="linearGradient2589-2"
       xlink:href="#linearGradient4671-1"
       inkscape:collect="always" />
    <linearGradient
       y2="76.313133"
       x2="26.670298"
       y1="77.475983"
       x1="172.94208"
       gradientTransform="translate(100.27,99.6112)"
       gradientUnits="userSpaceOnUse"
       id="linearGradient2587-9"
       xlink:href="#linearGradient4689-5"
       inkscape:collect="always" />
    <linearGradient
       gradientTransform="translate(100.27,99.6112)"
       gradientUnits="userSpaceOnUse"
       xlink:href="#linearGradient4689-5"
       id="linearGradient2990-8"
       y2="76.313133"
       x2="26.670298"
       y1="77.475983"
       x1="172.94208" />
    <linearGradient
       gradientTransform="translate(100.27,99.6112)"
       gradientUnits="userSpaceOnUse"
       xlink:href="#linearGradient4671-1"
       id="linearGradient2987-1"
       y2="144.75717"
       x2="-65.308502"
       y1="144.75717"
       x1="224.23996" />
    <linearGradient
       id="linearGradient4689-5">
      <stop
         id="stop4691-7"
         offset="0"
         style="stop-color: rgb(90, 159, 212); stop-opacity: 1;" />
      <stop
         id="stop4693-6"
         offset="1"
         style="stop-color: rgb(48, 105, 152); stop-opacity: 1;" />
    </linearGradient>
    <linearGradient
       id="linearGradient4671-1">
      <stop
         id="stop4673-6"
         offset="0"
         style="stop-color: rgb(255, 212, 59); stop-opacity: 1;" />
      <stop
         id="stop4675-8"
         offset="1"
         style="stop-color: rgb(255, 232, 115); stop-opacity: 1;" />
    </linearGradient>
    <linearGradient
       id="linearGradient3236-3">
      <stop
         id="stop3244-2"
         offset="0"
         style="stop-color: rgb(244, 244, 244); stop-opacity: 1;" />
      <stop
         id="stop3240-2"
         offset="1"
         style="stop-color: white; stop-opacity: 1;" />
    </linearGradient>
    <linearGradient
       id="linearGradient3676-1">
      <stop
         id="stop3678-4"
         offset="0"
         style="stop-color: rgb(178, 178, 178); stop-opacity: 0.5;" />
      <stop
         id="stop3680-2"
         offset="1"
         style="stop-color: rgb(179, 179, 179); stop-opacity: 0;" />
    </linearGradient>
    <linearGradient
       id="linearGradient2787-2">
      <stop
         id="stop2789-7"
         offset="0"
         style="stop-color: rgb(127, 127, 127); stop-opacity: 0.5;" />
      <stop
         id="stop2791-6"
         offset="1"
         style="stop-color: rgb(127, 127, 127); stop-opacity: 0;" />
    </linearGradient>
    <linearGradient
       id="linearGradient2795-1">
      <stop
         id="stop2797-1"
         offset="0"
         style="stop-color: rgb(184, 184, 184); stop-opacity: 0.498039;" />
      <stop
         id="stop2799-5"
         offset="1"
         style="stop-color: rgb(127, 127, 127); stop-opacity: 0;" />
    </linearGradient>
    <linearGradient
       y2="137.27299"
       x2="112.03144"
       y1="192.35176"
       x1="150.96111"
       gradientTransform="matrix(0.562541,0,0,0.567972,-9.39975,-5.30532)"
       gradientUnits="userSpaceOnUse"
       id="linearGradient3708"
       xlink:href="#linearGradient4671-684"
       inkscape:collect="always" />
    <linearGradient
       y2="114.39767"
       x2="135.66525"
       y1="20.603781"
       x1="26.648937"
       gradientTransform="matrix(0.562541,0,0,0.567972,-9.39975,-5.30532)"
       gradientUnits="userSpaceOnUse"
       id="linearGradient3706"
       xlink:href="#linearGradient4689-47"
       inkscape:collect="always" />
    <linearGradient
       id="linearGradient4689-47">
      <stop
         style="stop-color: rgb(90, 159, 212); stop-opacity: 1;"
         offset="0"
         id="stop3843" />
      <stop
         style="stop-color: rgb(48, 105, 152); stop-opacity: 1;"
         offset="1"
         id="stop3845" />
    </linearGradient>
    <linearGradient
       id="linearGradient4671-684">
      <stop
         style="stop-color: rgb(255, 212, 59); stop-opacity: 1;"
         offset="0"
         id="stop3849" />
      <stop
         style="stop-color: rgb(255, 232, 115); stop-opacity: 1;"
         offset="1"
         id="stop3851" />
    </linearGradient>
  </defs>
  <sodipodi:namedview
     id="base"
     pagecolor="#ffffff"
     bordercolor="#666666"
     borderopacity="1.0"
     inkscape:pageopacity="0.0"
     inkscape:pageshadow="2"
     inkscape:zoom="0.93884028"
     inkscape:cx="709.37963"
     inkscape:cy="548.41516"
     inkscape:document-units="px"
     inkscape:current-layer="layer3"
     showgrid="true"
     showguides="true"
     inkscape:guide-bbox="true"
     inkscape:window-width="1600"
     inkscape:window-height="1142"
     inkscape:window-x="-3"
     inkscape:window-y="-3"
     inkscape:window-maximized="1">
    <inkscape:grid
       type="xygrid"
       id="grid3655"
       empspacing="5"
       visible="true"
       enabled="false"
       snapvisiblegridlinesonly="true" />
  </sodipodi:namedview>
  <metadata
     id="metadata3155">
    <rdf:RDF>
      <cc:Work
         rdf:about="">
        <dc:format>image/svg+xml</dc:format>
        <dc:type
           rdf:resource="http://purl.org/dc/dcmitype/StillImage" />
        <dc:title>Le Zen de Python</dc:title>
        <dc:date>20110504</dc:date>
        <dc:creator>
          <cc:Agent>
            <dc:title>Benoît Laurent</dc:title>
          </cc:Agent>
        </dc:creator>
        <dc:subject>
          <rdf:Bag>
            <rdf:li>python zen</rdf:li>
          </rdf:Bag>
        </dc:subject>
        <dc:contributor>
          <cc:Agent>
            <dc:title>Bob Cordeau</dc:title>
          </cc:Agent>
        </dc:contributor>
        <dc:description>Poster de promotion du langage Python et du Zen de Python, texte décrivant les principes du langage.</dc:description>
        <dc:source>http://intrw.net/log/spip.php?article179</dc:source>
      </cc:Work>
    </rdf:RDF>
  </metadata>
  <g
     inkscape:groupmode="layer"
     id="layer4"
     inkscape:label="grille"
     sodipodi:insensitive="true"
     style="display:none"
     transform="translate(0,308.26772)">
    <path
       style="fill:none;stroke:#00ff43;stroke-width:1px;stroke-linecap:butt;stroke-linejoin:miter;stroke-opacity:1"
       d="m 352.10334,30.427475 0,683.239535"
       id="path3660"
       inkscape:connector-curvature="0" />
    <path
       inkscape:connector-curvature="0"
       id="path3662"
       d="m 1051.972,30.42747 0,683.23954"
       style="fill:none;stroke:#00ff43;stroke-width:1px;stroke-linecap:butt;stroke-linejoin:miter;stroke-opacity:1" />
    <path
       inkscape:connector-curvature="0"
       id="path3664"
       d="m 2.1690175,30.427475 0,683.239535"
       style="fill:none;stroke:#00ff43;stroke-width:1px;stroke-linecap:butt;stroke-linejoin:miter;stroke-opacity:1" />
    <path
       style="fill:none;stroke:#00ff43;stroke-width:1px;stroke-linecap:butt;stroke-linejoin:miter;stroke-opacity:1"
       d="m 702.03766,30.427475 0,683.239535"
       id="path3666"
       inkscape:connector-curvature="0" />
    <path
       inkscape:connector-curvature="0"
       id="path3668"
       d="m 867.80086,498.21157 -683.23954,0"
       style="fill:none;stroke:#00ff43;stroke-width:1px;stroke-linecap:butt;stroke-linejoin:miter;stroke-opacity:1" />
    <path
       style="fill:none;stroke:#00ff43;stroke-width:1px;stroke-linecap:butt;stroke-linejoin:miter;stroke-opacity:1"
       d="m 867.80089,746.20222 -683.23959,0"
       id="path3670"
       inkscape:connector-curvature="0" />
    <path
       style="fill:none;stroke:#00ff43;stroke-width:1px;stroke-linecap:butt;stroke-linejoin:miter;stroke-opacity:1"
       d="m 867.80086,2.2303009 -683.23953,0"
       id="path3672"
       inkscape:connector-curvature="0" />
    <path
       inkscape:connector-curvature="0"
       id="path3674"
       d="m 867.80086,250.22093 -683.23953,0"
       style="fill:none;stroke:#00ff43;stroke-width:1px;stroke-linecap:butt;stroke-linejoin:miter;stroke-opacity:1" />
  </g>
  <g
     inkscape:groupmode="layer"
     id="layer2"
     inkscape:label="fond"
     style="opacity:0.14556963;display:inline"
     transform="translate(0,308.26772)">
    <g
       id="g3238"
       transform="matrix(5.121559,0,0,5.1865352,-2689.9047,-3280.2358)">
      <path
         inkscape:connector-curvature="0"
         style="fill:url(#linearGradient3243);fill-opacity:1"
         d="m 671.02567,610.00513 c -4.58366,0.0213 -8.96094,0.41222 -12.8125,1.09375 -11.34622,2.00451 -13.40625,6.20011 -13.40625,13.9375 l 0,10.21875 26.8125,0 0,3.40625 -26.8125,0 -10.0625,0 c -7.79246,0 -14.61576,4.68372 -16.75,13.59375 -2.46182,10.21297 -2.57102,16.58603 0,27.25 1.90592,7.93786 6.45754,13.59375 14.25,13.59375 l 9.21875,0 0,-12.25 c 0,-8.8499 7.65714,-16.65625 16.75,-16.65625 l 26.78125,0 c 7.45495,0 13.40625,-6.13816 13.40625,-13.625 l 0,-25.53125 c 0,-7.26634 -6.12998,-12.72477 -13.40625,-13.9375 -4.60599,-0.76672 -9.3851,-1.11505 -13.96875,-1.09375 z m -14.5,8.21875 c 2.76954,0 5.03125,2.29865 5.03125,5.125 -10e-6,2.81634 -2.26171,5.09375 -5.03125,5.09375 -2.77948,0 -5.03125,-2.27741 -5.03125,-5.09375 -10e-6,-2.82635 2.25177,-5.125 5.03125,-5.125 z"
         id="path3210" />
      <path
         inkscape:connector-curvature="0"
         style="fill:url(#linearGradient3245);fill-opacity:1"
         d="m 701.74442,638.66138 0,11.90625 c 0,9.23076 -7.8259,17 -16.75,17 l -26.78125,0 c -7.33584,0 -13.40625,6.27849 -13.40625,13.625 l 0,25.53125 c 0,7.26634 6.31858,11.54032 13.40625,13.625 8.48733,2.49561 16.62623,2.94663 26.78125,0 6.75015,-1.95439 13.40625,-5.88761 13.40625,-13.625 l 0,-10.21875 -26.78125,0 0,-3.40625 26.78125,0 13.40625,0 c 7.79246,0 10.69625,-5.4354 13.40624,-13.59375 2.79933,-8.39888 2.68022,-16.47577 0,-27.25 -1.92578,-7.75744 -5.60387,-13.59375 -13.40624,-13.59375 l -10.0625,0 z m -15.0625,64.65625 c 2.77947,10e-6 5.03125,2.27742 5.03125,5.09375 -10e-6,2.82635 -2.25178,5.125 -5.03125,5.125 -2.76955,0 -5.03125,-2.29865 -5.03125,-5.125 0,-2.81633 2.26169,-5.09375 5.03125,-5.09375 z"
         id="path3212" />
      <path
         sodipodi:type="arc"
         style="opacity:0.44382001;fill:url(#radialGradient3247);fill-opacity:1;fill-rule:nonzero;stroke:none"
         id="path3216"
         sodipodi:cx="61.518883"
         sodipodi:cy="132.28575"
         sodipodi:rx="48.948284"
         sodipodi:ry="8.6066771"
         d="m 110.46717,132.28575 c 0,4.75334 -21.914896,8.60668 -48.948287,8.60668 -27.033391,0 -48.948284,-3.85334 -48.948284,-8.60668 0,-4.75334 21.914893,-8.60668 48.948284,-8.60668 27.033391,0 48.948287,3.85334 48.948287,8.60668 z"
         transform="matrix(0.73406,0,0,0.809524,626.76511,630.61646)" />
    </g>
  </g>
  <g
     inkscape:label="textes"
     inkscape:groupmode="layer"
     id="layer1"
     transform="translate(0,2.2302535e-5)"
     style="display:inline">
    <text
       xml:space="preserve"
       style="font-size:10.10405445px;font-style:normal;font-variant:normal;font-weight:normal;font-stretch:normal;line-height:125%;letter-spacing:0px;word-spacing:0px;fill:#000000;fill-opacity:1;stroke:none;font-family:Calligrapher;-inkscape-font-specification:Calligrapher"
       x="746.74274"
       y="266.89948"
       id="text3158"
       sodipodi:linespacing="125%"
       transform="scale(1.0345569,0.96659735)"><tspan
         sodipodi:role="line"
         x="746.74274"
         y="266.89948"
         id="tspan3162"
         style="font-style:normal;font-variant:normal;font-weight:normal;font-stretch:normal;font-family:DejaVu Sans Mono;-inkscape-font-specification:DejaVu Sans Mono" /><tspan
         sodipodi:role="line"
         x="746.74274"
         y="285.57227"
         id="tspan3164"
         style="font-size:16.16648865px;font-style:normal;font-variant:normal;font-weight:normal;font-stretch:normal;font-family:DejaVu Sans Mono;-inkscape-font-specification:DejaVu Sans Mono">Beautiful is better than ugly.</tspan><tspan
         sodipodi:role="line"
         x="746.74274"
         y="305.78036"
         id="tspan3166"
         style="font-size:16.16648865px;font-style:normal;font-variant:normal;font-weight:normal;font-stretch:normal;font-family:DejaVu Sans Mono;-inkscape-font-specification:DejaVu Sans Mono">Explicit is better than implicit.</tspan><tspan
         sodipodi:role="line"
         x="746.74274"
         y="325.98849"
         id="tspan3168"
         style="font-size:16.16648865px;font-style:normal;font-variant:normal;font-weight:normal;font-stretch:normal;font-family:DejaVu Sans Mono;-inkscape-font-specification:DejaVu Sans Mono">Simple is better than complex.</tspan><tspan
         sodipodi:role="line"
         x="746.74274"
         y="346.19659"
         id="tspan3170"
         style="font-size:16.16648865px;font-style:normal;font-variant:normal;font-weight:normal;font-stretch:normal;font-family:DejaVu Sans Mono;-inkscape-font-specification:DejaVu Sans Mono">Complex is better than complicated.</tspan><tspan
         sodipodi:role="line"
         x="746.74274"
         y="366.40472"
         id="tspan3172"
         style="font-size:16.16648865px;font-style:normal;font-variant:normal;font-weight:normal;font-stretch:normal;font-family:DejaVu Sans Mono;-inkscape-font-specification:DejaVu Sans Mono">Flat is better than nested.</tspan><tspan
         sodipodi:role="line"
         x="746.74274"
         y="386.61282"
         id="tspan3174"
         style="font-size:16.16648865px;font-style:normal;font-variant:normal;font-weight:normal;font-stretch:normal;font-family:DejaVu Sans Mono;-inkscape-font-specification:DejaVu Sans Mono">Sparse is better than dense.</tspan><tspan
         sodipodi:role="line"
         x="746.74274"
         y="406.82092"
         id="tspan3176"
         style="font-size:16.16648865px;font-style:normal;font-variant:normal;font-weight:normal;font-stretch:normal;font-family:DejaVu Sans Mono;-inkscape-font-specification:DejaVu Sans Mono">Readability counts.</tspan><tspan
         sodipodi:role="line"
         x="746.74274"
         y="427.02905"
         id="tspan3178"
         style="font-size:16.16648865px;font-style:normal;font-variant:normal;font-weight:normal;font-stretch:normal;font-family:DejaVu Sans Mono;-inkscape-font-specification:DejaVu Sans Mono">Special cases aren't special enough to break the rules.</tspan><tspan
         sodipodi:role="line"
         x="746.74274"
         y="447.23715"
         id="tspan3180"
         style="font-size:16.16648865px;font-style:normal;font-variant:normal;font-weight:normal;font-stretch:normal;font-family:DejaVu Sans Mono;-inkscape-font-specification:DejaVu Sans Mono">Although practicality beats purity.</tspan><tspan
         sodipodi:role="line"
         x="746.74274"
         y="467.44525"
         id="tspan3182"
         style="font-size:16.16648865px;font-style:normal;font-variant:normal;font-weight:normal;font-stretch:normal;font-family:DejaVu Sans Mono;-inkscape-font-specification:DejaVu Sans Mono">Errors should never pass silently.</tspan><tspan
         sodipodi:role="line"
         x="746.74274"
         y="487.65338"
         id="tspan3184"
         style="font-size:16.16648865px;font-style:normal;font-variant:normal;font-weight:normal;font-stretch:normal;font-family:DejaVu Sans Mono;-inkscape-font-specification:DejaVu Sans Mono">Unless explicitly silenced.</tspan><tspan
         sodipodi:role="line"
         x="746.74274"
         y="507.86148"
         id="tspan3186"
         style="font-size:16.16648865px;font-style:normal;font-variant:normal;font-weight:normal;font-stretch:normal;font-family:DejaVu Sans Mono;-inkscape-font-specification:DejaVu Sans Mono">In the face of ambiguity, refuse the temptation to guess.</tspan><tspan
         sodipodi:role="line"
         x="746.74274"
         y="528.06958"
         id="tspan3188"
         style="font-size:16.16648865px;font-style:normal;font-variant:normal;font-weight:normal;font-stretch:normal;font-family:DejaVu Sans Mono;-inkscape-font-specification:DejaVu Sans Mono">There should be one-- and preferably only one --obvious way to do it.</tspan><tspan
         sodipodi:role="line"
         x="746.74274"
         y="548.27771"
         id="tspan3190"
         style="font-size:16.16648865px;font-style:normal;font-variant:normal;font-weight:normal;font-stretch:normal;font-family:DejaVu Sans Mono;-inkscape-font-specification:DejaVu Sans Mono">Although that way may not be obvious at first unless you're Dutch.</tspan><tspan
         sodipodi:role="line"
         x="746.74274"
         y="568.48584"
         id="tspan3192"
         style="font-size:16.16648865px;font-style:normal;font-variant:normal;font-weight:normal;font-stretch:normal;font-family:DejaVu Sans Mono;-inkscape-font-specification:DejaVu Sans Mono">Now is better than never.</tspan><tspan
         sodipodi:role="line"
         x="746.74274"
         y="588.69391"
         id="tspan3194"
         style="font-size:16.16648865px;font-style:normal;font-variant:normal;font-weight:normal;font-stretch:normal;font-family:DejaVu Sans Mono;-inkscape-font-specification:DejaVu Sans Mono">Although never is often better than *right* now.</tspan><tspan
         sodipodi:role="line"
         x="746.74274"
         y="608.90204"
         id="tspan3196"
         style="font-size:16.16648865px;font-style:normal;font-variant:normal;font-weight:normal;font-stretch:normal;font-family:DejaVu Sans Mono;-inkscape-font-specification:DejaVu Sans Mono">If the implementation is hard to explain, it's a bad idea.</tspan><tspan
         sodipodi:role="line"
         x="746.74274"
         y="629.11017"
         id="tspan3198"
         style="font-size:16.16648865px;font-style:normal;font-variant:normal;font-weight:normal;font-stretch:normal;font-family:DejaVu Sans Mono;-inkscape-font-specification:DejaVu Sans Mono">If the implementation is easy to explain, it may be a good idea.</tspan><tspan
         sodipodi:role="line"
         x="746.74274"
         y="649.31824"
         id="tspan3200"
         style="font-size:16.16648865px;font-style:normal;font-variant:normal;font-weight:normal;font-stretch:normal;font-family:DejaVu Sans Mono;-inkscape-font-specification:DejaVu Sans Mono">Namespaces are one honking great idea -- let's do more of those!</tspan><tspan
         sodipodi:role="line"
         x="746.74274"
         y="669.52637"
         id="tspan3230"
         style="font-size:16.16648865px;font-style:normal;font-variant:normal;font-weight:normal;font-stretch:normal;font-family:DejaVu Sans Mono;-inkscape-font-specification:DejaVu Sans Mono" /></text>
    <text
       style="font-size:21.15739441px;line-height:125%;fill:#646464;fill-opacity:1"
       id="text3017"
       x="415.59601"
       y="202.22627"
       sodipodi:linespacing="125%"
       transform="scale(0.99371632,1.0063234)">
      <tspan
         id="tspan3019"
         sodipodi:role="line"
         y="202.22627"
         x="415.59601"
         style="font-size:33.85182953px;font-style:normal;font-variant:normal;font-weight:normal;font-stretch:normal;text-align:start;line-height:125%;writing-mode:lr-tb;text-anchor:start;fill:#646464;fill-opacity:1;fill-rule:nonzero;stroke:none;font-family:DejaVu Serif;-inkscape-font-specification:DejaVu Serif">Le Zen de Python</tspan>
    </text>
    <text
       style="font-size:15.1560812px;text-align:end;line-height:125%;text-anchor:end"
       id="text3025"
       x="688.58606"
       y="263.99631"
       sodipodi:linespacing="125%"
       transform="scale(1.0345569,0.96659735)">
      <tspan
         id="tspan3027"
         sodipodi:role="line"
         y="263.99631"
         x="688.58606"
         style="font-size:16.16648865px;font-style:italic;font-variant:normal;font-weight:normal;font-stretch:normal;text-align:end;line-height:125%;writing-mode:lr-tb;text-anchor:end;fill:#000000;fill-opacity:1;fill-rule:nonzero;stroke:none;font-family:DejaVu Serif;-inkscape-font-specification:DejaVu Serif Italic">Préfère :</tspan>
      <tspan
         id="tspan3029"
         sodipodi:role="line"
         y="284.20441"
         x="688.58606"
         style="font-size:16.16648865px;font-style:italic;font-variant:normal;font-weight:normal;font-stretch:normal;text-align:end;line-height:125%;writing-mode:lr-tb;text-anchor:end;fill:#000000;fill-opacity:1;fill-rule:nonzero;stroke:none;font-family:DejaVu Serif;-inkscape-font-specification:DejaVu Serif Italic">la beauté à la laideur,</tspan>
      <tspan
         id="tspan3031"
         sodipodi:role="line"
         y="304.41254"
         x="688.58606"
         style="font-size:16.16648865px;font-style:italic;font-variant:normal;font-weight:normal;font-stretch:normal;text-align:end;line-height:125%;writing-mode:lr-tb;text-anchor:end;fill:#000000;fill-opacity:1;fill-rule:nonzero;stroke:none;font-family:DejaVu Serif;-inkscape-font-specification:DejaVu Serif Italic">l’explicite à l’implicite,</tspan>
      <tspan
         id="tspan3033"
         sodipodi:role="line"
         y="324.62064"
         x="688.58606"
         style="font-size:16.16648865px;font-style:italic;font-variant:normal;font-weight:normal;font-stretch:normal;text-align:end;line-height:125%;writing-mode:lr-tb;text-anchor:end;fill:#000000;fill-opacity:1;fill-rule:nonzero;stroke:none;font-family:DejaVu Serif;-inkscape-font-specification:DejaVu Serif Italic">le simple au complexe,</tspan>
      <tspan
         id="tspan3035"
         sodipodi:role="line"
         y="344.82874"
         x="688.58606"
         style="font-size:16.16648865px;font-style:italic;font-variant:normal;font-weight:normal;font-stretch:normal;text-align:end;line-height:125%;writing-mode:lr-tb;text-anchor:end;fill:#000000;fill-opacity:1;fill-rule:nonzero;stroke:none;font-family:DejaVu Serif;-inkscape-font-specification:DejaVu Serif Italic">le complexe au compliqué,</tspan>
      <tspan
         id="tspan3037"
         sodipodi:role="line"
         y="365.03687"
         x="688.58606"
         style="font-size:16.16648865px;font-style:italic;font-variant:normal;font-weight:normal;font-stretch:normal;text-align:end;line-height:125%;writing-mode:lr-tb;text-anchor:end;fill:#000000;fill-opacity:1;fill-rule:nonzero;stroke:none;font-family:DejaVu Serif;-inkscape-font-specification:DejaVu Serif Italic">le déroulé à l’imbriqué,</tspan>
      <tspan
         id="tspan3039"
         sodipodi:role="line"
         y="385.24496"
         x="688.58606"
         style="font-size:16.16648865px;font-style:italic;font-variant:normal;font-weight:normal;font-stretch:normal;text-align:end;line-height:125%;writing-mode:lr-tb;text-anchor:end;fill:#000000;fill-opacity:1;fill-rule:nonzero;stroke:none;font-family:DejaVu Serif;-inkscape-font-specification:DejaVu Serif Italic">l’aéré au compact.</tspan>
      <tspan
         id="tspan3041"
         sodipodi:role="line"
         y="405.45309"
         x="688.58606"
         style="font-size:16.16648865px;font-style:italic;font-variant:normal;font-weight:normal;font-stretch:normal;text-align:end;line-height:125%;writing-mode:lr-tb;text-anchor:end;fill:#000000;fill-opacity:1;fill-rule:nonzero;stroke:none;font-family:DejaVu Serif;-inkscape-font-specification:DejaVu Serif Italic">Prends en compte la lisibilité.</tspan>
      <tspan
         id="tspan3043"
         sodipodi:role="line"
         y="425.66119"
         x="688.58606"
         style="font-size:16.16648865px;font-style:italic;font-variant:normal;font-weight:normal;font-stretch:normal;text-align:end;line-height:125%;writing-mode:lr-tb;text-anchor:end;fill:#000000;fill-opacity:1;fill-rule:nonzero;stroke:none;font-family:DejaVu Serif;-inkscape-font-specification:DejaVu Serif Italic">Les cas particuliers ne le sont jamais assez pour violer les règles.</tspan>
      <tspan
         id="tspan3045"
         sodipodi:role="line"
         y="445.86929"
         x="688.58606"
         style="font-size:16.16648865px;font-style:italic;font-variant:normal;font-weight:normal;font-stretch:normal;text-align:end;line-height:125%;writing-mode:lr-tb;text-anchor:end;fill:#000000;fill-opacity:1;fill-rule:nonzero;stroke:none;font-family:DejaVu Serif;-inkscape-font-specification:DejaVu Serif Italic">Mais privilégie le pragmatisme à la pureté.</tspan>
      <tspan
         id="tspan3047"
         sodipodi:role="line"
         y="466.07742"
         x="688.58606"
         style="font-size:16.16648865px;font-style:italic;font-variant:normal;font-weight:normal;font-stretch:normal;text-align:end;line-height:125%;writing-mode:lr-tb;text-anchor:end;fill:#000000;fill-opacity:1;fill-rule:nonzero;stroke:none;font-family:DejaVu Serif;-inkscape-font-specification:DejaVu Serif Italic">Ne passe pas les erreurs sous silence,</tspan>
      <tspan
         id="tspan3049"
         sodipodi:role="line"
         y="486.28552"
         x="688.58606"
         style="font-size:16.16648865px;font-style:italic;font-variant:normal;font-weight:normal;font-stretch:normal;text-align:end;line-height:125%;writing-mode:lr-tb;text-anchor:end;fill:#000000;fill-opacity:1;fill-rule:nonzero;stroke:none;font-family:DejaVu Serif;-inkscape-font-specification:DejaVu Serif Italic">...sauf en les baillonnant explicitement.</tspan>
      <tspan
         id="tspan3051"
         sodipodi:role="line"
         y="506.49362"
         x="688.58606"
         style="font-size:16.16648865px;font-style:italic;font-variant:normal;font-weight:normal;font-stretch:normal;text-align:end;line-height:125%;writing-mode:lr-tb;text-anchor:end;fill:#000000;fill-opacity:1;fill-rule:nonzero;stroke:none;font-family:DejaVu Serif;-inkscape-font-specification:DejaVu Serif Italic">Face à l’ambiguïté, ne cède pas à la tentation de deviner.</tspan>
      <tspan
         id="tspan3053"
         sodipodi:role="line"
         y="526.70172"
         x="688.58606"
         style="font-size:16.16648865px;font-style:italic;font-variant:normal;font-weight:normal;font-stretch:normal;text-align:end;line-height:125%;writing-mode:lr-tb;text-anchor:end;fill:#000000;fill-opacity:1;fill-rule:nonzero;stroke:none;font-family:DejaVu Serif;-inkscape-font-specification:DejaVu Serif Italic">Il ne devrait y avoir qu’une -- et de préférence une seule -- façon de procéder,</tspan>
      <tspan
         id="tspan3055"
         sodipodi:role="line"
         y="546.90985"
         x="688.58612"
         style="font-size:16.16648865px;font-style:italic;font-variant:normal;font-weight:normal;font-stretch:normal;text-align:end;line-height:125%;writing-mode:lr-tb;text-anchor:end;fill:#000000;fill-opacity:1;fill-rule:nonzero;stroke:none;font-family:DejaVu Serif;-inkscape-font-specification:DejaVu Serif Italic">même si, de prime abord, elle n’est pas évidente, à moins d’être Néerlandais.</tspan>
      <tspan
         id="tspan3057"
         sodipodi:role="line"
         y="567.11798"
         x="688.58606"
         style="font-size:16.16648865px;font-style:italic;font-variant:normal;font-weight:normal;font-stretch:normal;text-align:end;line-height:125%;writing-mode:lr-tb;text-anchor:end;fill:#000000;fill-opacity:1;fill-rule:nonzero;stroke:none;font-family:DejaVu Serif;-inkscape-font-specification:DejaVu Serif Italic">Mieux vaut maintenant que jamais.</tspan>
      <tspan
         id="tspan3059"
         sodipodi:role="line"
         y="587.32605"
         x="688.58606"
         style="font-size:16.16648865px;font-style:italic;font-variant:normal;font-weight:normal;font-stretch:normal;text-align:end;line-height:125%;writing-mode:lr-tb;text-anchor:end;fill:#000000;fill-opacity:1;fill-rule:nonzero;stroke:none;font-family:DejaVu Serif;-inkscape-font-specification:DejaVu Serif Italic">Cependant jamais est souvent mieux qu’immédiatement.</tspan>
      <tspan
         id="tspan3061"
         sodipodi:role="line"
         y="607.53418"
         x="688.58606"
         style="font-size:16.16648865px;font-style:italic;font-variant:normal;font-weight:normal;font-stretch:normal;text-align:end;line-height:125%;writing-mode:lr-tb;text-anchor:end;fill:#000000;fill-opacity:1;fill-rule:nonzero;stroke:none;font-family:DejaVu Serif;-inkscape-font-specification:DejaVu Serif Italic">Si l’implémentation s’explique diﬃcilement, c’est une mauvaise idée.</tspan>
      <tspan
         id="tspan3063"
         sodipodi:role="line"
         y="627.74231"
         x="688.58606"
         style="font-size:16.16648865px;font-style:italic;font-variant:normal;font-weight:normal;font-stretch:normal;text-align:end;line-height:125%;writing-mode:lr-tb;text-anchor:end;fill:#000000;fill-opacity:1;fill-rule:nonzero;stroke:none;font-family:DejaVu Serif;-inkscape-font-specification:DejaVu Serif Italic">Si l’implémentation s’explique aisément, c’est peut-être une bonne idée.</tspan>
      <tspan
         id="tspan3065"
         sodipodi:role="line"
         y="647.95044"
         x="688.58606"
         style="font-size:16.16648865px;font-style:italic;font-variant:normal;font-weight:normal;font-stretch:normal;text-align:end;line-height:125%;writing-mode:lr-tb;text-anchor:end;fill:#000000;fill-opacity:1;fill-rule:nonzero;stroke:none;font-family:DejaVu Serif;-inkscape-font-specification:DejaVu Serif Italic">Les espaces de nommage sont une sacrément bonne idée ! Faisons-en plus !</tspan>
    </text>
    <text
       xml:space="preserve"
       style="font-size:14.10492897px;font-style:normal;font-variant:normal;font-weight:normal;font-stretch:normal;text-align:start;line-height:125%;letter-spacing:0px;word-spacing:0px;writing-mode:lr-tb;text-anchor:start;fill:#000000;fill-opacity:1;stroke:none;font-family:DejaVu Sans Mono;-inkscape-font-specification:DejaVu Sans Mono"
       x="777.73712"
       y="731.99896"
       id="text3316"
       sodipodi:linespacing="125%"
       transform="scale(0.99371633,1.0063234)"><tspan
         sodipodi:role="line"
         id="tspan3318"
         x="777.73712"
         y="731.99896">Tim Peters, August 2004, public domain.</tspan></text>
    <text
       sodipodi:linespacing="125%"
       y="202.70561"
       x="776.96027"
       id="text3515"
       style="font-size:21.15739441px;line-height:125%;fill:#646464;fill-opacity:1"
       transform="scale(0.99371632,1.0063234)">
      <tspan
         style="font-size:33.85182953px;font-style:normal;font-variant:normal;font-weight:normal;font-stretch:normal;text-align:start;line-height:125%;writing-mode:lr-tb;text-anchor:start;fill:#646464;fill-opacity:1;fill-rule:nonzero;stroke:none;font-family:DejaVu Sans Mono;-inkscape-font-specification:DejaVu Sans Mono"
         sodipodi:role="line"
         id="tspan3517"
         x="776.96027"
         y="202.70561">The Zen of Python</tspan>
    </text>
    <text
       xml:space="preserve"
       style="font-size:14.10492897px;font-style:normal;font-variant:normal;font-weight:normal;font-stretch:normal;text-align:end;line-height:125%;letter-spacing:0px;word-spacing:0px;writing-mode:lr-tb;text-anchor:end;fill:#000000;fill-opacity:1;stroke:none;font-family:DejaVu Serif;-inkscape-font-specification:DejaVu Serif"
       x="717.45935"
       y="732.84216"
       id="text3519"
       sodipodi:linespacing="125%"
       transform="scale(0.99371632,1.0063234)"><tspan
         sodipodi:role="line"
         id="tspan3521"
         x="717.45935"
         y="732.84216">Traduction Cécile Trevian et Bob Cordeau.</tspan></text>
    <text
       xml:space="preserve"
       style="font-size:14.10492897px;font-style:normal;font-variant:normal;font-weight:normal;font-stretch:normal;line-height:125%;letter-spacing:0px;word-spacing:0px;fill:#000000;fill-opacity:1;stroke:none;font-family:Calligrapher;-inkscape-font-specification:Calligrapher"
       x="556.30646"
       y="789.75848"
       id="text3523"
       sodipodi:linespacing="125%"
       transform="scale(0.99371632,1.0063234)"><tspan
         sodipodi:role="line"
         id="tspan3525"
         x="556.30646"
         y="789.75848"
         style="font-style:normal;font-variant:normal;font-weight:normal;font-stretch:normal;font-family:DejaVu Sans Mono;-inkscape-font-specification:DejaVu Sans Mono">Œuf de Pâques</tspan><tspan
         sodipodi:role="line"
         x="556.30646"
         y="807.38965"
         id="tspan3838"
         style="font-style:normal;font-variant:normal;font-weight:normal;font-stretch:normal;font-family:DejaVu Sans Mono;-inkscape-font-specification:DejaVu Sans Mono" /><tspan
         sodipodi:role="line"
         x="556.30646"
         y="825.02075"
         id="tspan3842"
         style="font-style:normal;font-variant:normal;font-weight:normal;font-stretch:normal;font-family:DejaVu Sans Mono;-inkscape-font-specification:DejaVu Sans Mono">    &gt;&gt;&gt; import this</tspan><tspan
         sodipodi:role="line"
         x="556.30646"
         y="842.65198"
         id="tspan3840"
         style="font-style:normal;font-variant:normal;font-weight:normal;font-stretch:normal;font-family:DejaVu Sans Mono;-inkscape-font-specification:DejaVu Sans Mono" /></text>
    <text
       xml:space="preserve"
       style="font-size:14.10492897px;font-style:normal;font-variant:normal;font-weight:normal;font-stretch:normal;line-height:125%;letter-spacing:0px;word-spacing:0px;fill:#000000;fill-opacity:1;stroke:none;font-family:Calligrapher;-inkscape-font-specification:Calligrapher"
       x="777.73712"
       y="719.23376"
       id="text3527"
       sodipodi:linespacing="125%"
       transform="scale(0.99371632,1.0063234)"><tspan
         sodipodi:role="line"
         x="777.73712"
         y="719.23376"
         id="tspan3569"
         style="font-style:normal;font-variant:normal;font-weight:normal;font-stretch:normal;font-family:DejaVu Sans Mono;-inkscape-font-specification:DejaVu Sans Mono" /><tspan
         sodipodi:role="line"
         x="777.73712"
         y="736.86499"
         id="tspan3571"
         style="font-style:normal;font-variant:normal;font-weight:normal;font-stretch:normal;font-family:DejaVu Sans Mono;-inkscape-font-specification:DejaVu Sans Mono" /><tspan
         sodipodi:role="line"
         x="777.73712"
         y="754.49609"
         id="tspan3573"
         style="font-style:normal;font-variant:normal;font-weight:normal;font-stretch:normal;font-family:DejaVu Sans Mono;-inkscape-font-specification:DejaVu Sans Mono" /><tspan
         sodipodi:role="line"
         x="777.73712"
         y="772.12726"
         id="tspan3575"
         style="font-style:normal;font-variant:normal;font-weight:normal;font-stretch:normal;font-family:DejaVu Sans Mono;-inkscape-font-specification:DejaVu Sans Mono" /><tspan
         sodipodi:role="line"
         x="777.73712"
         y="789.75842"
         id="tspan3577"
         style="font-style:normal;font-variant:normal;font-weight:normal;font-stretch:normal;font-family:DejaVu Sans Mono;-inkscape-font-specification:DejaVu Sans Mono">Easter Egg</tspan><tspan
         sodipodi:role="line"
         x="777.73712"
         y="807.38959"
         id="tspan3579"
         style="font-style:normal;font-variant:normal;font-weight:normal;font-stretch:normal;font-family:DejaVu Sans Mono;-inkscape-font-specification:DejaVu Sans Mono" /><tspan
         sodipodi:role="line"
         x="777.73712"
         y="825.02075"
         id="tspan3581"
         style="font-style:normal;font-variant:normal;font-weight:normal;font-stretch:normal;font-family:DejaVu Sans Mono;-inkscape-font-specification:DejaVu Sans Mono">    &gt;&gt;&gt; import this</tspan><tspan
         sodipodi:role="line"
         x="777.73712"
         y="842.65192"
         id="tspan3583"
         style="font-style:normal;font-variant:normal;font-weight:normal;font-stretch:normal;font-family:DejaVu Sans Mono;-inkscape-font-specification:DejaVu Sans Mono" /><tspan
         sodipodi:role="line"
         x="777.73712"
         y="860.28308"
         id="tspan3585"
         style="font-style:normal;font-variant:normal;font-weight:normal;font-stretch:normal;font-family:DejaVu Sans Mono;-inkscape-font-specification:DejaVu Sans Mono" /><tspan
         sodipodi:role="line"
         x="777.73712"
         y="877.91418"
         id="tspan3587"
         style="font-style:normal;font-variant:normal;font-weight:normal;font-stretch:normal;font-family:DejaVu Sans Mono;-inkscape-font-specification:DejaVu Sans Mono" /><tspan
         sodipodi:role="line"
         x="777.73712"
         y="895.54541"
         id="tspan3593"
         style="font-style:normal;font-variant:normal;font-weight:normal;font-stretch:normal;font-family:DejaVu Sans Mono;-inkscape-font-specification:DejaVu Sans Mono" /><tspan
         sodipodi:role="line"
         x="777.73712"
         y="913.17657"
         id="tspan3595"
         style="font-style:normal;font-variant:normal;font-weight:normal;font-stretch:normal;font-family:DejaVu Sans Mono;-inkscape-font-specification:DejaVu Sans Mono" /><tspan
         sodipodi:role="line"
         x="777.73712"
         y="930.80774"
         id="tspan3597"
         style="font-style:normal;font-variant:normal;font-weight:normal;font-stretch:normal;font-family:DejaVu Sans Mono;-inkscape-font-specification:DejaVu Sans Mono" /><tspan
         sodipodi:role="line"
         x="777.73712"
         y="948.4389"
         id="tspan3599"
         style="font-style:normal;font-variant:normal;font-weight:normal;font-stretch:normal;font-family:DejaVu Sans Mono;-inkscape-font-specification:DejaVu Sans Mono" /></text>
  </g>
  <g
     inkscape:groupmode="layer"
     id="layer3"
     inkscape:label="logos"
     style="display:inline"
     transform="translate(0,308.26772)">
    <g
       id="g3456"
       transform="matrix(0.88618709,0,0,0.89742994,316.6042,-286.58401)">
      <path
         d="m 184.61344,61.929363 c 0,-14.56215 -4.15226,-22.03817 -12.45678,-22.44755 -3.30427,-0.15595 -6.53055,0.37039 -9.66912,1.58878 -2.505,0.89673 -4.19124,1.78372 -5.07823,2.68045 l 0,34.75812 c 5.31216,3.33351 10.02976,4.88329 14.14303,4.63962 8.70415,-0.57508 13.0611,-7.64172 13.0611,-21.21942 z m 10.24419,0.60432 c 0,7.39804 -1.73498,13.53871 -5.22444,18.422 -3.88909,5.5266 -9.27923,8.37275 -16.17042,8.52871 -5.1952,0.1657 -10.54635,-1.46207 -16.05346,-4.87355 l 0,31.590317 -8.90884,-3.17755 0,-70.120567 c 1.46206,-1.79346 3.34325,-3.3335 5.62407,-4.63961 5.30242,-3.08983 11.74524,-4.67861 19.32848,-4.75658 l 0.12671,0.12671 c 6.93018,-0.08773 12.27159,2.75843 16.02422,8.5287 3.4992,5.29267 5.25368,12.07665 5.25368,20.37142 z"
         style="fill:#646464;fill-opacity:1"
         id="path46"
         inkscape:connector-curvature="0" />
      <path
         d="m 249.30487,83.265743 c 0,9.92254 -0.9942,16.794237 -2.9826,20.615097 -1.99816,3.82086 -5.79952,6.8717 -11.41385,9.14277 -4.55189,1.79346 -9.47417,2.76817 -14.75709,2.93387 l -1.47181,-5.61432 c 5.37064,-0.73103 9.15252,-1.46207 11.34561,-2.1931 4.31796,-1.46206 7.28108,-3.70389 8.90884,-6.706 1.30611,-2.446517 1.94942,-7.115367 1.94942,-14.026057 l 0,-2.3198 c -6.09193,2.76817 -12.47628,4.14251 -19.15303,4.14251 -4.38619,0 -8.25579,-1.37434 -11.58929,-4.14251 -3.74289,-3.01186 -5.61433,-6.83272 -5.61433,-11.46258 l 0,-37.07793 8.90884,-3.05084 0,37.3216 c 0,3.98656 1.28662,7.0569 3.85985,9.21101 2.57323,2.1541 5.90674,3.18729 9.99077,3.10932 4.08403,-0.08773 8.46047,-1.66676 13.10983,-4.75658 l 0,-43.54025 8.90884,0 0,48.41379 z"
         style="fill:#646464;fill-opacity:1"
         id="path48"
         inkscape:connector-curvature="0" />
      <path
         d="m 284.08249,88.997033 c -1.06243,0.08772 -2.03714,0.12671 -2.93387,0.12671 -5.03925,0 -8.96733,-1.19889 -11.77449,-3.60642 -2.79742,-2.40753 -4.20099,-5.73129 -4.20099,-9.97127 l 0,-35.08953 -6.10168,0 0,-5.60457 6.10168,0 0,-14.88381 8.89909,-3.16781 0,18.05162 10.01026,0 0,5.60457 -10.01026,0 0,34.84585 c 0,3.34325 0.89673,5.71179 2.6902,7.09588 1.54004,1.14041 3.98656,1.79347 7.32006,1.95917 l 0,4.63961 z"
         style="fill:#646464;fill-opacity:1"
         id="path50"
         inkscape:connector-curvature="0" />
      <path
         d="m 338.02288,88.266003 -8.90884,0 0,-34.38773 c 0,-3.49921 -0.81876,-6.51106 -2.44651,-9.02581 -1.88119,-2.84615 -4.49342,-4.26923 -7.84641,-4.26923 -4.08404,0 -9.19152,2.15411 -15.32242,6.46233 l 0,41.22044 -8.90885,0 0,-82.1972101 8.90885,-2.80716 0,37.4385701 c 5.6923,-4.14251 11.91093,-6.21864 18.66566,-6.21864 4.7176,0 8.53846,1.58877 11.46258,4.75658 2.93388,3.1678 4.39594,7.11537 4.39594,11.83296 l 0,37.1949 0,0 z"
         style="fill:#646464;fill-opacity:1"
         id="path52"
         inkscape:connector-curvature="0" />
      <path
         d="m 385.37424,60.525783 c 0,-5.59483 -1.06242,-10.21495 -3.17755,-13.87011 -2.51474,-4.45442 -6.42332,-6.80347 -11.70625,-7.04715 -9.76658,0.56534 -14.64012,7.56375 -14.64012,20.97574 0,6.15042 1.01369,11.28713 3.06057,15.41015 2.61223,5.25368 6.53056,7.84641 11.755,7.75869 9.80557,-0.07798 14.70835,-7.81717 14.70835,-23.22732 z m 9.75685,0.05848 c 0,7.96338 -2.03714,14.5914 -6.10168,19.88407 -4.47391,5.92623 -10.65357,8.89909 -18.53897,8.89909 -7.81716,0 -13.90909,-2.97286 -18.30503,-8.89909 -3.98656,-5.29267 -5.97497,-11.92069 -5.97497,-19.88407 0,-7.48576 2.15411,-13.78238 6.46232,-18.90935 4.5519,-5.43888 10.53661,-8.16806 17.93464,-8.16806 7.39805,0 13.42174,2.72918 18.06137,8.16806 4.3082,5.12697 6.46232,11.42359 6.46232,18.90935 z"
         style="fill:#646464;fill-opacity:1"
         id="path54"
         inkscape:connector-curvature="0" />
      <path
         d="m 446.20583,88.266003 -8.90884,0 0,-36.33715 c 0,-3.98656 -1.19889,-7.09588 -3.59667,-9.33772 -2.39779,-2.23208 -5.59483,-3.31401 -9.58139,-3.22628 -4.23023,0.07798 -8.25579,1.46206 -12.07664,4.14251 l 0,44.75864 -8.90884,0 0,-45.86006 c 5.12697,-3.73313 9.84456,-6.16991 14.15276,-7.31032 4.06455,-1.06243 7.65148,-1.58877 10.74131,-1.58877 2.11512,0 4.10352,0.20469 5.97496,0.61406 3.49921,0.80901 6.34535,2.31006 8.53845,4.51291 2.44651,2.43677 3.6649,5.3609 3.6649,8.78212 l 0,40.85006 z"
         style="fill:#646464;fill-opacity:1"
         id="path56"
         inkscape:connector-curvature="0" />
      <path
         id="path1948"
         d="m 60.510156,6.3979729 c -4.583653,0.021298 -8.960939,0.4122177 -12.8125,1.09375 C 36.35144,9.4962267 34.291407,13.691825 34.291406,21.429223 l 0,10.21875 26.8125,0 0,3.40625 -26.8125,0 -10.0625,0 c -7.792459,0 -14.6157592,4.683717 -16.7500002,13.59375 -2.46182,10.212966 -2.5710151,16.586023 0,27.25 1.9059283,7.937852 6.4575432,13.593748 14.2500002,13.59375 l 9.21875,0 0,-12.25 c 0,-8.849902 7.657144,-16.656248 16.75,-16.65625 l 26.78125,0 c 7.454951,0 13.406253,-6.138164 13.40625,-13.625 l 0,-25.53125 c 0,-7.266339 -6.12998,-12.7247775 -13.40625,-13.9375001 -4.605987,-0.7667253 -9.385097,-1.1150483 -13.96875,-1.09375 z m -14.5,8.2187501 c 2.769547,0 5.03125,2.298646 5.03125,5.125 -2e-6,2.816336 -2.261703,5.09375 -5.03125,5.09375 -2.779476,-1e-6 -5.03125,-2.277415 -5.03125,-5.09375 -1e-6,-2.826353 2.251774,-5.125 5.03125,-5.125 z"
         style="fill:url(#linearGradient1478);fill-opacity:1"
         inkscape:connector-curvature="0" />
      <path
         id="path1950"
         d="m 91.228906,35.054223 0,11.90625 c 0,9.230755 -7.825895,16.999999 -16.75,17 l -26.78125,0 c -7.335833,0 -13.406249,6.278483 -13.40625,13.625 l 0,25.531247 c 0,7.26634 6.318588,11.54032 13.40625,13.625 8.487331,2.49561 16.626237,2.94663 26.78125,0 6.750155,-1.95439 13.406253,-5.88761 13.40625,-13.625 l 0,-10.218747 -26.78125,0 0,-3.40625 26.78125,0 13.406254,0 c 7.79246,0 10.69625,-5.435408 13.40624,-13.59375 2.79933,-8.398886 2.68022,-16.475776 0,-27.25 -1.92578,-7.757441 -5.60387,-13.59375 -13.40624,-13.59375 l -10.062504,0 z m -15.0625,64.65625 c 2.779478,3e-6 5.03125,2.277417 5.03125,5.093747 -2e-6,2.82635 -2.251775,5.125 -5.03125,5.125 -2.76955,0 -5.03125,-2.29865 -5.03125,-5.125 2e-6,-2.81633 2.261697,-5.093747 5.03125,-5.093747 z"
         style="fill:url(#linearGradient1475);fill-opacity:1"
         inkscape:connector-curvature="0" />
      <path
         sodipodi:nodetypes="ccccccccccccccccccccccc"
         id="text3004"
         style="font-size:15.16450024px;font-style:normal;font-weight:normal;line-height:125%;fill:#646464;fill-opacity:1;stroke:none;font-family:Bitstream Vera Sans"
         d="m 463.5544,26.909383 1.56195,0 0,-9.79624 3.70013,0 0,-1.16766 -8.96221,0 0,1.16766 3.70013,0 0,9.79624 m 6.64702,0 1.33447,0 0,-8.94703 2.89641,8.945906 1.48569,0 3.01816,-8.915576 0,8.9167 1.45579,0 0,-10.9639 -1.92589,0 -3.29831,9.392857 -2.81297,-9.392857 -2.15335,0 0,10.9639"
         inkscape:connector-curvature="0" />
      <path
         transform="matrix(0.73406,0,0,0.809524,16.2496,27.0093)"
         d="m 110.46717,132.28575 c 0,4.75334 -21.914896,8.60668 -48.948287,8.60668 -27.033391,0 -48.948284,-3.85334 -48.948284,-8.60668 0,-4.75334 21.914893,-8.60668 48.948284,-8.60668 27.033391,0 48.948287,3.85334 48.948287,8.60668 z"
         sodipodi:ry="8.6066771"
         sodipodi:rx="48.948284"
         sodipodi:cy="132.28575"
         sodipodi:cx="61.518883"
         id="path1894"
         style="opacity:0.44382001;fill:url(#radialGradient1480);fill-opacity:1;fill-rule:nonzero;stroke:none"
         sodipodi:type="arc" />
    </g>
    <g
       id="g3637"
       transform="matrix(1.4016297,0,0,1.419412,332.40851,-314.92532)">
      <g
         transform="translate(459.94833,448.72892)"
         id="g2683">
        <path
           style="font-size:12.7322998px;font-style:normal;font-variant:normal;font-weight:normal;font-stretch:normal;text-align:start;line-height:100%;text-anchor:start;fill:#000000;fill-opacity:1;stroke:none;font-family:Bitstream Vera Sans"
           d="m 108.63382,258.44384 -1.70344,4.6192 3.41311,0 -1.70967,-4.6192 m -0.70873,-1.23718 1.42368,0 3.53746,9.28193 -1.30557,0 -0.8455,-2.3811 -4.18402,0 -0.8455,2.3811 -1.32422,0 3.54367,-9.28193 m 10.69939,2.52409 0,1.08175 c -0.32329,-0.16578 -0.659,-0.29012 -1.00715,-0.37302 -0.34815,-0.0829 -0.70874,-0.12433 -1.08175,-0.12434 -0.56782,1e-5 -0.99471,0.0871 -1.28069,0.26112 -0.28184,0.17408 -0.42276,0.43519 -0.42276,0.78333 0,0.26527 0.10155,0.47457 0.30464,0.62792 0.20308,0.14921 0.61133,0.2922 1.22474,0.42897 l 0.39166,0.087 c 0.81235,0.17408 1.38845,0.42069 1.72832,0.73982 0.344,0.315 0.516,0.7564 0.51601,1.32422 -1e-5,0.64656 -0.25698,1.15842 -0.77091,1.53558 -0.50979,0.37717 -1.21231,0.56575 -2.10755,0.56575 -0.37302,0 -0.76261,-0.0373 -1.16878,-0.11191 -0.40204,-0.0705 -0.82686,-0.17822 -1.27448,-0.32328 l 0,-1.18122 c 0.42275,0.21967 0.83929,0.38545 1.24961,0.49736 0.41032,0.10776 0.81649,0.16164 1.21852,0.16164 0.5388,0 0.95327,-0.0912 1.24339,-0.27355 0.29012,-0.18651 0.43519,-0.44762 0.43519,-0.78334 0,-0.31084 -0.10569,-0.54916 -0.31706,-0.71495 -0.20724,-0.16578 -0.66522,-0.32535 -1.37395,-0.4787 l -0.39789,-0.0933 c -0.70873,-0.1492 -1.22059,-0.37716 -1.53559,-0.68386 -0.31499,-0.31085 -0.47249,-0.73567 -0.47248,-1.27448 -1e-5,-0.65485 0.23209,-1.16049 0.69629,-1.51694 0.4642,-0.35643 1.1232,-0.53465 1.977,-0.53466 0.42275,10e-6 0.82063,0.0311 1.19365,0.0933 0.37302,0.0622 0.71702,0.15543 1.03202,0.27976 m 6.63971,0 0,1.08175 c -0.32328,-0.16578 -0.659,-0.29012 -1.00714,-0.37302 -0.34816,-0.0829 -0.70874,-0.12433 -1.08176,-0.12434 -0.56781,10e-6 -0.99471,0.0871 -1.28069,0.26112 -0.28184,0.17408 -0.42275,0.43519 -0.42275,0.78333 0,0.26527 0.10154,0.47457 0.30463,0.62792 0.20308,0.14921 0.61133,0.2922 1.22474,0.42897 l 0.39167,0.087 c 0.81234,0.17408 1.38845,0.42069 1.72831,0.73982 0.344,0.315 0.516,0.7564 0.51601,1.32422 -10e-6,0.64656 -0.25697,1.15842 -0.7709,1.53558 -0.5098,0.37717 -1.21231,0.56575 -2.10755,0.56575 -0.37302,0 -0.76262,-0.0373 -1.16879,-0.11191 -0.40203,-0.0705 -0.82686,-0.17822 -1.27448,-0.32328 l 0,-1.18122 c 0.42275,0.21967 0.83929,0.38545 1.24961,0.49736 0.41032,0.10776 0.81649,0.16164 1.21853,0.16164 0.5388,0 0.95326,-0.0912 1.24339,-0.27355 0.29012,-0.18651 0.43518,-0.44762 0.43519,-0.78334 -1e-5,-0.31084 -0.1057,-0.54916 -0.31707,-0.71495 -0.20724,-0.16578 -0.66522,-0.32535 -1.37395,-0.4787 l -0.39788,-0.0933 c -0.70874,-0.1492 -1.2206,-0.37716 -1.53559,-0.68386 -0.315,-0.31085 -0.47249,-0.73567 -0.47249,-1.27448 0,-0.65485 0.2321,-1.16049 0.6963,-1.51694 0.4642,-0.35643 1.12319,-0.53465 1.97699,-0.53466 0.42275,1e-5 0.82064,0.0311 1.19366,0.0933 0.37301,0.0622 0.71702,0.15543 1.03201,0.27976 m 4.89897,0.59683 c -0.61341,0 -1.09833,0.24039 -1.45477,0.72117 -0.35644,0.47663 -0.53466,1.13149 -0.53466,1.96456 0,0.83307 0.17615,1.49 0.52844,1.97077 0.35644,0.47664 0.84343,0.71495 1.46099,0.71495 0.60926,0 1.09211,-0.24039 1.44855,-0.72116 0.35643,-0.48078 0.53465,-1.13563 0.53466,-1.96456 -1e-5,-0.82478 -0.17823,-1.47756 -0.53466,-1.95835 -0.35644,-0.48491 -0.83929,-0.72738 -1.44855,-0.72738 m 0,-0.96985 c 0.99471,1e-5 1.77597,0.32329 2.34379,0.96985 0.56781,0.64657 0.85172,1.54181 0.85173,2.68573 -1e-5,1.13977 -0.28392,2.03502 -0.85173,2.68572 -0.56782,0.64657 -1.34908,0.96985 -2.34379,0.96985 -0.99886,0 -1.7822,-0.32328 -2.35001,-0.96985 -0.56367,-0.6507 -0.84551,-1.54595 -0.84551,-2.68572 0,-1.14392 0.28184,-2.03916 0.84551,-2.68573 0.56781,-0.64656 1.35115,-0.96984 2.35001,-0.96985 m 10.09634,0.43519 0,1.06932 c -0.32328,-0.17822 -0.64864,-0.31084 -0.97606,-0.39789 -0.32329,-0.0912 -0.65071,-0.13677 -0.98228,-0.13677 -0.74189,0 -1.318,0.23625 -1.72831,0.70873 -0.41033,0.46835 -0.61549,1.12735 -0.61548,1.977 -1e-5,0.84965 0.20515,1.51072 0.61548,1.98321 0.41031,0.46834 0.98642,0.70251 1.72831,0.70251 0.33157,0 0.65899,-0.0435 0.98228,-0.13055 0.32742,-0.0912 0.65278,-0.22589 0.97606,-0.40411 l 0,1.05689 c -0.31914,0.1492 -0.65071,0.26111 -0.99471,0.33571 -0.33987,0.0746 -0.70252,0.11191 -1.08797,0.11191 -1.0486,0 -1.88167,-0.3295 -2.49922,-0.9885 -0.61755,-0.65899 -0.92632,-1.54802 -0.92632,-2.66707 0,-1.13563 0.31084,-2.0288 0.93254,-2.67951 0.62584,-0.65071 1.48171,-0.97606 2.5676,-0.97607 0.35229,1e-5 0.6963,0.0373 1.03202,0.11191 0.33571,0.0705 0.66106,0.17822 0.97606,0.32328 m 2.00186,-0.26733 1.14392,0 0,6.963 -1.14392,0 0,-6.963 m 0,-2.71059 1.14392,0 0,1.44855 -1.14392,0 0,-1.44855 m 6.69567,6.17344 c -0.92426,0 -1.5646,0.10569 -1.92104,0.31706 -0.35644,0.21138 -0.53466,0.57197 -0.53466,1.08175 0,0.40618 0.13263,0.72946 0.39789,0.96985 0.2694,0.23625 0.63412,0.35437 1.09418,0.35437 0.63413,0 1.14185,-0.22381 1.52316,-0.67144 0.38544,-0.45176 0.57817,-1.05066 0.57817,-1.7967 l 0,-0.25489 -1.1377,0 m 2.28162,-0.47249 0,3.97264 -1.14392,0 0,-1.05689 c -0.26111,0.42276 -0.58647,0.73568 -0.97606,0.93876 -0.3896,0.19895 -0.86623,0.29842 -1.4299,0.29842 -0.71288,0 -1.2807,-0.19894 -1.70345,-0.59683 -0.41861,-0.40203 -0.62791,-0.93876 -0.62791,-1.61019 0,-0.78334 0.26111,-1.37395 0.78334,-1.77184 0.52636,-0.39788 1.3097,-0.59682 2.35001,-0.59682 l 1.60397,0 0,-0.11191 c 0,-0.52636 -0.17408,-0.93254 -0.52222,-1.21852 -0.34401,-0.29012 -0.82893,-0.43519 -1.45477,-0.43519 -0.39789,0 -0.78541,0.0477 -1.16257,0.14299 -0.37717,0.0953 -0.73982,0.23832 -1.08797,0.42897 l 0,-1.05688 c 0.41861,-0.16164 0.82478,-0.28183 1.21853,-0.36059 0.39373,-0.0829 0.77711,-0.12433 1.15013,-0.12434 1.00715,1e-5 1.7594,0.26112 2.25676,0.78334 0.49735,0.52223 0.74603,1.31386 0.74603,2.37488 m 3.49394,-4.96735 0,1.97699 2.35622,0 0,0.88903 -2.35622,0 0,3.77991 c -10e-6,0.56782 0.0767,0.93254 0.23002,1.09418 0.1575,0.16165 0.47456,0.24247 0.9512,0.24246 l 1.175,0 0,0.95742 -1.175,0 c -0.88281,0 -1.49207,-0.16372 -1.82779,-0.49114 -0.33571,-0.33157 -0.50357,-0.93255 -0.50357,-1.80292 l 0,-3.77991 -0.83929,0 0,-0.88903 0.83929,0 0,-1.97699 1.15014,0 m 3.86695,1.97699 1.14392,0 0,6.963 -1.14392,0 0,-6.963 m 0,-2.71059 1.14392,0 0,1.44855 -1.14392,0 0,-1.44855 m 6.22939,3.51258 c -0.61341,0 -1.09833,0.24039 -1.45477,0.72117 -0.35644,0.47663 -0.53466,1.13149 -0.53466,1.96456 0,0.83307 0.17615,1.49 0.52845,1.97077 0.35643,0.47664 0.84343,0.71495 1.46098,0.71495 0.60926,0 1.09211,-0.24039 1.44855,-0.72116 0.35644,-0.48078 0.53466,-1.13563 0.53466,-1.96456 0,-0.82478 -0.17822,-1.47756 -0.53466,-1.95835 -0.35644,-0.48491 -0.83929,-0.72738 -1.44855,-0.72738 m 0,-0.96985 c 0.99471,1e-5 1.77597,0.32329 2.3438,0.96985 0.5678,0.64657 0.85171,1.54181 0.85172,2.68573 -1e-5,1.13977 -0.28392,2.03502 -0.85172,2.68572 -0.56783,0.64657 -1.34909,0.96985 -2.3438,0.96985 -0.99886,0 -1.7822,-0.32328 -2.35001,-0.96985 -0.56367,-0.6507 -0.84551,-1.54595 -0.84551,-2.68572 0,-1.14392 0.28184,-2.03916 0.84551,-2.68573 0.56781,-0.64656 1.35115,-0.96984 2.35001,-0.96985 m 10.87346,2.92819 0,4.20267 -1.14392,0 0,-4.16537 c 0,-0.65899 -0.12849,-1.1522 -0.38545,-1.47963 -0.25697,-0.32742 -0.64242,-0.49114 -1.15635,-0.49114 -0.61756,0 -1.10455,0.19687 -1.46099,0.59061 -0.35644,0.39374 -0.53466,0.93047 -0.53466,1.61019 l 0,3.93534 -1.15013,0 0,-6.963 1.15013,0 0,1.08175 c 0.27355,-0.4186 0.59476,-0.73152 0.96363,-0.93876 0.37302,-0.20722 0.80199,-0.31084 1.28691,-0.31085 0.79991,1e-5 1.40503,0.24869 1.81536,0.74604 0.41031,0.49322 0.61547,1.2206 0.61547,2.18215"
           id="text2918"
           inkscape:connector-curvature="0" />
        <path
           style="font-size:12.81400013px;font-style:normal;font-variant:normal;font-weight:normal;font-stretch:normal;text-align:start;line-height:100%;text-anchor:start;fill:#000000;fill-opacity:1;stroke:none;font-family:Bitstream Vera Sans"
           d="m 182.57433,257.14715 5.36835,0 0,1.06366 -4.10447,0 0,2.753 3.70404,0 0,1.06366 -3.70404,0 0,4.46112 -1.26388,0 0,-9.34144 m 10.46766,3.40997 c -0.12931,-0.0751 -0.27113,-0.1293 -0.42546,-0.16268 -0.15017,-0.0375 -0.31702,-0.0563 -0.50055,-0.0563 -0.65071,10e-6 -1.15125,0.21274 -1.50163,0.6382 -0.34622,0.4213 -0.51932,1.02821 -0.51932,1.82073 l 0,3.69153 -1.15751,0 0,-7.00764 1.15751,0 0,1.08868 c 0.24193,-0.42545 0.55685,-0.74038 0.94478,-0.94478 0.38792,-0.20855 0.85927,-0.31283 1.41404,-0.31284 0.0793,10e-6 0.16685,0.006 0.26279,0.0188 0.0959,0.008 0.2023,0.0229 0.3191,0.0438 l 0.006,1.18254 m 4.4048,2.40888 c -0.93018,0 -1.57463,0.10637 -1.93335,0.31909 -0.35873,0.21274 -0.53809,0.57563 -0.53809,1.08869 0,0.40878 0.13348,0.73414 0.40044,0.97607 0.27112,0.23776 0.63819,0.35663 1.1012,0.35663 0.63819,0 1.14916,-0.22524 1.53292,-0.67573 0.38792,-0.45466 0.58188,-1.0574 0.58188,-1.80822 l 0,-0.25653 -1.145,0 m 2.29626,-0.47552 0,3.99811 -1.15126,0 0,-1.06366 c -0.26279,0.42546 -0.59023,0.74039 -0.98232,0.94478 -0.3921,0.20022 -0.87179,0.30032 -1.43907,0.30032 -0.71745,0 -1.2889,-0.20021 -1.71437,-0.60065 -0.42129,-0.40461 -0.63194,-0.94478 -0.63193,-1.62052 -1e-5,-0.78835 0.26278,-1.38275 0.78835,-1.78319 0.52975,-0.40043 1.31811,-0.60065 2.36508,-0.60066 l 1.61426,0 0,-0.11262 c 0,-0.52974 -0.17519,-0.93852 -0.52557,-1.22634 -0.34622,-0.29197 -0.83425,-0.43797 -1.4641,-0.43797 -0.40044,0 -0.79044,0.048 -1.17002,0.1439 -0.37958,0.096 -0.74457,0.23985 -1.09495,0.43172 l 0,-1.06365 c 0.4213,-0.16268 0.83007,-0.28364 1.22634,-0.3629 0.39626,-0.0834 0.7821,-0.12513 1.15751,-0.12514 1.0136,10e-6 1.77068,0.2628 2.27123,0.78836 0.50054,0.52558 0.75081,1.32228 0.75082,2.39011 m 8.20269,-0.2315 0,4.22961 -1.15125,0 0,-4.19207 c -1e-5,-0.66322 -0.12932,-1.1596 -0.38793,-1.48913 -0.25862,-0.32952 -0.64654,-0.49428 -1.16377,-0.49429 -0.62151,1e-5 -1.11163,0.19814 -1.47035,0.5944 -0.35873,0.39627 -0.53809,0.93644 -0.53809,1.62052 l 0,3.96057 -1.15751,0 0,-7.00764 1.15751,0 0,1.08868 c 0.2753,-0.42128 0.59857,-0.73621 0.96981,-0.94478 0.37541,-0.20855 0.80713,-0.31283 1.29516,-0.31284 0.80504,10e-6 1.41404,0.25028 1.827,0.75082 0.41294,0.49638 0.61941,1.22843 0.61942,2.19615 m 7.35176,-2.50899 0,1.07617 c -0.32536,-0.17935 -0.6528,-0.31283 -0.98232,-0.40043 -0.32536,-0.0918 -0.65488,-0.13765 -0.98857,-0.13765 -0.74666,0 -1.32645,0.23776 -1.7394,0.71327 -0.41295,0.47136 -0.61943,1.13458 -0.61943,1.98967 0,0.85511 0.20648,1.52041 0.61943,1.99593 0.41295,0.47135 0.99274,0.70702 1.7394,0.70702 0.33369,0 0.66321,-0.0438 0.98857,-0.13139 0.32952,-0.0918 0.65696,-0.22733 0.98232,-0.4067 l 0,1.06366 c -0.32119,0.15017 -0.65488,0.26279 -1.00109,0.33787 -0.34204,0.0751 -0.70702,0.11262 -1.09494,0.11262 -1.05532,0 -1.89373,-0.33161 -2.51524,-0.99483 -0.62152,-0.66322 -0.93227,-1.55795 -0.93227,-2.68418 0,-1.1429 0.31284,-2.0418 0.93852,-2.69669 0.62985,-0.65487 1.49121,-0.98231 2.58407,-0.98232 0.35455,10e-6 0.70076,0.0376 1.03863,0.11263 0.33787,0.0709 0.66531,0.17937 0.98232,0.32535 m 4.73016,0.53809 c -0.61734,0 -1.10537,0.24193 -1.4641,0.72579 -0.35872,0.47969 -0.53808,1.13874 -0.53808,1.97715 0,0.83842 0.17727,1.49956 0.53183,1.98342 0.35872,0.47969 0.84884,0.71953 1.47035,0.71953 0.61316,0 1.09911,-0.24193 1.45784,-0.72579 0.35872,-0.48386 0.53808,-1.14291 0.53809,-1.97716 -1e-5,-0.83006 -0.17937,-1.48703 -0.53809,-1.97089 -0.35873,-0.48803 -0.84468,-0.73205 -1.45784,-0.73205 m 0,-0.97607 c 1.00109,10e-6 1.78736,0.32536 2.35882,0.97607 0.57145,0.65071 0.85718,1.55169 0.85719,2.70294 -10e-6,1.14709 -0.28574,2.04807 -0.85719,2.70295 -0.57146,0.65071 -1.35773,0.97606 -2.35882,0.97606 -1.00527,0 -1.79362,-0.32535 -2.36508,-0.97606 -0.56728,-0.65488 -0.85093,-1.55586 -0.85093,-2.70295 0,-1.15125 0.28365,-2.05223 0.85093,-2.70294 0.57146,-0.65071 1.35981,-0.97606 2.36508,-0.97607 m 6.2318,6.12543 0,3.71655 -1.15752,0 0,-9.67304 1.15752,0 0,1.06366 c 0.24192,-0.41712 0.54642,-0.72579 0.91349,-0.92601 0.37124,-0.20439 0.81338,-0.30658 1.32645,-0.30659 0.85092,10e-6 1.54125,0.33788 2.07101,1.01361 0.5339,0.67574 0.80086,1.56421 0.80087,2.6654 -1e-5,1.10121 -0.26697,1.98967 -0.80087,2.66541 -0.52976,0.67574 -1.22009,1.0136 -2.07101,1.0136 -0.51307,0 -0.95521,-0.1001 -1.32645,-0.30032 -0.36707,-0.20439 -0.67157,-0.51515 -0.91349,-0.93227 m 3.91677,-2.44642 c -1e-5,-0.84675 -0.1752,-1.50997 -0.52558,-1.98967 -0.34621,-0.48385 -0.82382,-0.72578 -1.43281,-0.72579 -0.609,10e-6 -1.08869,0.24194 -1.43907,0.72579 -0.34621,0.4797 -0.51932,1.14292 -0.51931,1.98967 -1e-5,0.84676 0.1731,1.51207 0.51931,1.99593 0.35038,0.47969 0.83007,0.71953 1.43907,0.71953 0.60899,0 1.0866,-0.23984 1.43281,-0.71953 0.35038,-0.48386 0.52557,-1.14917 0.52558,-1.99593 m 8.92848,-0.73204 0,4.22961 -1.15126,0 0,-4.19207 c 0,-0.66322 -0.12931,-1.1596 -0.38792,-1.48913 -0.25862,-0.32952 -0.64654,-0.49428 -1.16377,-0.49429 -0.62151,1e-5 -1.11163,0.19814 -1.47035,0.5944 -0.35873,0.39627 -0.53809,0.93644 -0.53809,1.62052 l 0,3.96057 -1.15751,0 0,-9.73562 1.15751,0 0,3.81666 c 0.2753,-0.42128 0.59857,-0.73621 0.96981,-0.94478 0.3754,-0.20855 0.80712,-0.31283 1.29516,-0.31284 0.80504,10e-6 1.41404,0.25028 1.82699,0.75082 0.41295,0.49638 0.61942,1.22843 0.61943,2.19615 m 5.02423,-1.9709 c -0.61735,0 -1.10538,0.24193 -1.4641,0.72579 -0.35873,0.47969 -0.53809,1.13874 -0.53809,1.97715 0,0.83842 0.17728,1.49956 0.53183,1.98342 0.35872,0.47969 0.84884,0.71953 1.47036,0.71953 0.61316,0 1.09911,-0.24193 1.45784,-0.72579 0.35871,-0.48386 0.53808,-1.14291 0.53808,-1.97716 0,-0.83006 -0.17937,-1.48703 -0.53808,-1.97089 -0.35873,-0.48803 -0.84468,-0.73205 -1.45784,-0.73205 m 0,-0.97607 c 1.00108,10e-6 1.78736,0.32536 2.35882,0.97607 0.57145,0.65071 0.85717,1.55169 0.85718,2.70294 -1e-5,1.14709 -0.28573,2.04807 -0.85718,2.70295 -0.57146,0.65071 -1.35774,0.97606 -2.35882,0.97606 -1.00527,0 -1.79363,-0.32535 -2.36508,-0.97606 -0.56729,-0.65488 -0.85093,-1.55586 -0.85093,-2.70295 0,-1.15125 0.28364,-2.05223 0.85093,-2.70294 0.57145,-0.65071 1.35981,-0.97606 2.36508,-0.97607 m 10.94317,2.94697 0,4.22961 -1.15125,0 0,-4.19207 c -1e-5,-0.66322 -0.12932,-1.1596 -0.38793,-1.48913 -0.25862,-0.32952 -0.64654,-0.49428 -1.16377,-0.49429 -0.62151,1e-5 -1.11163,0.19814 -1.47035,0.5944 -0.35873,0.39627 -0.53809,0.93644 -0.53809,1.62052 l 0,3.96057 -1.15751,0 0,-7.00764 1.15751,0 0,1.08868 c 0.2753,-0.42128 0.59857,-0.73621 0.96981,-0.94478 0.37541,-0.20855 0.80713,-0.31283 1.29516,-0.31284 0.80504,10e-6 1.41404,0.25028 1.827,0.75082 0.41294,0.49638 0.61941,1.22843 0.61942,2.19615 m 8.30281,0.43797 0,0.56312 -5.29327,0 c 0.05,0.79253 0.28781,1.39736 0.71327,1.81447 0.42964,0.41296 1.02612,0.61943 1.78946,0.61943 0.44214,0 0.86969,-0.0542 1.28264,-0.16268 0.41712,-0.10845 0.83007,-0.27112 1.23885,-0.48803 l 0,1.08869 c -0.41295,0.17519 -0.83633,0.30867 -1.27013,0.40043 -0.43381,0.0918 -0.87387,0.13765 -1.32019,0.13765 -1.11789,0 -2.00427,-0.32535 -2.65915,-0.97606 -0.65071,-0.65071 -0.97606,-1.53083 -0.97606,-2.64038 0,-1.14708 0.30867,-2.0564 0.92601,-2.72797 0.62151,-0.67573 1.45783,-1.0136 2.50898,-1.01361 0.94269,10e-6 1.68725,0.30451 2.23369,0.9135 0.55059,0.60483 0.82589,1.42864 0.8259,2.47144 m -1.15126,-0.33787 c -0.008,-0.62984 -0.18562,-1.13247 -0.53183,-1.50789 -0.34204,-0.3754 -0.7967,-0.56311 -1.36398,-0.56311 -0.64237,0 -1.15752,0.18145 -1.54544,0.54434 -0.38375,0.3629 -0.60483,0.87387 -0.66322,1.53292 l 4.10447,-0.006"
           id="text2922"
           inkscape:connector-curvature="0" />
        <path
           style="font-size:12.81400013px;font-style:normal;font-variant:normal;font-weight:normal;font-stretch:normal;text-align:start;line-height:100%;text-anchor:start;fill:#000000;fill-opacity:1;stroke:none;font-family:Bitstream Vera Sans"
           d="m 271.5107,258.18579 0,3.51007 1.58923,0 c 0.58813,1e-5 1.0428,-0.15224 1.36398,-0.45675 0.32118,-0.30449 0.48177,-0.73829 0.48178,-1.30141 -1e-5,-0.55894 -0.1606,-0.99066 -0.48178,-1.29517 -0.32118,-0.30449 -0.77585,-0.45674 -1.36398,-0.45674 l -1.58923,0 m -1.26388,-1.03864 2.85311,0 c 1.04697,10e-6 1.83741,0.23777 2.37133,0.71328 0.53808,0.47136 0.80713,1.16378 0.80713,2.07727 0,0.92184 -0.26905,1.61843 -0.80713,2.08977 -0.53392,0.47135 -1.32436,0.70703 -2.37133,0.70702 l -1.58923,0 0,3.7541 -1.26388,0 0,-9.34144 m 10.59905,9.99215 c -0.32536,0.83424 -0.64237,1.37858 -0.95103,1.63303 -0.30868,0.25444 -0.72163,0.38166 -1.23886,0.38166 l -0.91975,0 0,-0.96355 0.67574,0 c 0.31701,0 0.56311,-0.0751 0.7383,-0.22524 0.17519,-0.15017 0.36915,-0.50472 0.58189,-1.06366 l 0.20647,-0.52558 -2.83434,-6.89501 1.22008,0 2.18989,5.48097 2.18989,-5.48097 1.22008,0 -3.07836,7.65835 m 5.80633,-9.64802 0,1.98967 2.37134,0 0,0.89472 -2.37134,0 0,3.80415 c 0,0.57146 0.0772,0.93852 0.2315,1.1012 0.15851,0.16268 0.4776,0.24402 0.9573,0.24402 l 1.18254,0 0,0.96355 -1.18254,0 c -0.88847,0 -1.50164,-0.16477 -1.83951,-0.49429 -0.33787,-0.3337 -0.5068,-0.93852 -0.5068,-1.81448 l 0,-3.80415 -0.84467,0 0,-0.89472 0.84467,0 0,-1.98967 1.15751,0 m 9.71684,4.7677 0,4.22961 -1.15125,0 0,-4.19207 c -10e-6,-0.66322 -0.12931,-1.1596 -0.38792,-1.48913 -0.25862,-0.32952 -0.64655,-0.49428 -1.16377,-0.49429 -0.62152,10e-6 -1.11163,0.19814 -1.47035,0.5944 -0.35873,0.39627 -0.53809,0.93644 -0.53809,1.62052 l 0,3.96057 -1.15751,0 0,-9.73562 1.15751,0 0,3.81666 c 0.2753,-0.42128 0.59856,-0.73621 0.96981,-0.94478 0.3754,-0.20855 0.80712,-0.31283 1.29516,-0.31284 0.80504,1e-5 1.41403,0.25028 1.82699,0.75082 0.41294,0.49638 0.61942,1.22843 0.61942,2.19615 m 5.02423,-1.9709 c -0.61734,0 -1.10537,0.24193 -1.46409,0.72579 -0.35873,0.47969 -0.53809,1.13874 -0.53809,1.97715 0,0.83842 0.17727,1.49956 0.53183,1.98342 0.35872,0.47969 0.84884,0.71953 1.47035,0.71953 0.61317,0 1.09911,-0.24193 1.45784,-0.72579 0.35872,-0.48386 0.53808,-1.14291 0.53809,-1.97716 -1e-5,-0.83006 -0.17937,-1.48703 -0.53809,-1.97089 -0.35873,-0.48803 -0.84467,-0.73205 -1.45784,-0.73205 m 0,-0.97607 c 1.00109,1e-5 1.78736,0.32536 2.35882,0.97607 0.57145,0.65071 0.85718,1.55169 0.85719,2.70294 -1e-5,1.14709 -0.28574,2.04807 -0.85719,2.70295 -0.57146,0.65071 -1.35773,0.97606 -2.35882,0.97606 -1.00526,0 -1.79362,-0.32535 -2.36508,-0.97606 -0.56728,-0.65488 -0.85092,-1.55586 -0.85092,-2.70295 0,-1.15125 0.28364,-2.05223 0.85092,-2.70294 0.57146,-0.65071 1.35982,-0.97606 2.36508,-0.97607 m 10.94318,2.94697 0,4.22961 -1.15126,0 0,-4.19207 c 0,-0.66322 -0.12931,-1.1596 -0.38792,-1.48913 -0.25862,-0.32952 -0.64654,-0.49428 -1.16377,-0.49429 -0.62151,10e-6 -1.11163,0.19814 -1.47035,0.5944 -0.35873,0.39627 -0.53809,0.93644 -0.53809,1.62052 l 0,3.96057 -1.15751,0 0,-7.00764 1.15751,0 0,1.08868 c 0.2753,-0.42128 0.59857,-0.73621 0.96981,-0.94478 0.37541,-0.20855 0.80713,-0.31283 1.29516,-0.31284 0.80504,1e-5 1.41404,0.25028 1.82699,0.75082 0.41295,0.49638 0.61942,1.22843 0.61943,2.19615"
           id="text2926"
           inkscape:connector-curvature="0" />
      </g>
      <g
         inkscape:export-ydpi="68.766876"
         inkscape:export-xdpi="68.766876"
         inkscape:export-filename="/home/dadafkas/projets/AFPY/homepage/afpy_logo.png"
         transform="matrix(0.674595,0,0,0.674595,350.94433,410.71492)"
         id="g2894"
         inkscape:label="Calque 1">
        <path
           transform="matrix(1.54671,0,0,1.54671,-377.49,-454.389)"
           sodipodi:open="true"
           sodipodi:end="8.4919515"
           sodipodi:start="2.2089023"
           d="m 465.43372,563.75576 c -14.1635,-10.50371 -17.13035,-30.50043 -6.62664,-44.66393 10.50371,-14.1635 30.50043,-17.13035 44.66393,-6.62664 14.1635,10.50371 17.13034,30.50043 6.62664,44.66393 -10.5027,14.16214 -30.49688,17.13 -44.66044,6.62923"
           sodipodi:ry="31.927879"
           sodipodi:rx="31.927879"
           sodipodi:cy="538.11047"
           sodipodi:cx="484.45236"
           id="path2896"
           style="fill:#ffffff;fill-opacity:1;stroke:none"
           sodipodi:type="arc" />
        <path
           sodipodi:nodetypes="cccc"
           id="path2898"
           d="m 371.96419,377.46401 -33.84881,42.86523 c 18.84158,14.9297 44.35561,15.86429 64.2285,2.33761 l -30.37969,-45.20284 z"
           style="fill:#ff6f32;fill-opacity:1;stroke:none"
           inkscape:connector-curvature="0" />
        <path
           sodipodi:nodetypes="cccc"
           id="path2900"
           d="m 371.96419,377.46401 29.67469,45.6852 c 20.33275,-13.37077 29.16512,-37.74614 22.1145,-61.03748 l -51.78919,15.35228 z"
           style="fill:#84326b;fill-opacity:1;stroke:none"
           inkscape:connector-curvature="0" />
        <path
           sodipodi:nodetypes="cccc"
           id="path2902"
           d="m 371.96419,377.46401 52.08602,-14.38755 c -6.64631,-23.54322 -27.44672,-39.37094 -51.90968,-39.51667 l -0.17634,53.90422 z"
           style="fill:#32ada9;fill-opacity:1;stroke:none"
           inkscape:connector-curvature="0" />
        <path
           sodipodi:nodetypes="cccc"
           id="path2904"
           d="m 371.96419,377.46401 1.51211,-53.86711 c -24.42083,-0.73836 -45.76073,14.26771 -53.28256,37.513 l 51.77045,16.35411 z"
           style="fill:#ebff32;fill-opacity:1;stroke:none"
           inkscape:connector-curvature="0" />
        <path
           sodipodi:nodetypes="cccc"
           id="path2906"
           d="m 371.96419,377.46401 -51.51072,-17.0591 c -7.65986,22.61504 -0.10676,46.77739 19.0719,61.00037 l 32.43882,-43.94127 z"
           style="fill:#327bd6;fill-opacity:1;stroke:none"
           inkscape:connector-curvature="0" />
        <path
           id="path2908"
           d="m 366.89769,331.21685 c -7.94711,0.0417 -18.96792,2.29224 -20.21875,11.75 -0.64273,3.11778 0.15932,6.95957 -0.46875,9.65625 -9.45663,-1.0135 -20.00443,4.78868 -21.28125,14.78125 -2.62699,11.21429 -1.99371,25.74159 7.96875,33.09375 3.89944,2.66086 9.6673,1.55022 13.28125,2.4375 -1.00844,8.0247 2.48513,17.15608 11.0625,19.1875 12.12768,4.60746 27.94189,3.95591 37.40625,-5.71875 3.28573,-3.80337 2.02658,-10.05567 2.9375,-13.78125 7.60181,0.96521 17.00518,-1.52298 19.25,-9.71875 5.23535,-11.83699 4.50009,-27.73762 -4.71875,-37.375 -4.09609,-3.51062 -10.71252,-2.26038 -14.8125,-3.125 1.07712,-8.09052 -2.4393,-17.50455 -11.03125,-19.65625 -6.17643,-2.02057 -12.94756,-1.79801 -19.375,-1.53125 z"
           style="fill:#ffffff;fill-opacity:1"
           inkscape:connector-curvature="0" />
        <g
           id="g2910"
           transform="matrix(0.796079,0,0,0.763683,323.119,330.111)">
          <path
             id="path2912"
             style="fill:url(#linearGradient3706);fill-opacity:1"
             d="m 60.510156,6.3979729 c -4.583653,0.021298 -8.960939,0.4122177 -12.8125,1.09375 C 36.35144,9.4962267 34.291407,13.691825 34.291406,21.429223 l 0,10.21875 26.8125,0 0,3.40625 -26.8125,0 -10.0625,0 c -7.792459,0 -14.6157592,4.683717 -16.7500002,13.59375 -2.46182,10.212966 -2.5710151,16.586023 0,27.25 1.9059283,7.937852 6.4575432,13.593748 14.2500002,13.59375 l 9.21875,0 0,-12.25 c 0,-8.849902 7.657144,-16.656248 16.75,-16.65625 l 26.78125,0 c 7.454951,0 13.406253,-6.138164 13.40625,-13.625 l 0,-25.53125 c 0,-7.266339 -6.12998,-12.7247775 -13.40625,-13.9375001 -4.605987,-0.7667253 -9.385097,-1.1150483 -13.96875,-1.09375 z m -14.5,8.2187501 c 2.769547,0 5.03125,2.298646 5.03125,5.125 -2e-6,2.816336 -2.261703,5.09375 -5.03125,5.09375 -2.779476,-1e-6 -5.03125,-2.277415 -5.03125,-5.09375 -1e-6,-2.826353 2.251774,-5.125 5.03125,-5.125 z"
             inkscape:connector-curvature="0" />
          <path
             id="path2914"
             style="fill:url(#linearGradient3708);fill-opacity:1"
             d="m 91.228906,35.054223 0,11.90625 c 0,9.230755 -7.825895,16.999999 -16.75,17 l -26.78125,0 c -7.335833,0 -13.406249,6.278483 -13.40625,13.625 l 0,25.531247 c 0,7.26634 6.318588,11.54032 13.40625,13.625 8.487331,2.49561 16.626237,2.94663 26.78125,0 6.750155,-1.95439 13.406253,-5.88761 13.40625,-13.625 l 0,-10.218747 -26.78125,0 0,-3.40625 26.78125,0 13.406254,0 c 7.79246,0 10.69625,-5.435408 13.40624,-13.59375 2.79933,-8.398886 2.68022,-16.475776 0,-27.25 -1.92578,-7.757441 -5.60387,-13.59375 -13.40624,-13.59375 l -10.062504,0 z m -15.0625,64.65625 c 2.779478,3e-6 5.03125,2.277417 5.03125,5.093747 -2e-6,2.82635 -2.251775,5.125 -5.03125,5.125 -2.76955,0 -5.03125,-2.29865 -5.03125,-5.125 2e-6,-2.81633 2.261697,-5.093747 5.03125,-5.093747 z"
             inkscape:connector-curvature="0" />
        </g>
      </g>
      <path
         inkscape:export-ydpi="68.766876"
         inkscape:export-xdpi="68.766876"
         inkscape:export-filename="/home/dadafkas/projets/AFPY/homepage/afpy_logo.png"
         id="text2979"
         d="m 658.71721,665.69271 c -4.50067,2e-5 -7.61883,0.51467 -9.3545,1.54395 -1.73568,1.02931 -2.60352,2.78517 -2.60351,5.26757 -10e-6,1.97788 0.64582,3.55209 1.9375,4.72266 1.31183,1.1504 3.08787,1.72559 5.32812,1.72559 3.08787,0 5.5602,-1.08984 7.41699,-3.26953 1.87693,-2.19987 2.81541,-5.1162 2.81543,-8.74903 l 0,-1.24121 -5.54003,0 m 11.11035,-2.30078 0,19.34473 -5.57032,0 0,-5.14649 c -1.27151,2.0586 -2.85581,3.58236 -4.75293,4.57129 -1.89715,0.96875 -4.21811,1.45313 -6.96289,1.45313 -3.47136,0 -6.23633,-0.96875 -8.29492,-2.90625 -2.03841,-1.95768 -3.05762,-4.57129 -3.05762,-7.84082 0,-3.81444 1.27148,-6.69042 3.81446,-8.62793 2.56314,-1.93748 6.37759,-2.90623 11.44336,-2.90625 l 7.81054,0 0,-0.54493 c -2e-5,-2.56312 -0.84768,-4.54099 -2.54296,-5.93359 -1.67516,-1.41273 -4.03648,-2.11911 -7.08399,-2.11914 -1.93751,3e-5 -3.82456,0.23213 -5.66113,0.69629 -1.8366,0.46422 -3.60255,1.16051 -5.29785,2.08887 l 0,-5.14649 c 2.0384,-0.78707 4.01626,-1.37236 5.93359,-1.75586 1.9173,-0.40361 3.78416,-0.60543 5.60059,-0.60547 4.90427,4e-5 8.56735,1.27152 10.98925,3.81446 2.42185,2.54299 3.63278,6.39781 3.63282,11.56445 m 28.66894,-27.76074 0,4.63183 -5.32812,0 c -1.99807,5e-5 -3.39064,0.40369 -4.17774,1.21094 -0.76694,0.80733 -1.1504,2.26046 -1.15039,4.35938 l 0,2.99707 9.17285,0 0,4.3291 -9.17285,0 0,29.57715 -5.60058,0 0,-29.57715 -5.32813,0 0,-4.3291 5.32813,0 0,-2.36133 c -1e-5,-3.77405 0.87792,-6.51884 2.63379,-8.23438 1.75584,-1.73563 4.541,-2.60347 8.35546,-2.60351 l 5.26758,0 m 10.02051,42.01953 0,17.98242 -5.60059,0 0,-46.80273 5.60059,0 0,5.14648 c 1.17056,-2.0182 2.64387,-3.51169 4.41992,-4.48047 1.79621,-0.9889 3.93553,-1.48336 6.41797,-1.4834 4.11716,4e-5 7.45733,1.6348 10.02051,4.9043 2.5833,3.26956 3.87496,7.56838 3.875,12.89648 -4e-5,5.32814 -1.2917,9.62697 -3.875,12.89649 -2.56318,3.26953 -5.90335,4.9043 -10.02051,4.9043 -2.48244,0 -4.62176,-0.48438 -6.41797,-1.45313 -1.77605,-0.98893 -3.24936,-2.49251 -4.41992,-4.51074 m 18.95117,-11.83692 c -3e-5,-4.09698 -0.84768,-7.30596 -2.54297,-9.62695 -1.67515,-2.34112 -3.98602,-3.51169 -6.93261,-3.51172 -2.94664,3e-5 -5.2676,1.1706 -6.96289,3.51172 -1.67515,2.32099 -2.51271,5.52997 -2.5127,9.62695 -10e-6,4.09702 0.83755,7.31609 2.5127,9.65723 1.69529,2.32097 4.01625,3.48145 6.96289,3.48145 2.94659,0 5.25746,-1.16048 6.93261,-3.48145 1.69529,-2.34114 2.54294,-5.56021 2.54297,-9.65723 m 29.12305,20.07129 c -1.57424,4.03645 -3.10809,6.67024 -4.60156,7.90137 -1.49351,1.23111 -3.49155,1.84667 -5.99414,1.84668 l -4.4502,0 0,-4.66211 3.26953,0 c 1.53385,-1e-5 2.7246,-0.36329 3.57227,-1.08984 0.84764,-0.72657 1.78612,-2.44206 2.81543,-5.14649 l 0.99902,-2.54297 -13.71387,-33.36132 5.90332,0 10.59571,26.51953 10.5957,-26.51953 5.90332,0 -14.89453,37.05468"
         style="font-size:62px;font-style:normal;font-variant:normal;font-weight:normal;font-stretch:normal;text-align:start;line-height:125%;text-anchor:start;fill:#000000;fill-opacity:1;stroke:none;font-family:Bitstream Vera Sans"
         inkscape:connector-curvature="0" />
    </g>
    <text
       xml:space="preserve"
       style="font-size:84.55454254px;font-style:normal;font-variant:normal;font-weight:normal;font-stretch:normal;line-height:125%;letter-spacing:0px;word-spacing:0px;fill:#838383;fill-opacity:1;stroke:none;font-family:DejaVu Sans;-inkscape-font-specification:DejaVu Sans"
       x="819.41797"
       y="-194.59132"
       id="text3183"
       sodipodi:linespacing="125%"
       transform="scale(0.93875734,1.065238)"><tspan
         sodipodi:role="line"
         id="tspan3185"
         x="819.41797"
         y="-194.59132">zen</tspan></text>
    <text
       xml:space="preserve"
       style="font-size:14.10492897px;font-style:normal;font-variant:normal;font-weight:normal;font-stretch:normal;line-height:125%;letter-spacing:0px;word-spacing:0px;fill:#000000;fill-opacity:1;stroke:none;font-family:DejaVu Sans;-inkscape-font-specification:DejaVu Sans"
       x="222.88586"
       y="611.48138"
       id="text3226"
       sodipodi:linespacing="125%"
       transform="scale(0.99371632,1.0063234)"><tspan
         sodipodi:role="line"
         id="tspan3228"
         x="222.88586"
         y="611.48138">Pour en savoir plus :</tspan><tspan
         sodipodi:role="line"
         x="222.88586"
         y="629.11255"
         id="tspan3231">http://python.org</tspan><tspan
         sodipodi:role="line"
         x="222.88586"
         y="646.74365"
         id="tspan3233">http://afpy.org</tspan></text>
  </g>
</svg>
