<?xml version="1.0" encoding="UTF-8" standalone="no"?>
<!-- Created with Inkscape (http://www.inkscape.org/) -->
<svg
   xmlns:dc="http://purl.org/dc/elements/1.1/"
   xmlns:cc="http://creativecommons.org/ns#"
   xmlns:rdf="http://www.w3.org/1999/02/22-rdf-syntax-ns#"
   xmlns:svg="http://www.w3.org/2000/svg"
   xmlns="http://www.w3.org/2000/svg"
   xmlns:xlink="http://www.w3.org/1999/xlink"
   xmlns:sodipodi="http://sodipodi.sourceforge.net/DTD/sodipodi-0.dtd"
   xmlns:inkscape="http://www.inkscape.org/namespaces/inkscape"
   width="322.44095"
   height="216.14172"
   id="svg2422"
   sodipodi:version="0.32"
   inkscape:version="0.46"
   sodipodi:docname="carte_visite_template2.svg"
   inkscape:output_extension="org.inkscape.output.svg.inkscape"
   version="1.0"
   inkscape:export-filename="/home/dadafkas/projets/afpy/cartes de visite/cvisite2.png"
   inkscape:export-xdpi="150"
   inkscape:export-ydpi="150">
  <defs
     id="defs2424">
    <linearGradient
       id="linearGradient3238">
      <stop
         style="stop-color:#ffffff;stop-opacity:0;"
         offset="0"
         id="stop3240" />
      <stop
         style="stop-color:#ffffff;stop-opacity:1;"
         offset="1"
         id="stop3242" />
    </linearGradient>
    <inkscape:perspective
       sodipodi:type="inkscape:persp3d"
       inkscape:vp_x="0 : 108.07086 : 1"
       inkscape:vp_y="0 : 1000 : 0"
       inkscape:vp_z="322.44095 : 108.07086 : 1"
       inkscape:persp3d-origin="161.22047 : 72.047241 : 1"
       id="perspective83" />
    <linearGradient
       id="linearGradient4671-684">
      <stop
         id="stop3849"
         offset="0"
         style="stop-color: rgb(255, 212, 59); stop-opacity: 1;" />
      <stop
         id="stop3851"
         offset="1"
         style="stop-color: rgb(255, 232, 115); stop-opacity: 1;" />
    </linearGradient>
    <linearGradient
       id="linearGradient4689-47">
      <stop
         id="stop3843"
         offset="0"
         style="stop-color: rgb(90, 159, 212); stop-opacity: 1;" />
      <stop
         id="stop3845"
         offset="1"
         style="stop-color: rgb(48, 105, 152); stop-opacity: 1;" />
    </linearGradient>
    <linearGradient
       inkscape:collect="always"
       xlink:href="#linearGradient4689-47"
       id="linearGradient3449"
       gradientUnits="userSpaceOnUse"
       gradientTransform="matrix(0.562541,0,0,0.567972,-9.39975,-5.30532)"
       x1="26.648937"
       y1="20.603781"
       x2="135.66525"
       y2="114.39767" />
    <linearGradient
       inkscape:collect="always"
       xlink:href="#linearGradient4671-684"
       id="linearGradient3451"
       gradientUnits="userSpaceOnUse"
       gradientTransform="matrix(0.562541,0,0,0.567972,-9.39975,-5.30532)"
       x1="150.96111"
       y1="192.35176"
       x2="112.03144"
       y2="137.27299" />
    <linearGradient
       gradientUnits="userSpaceOnUse"
       y2="168.1012"
       x2="147.77737"
       y1="111.92053"
       x1="89.136749"
       id="linearGradient11307"
       xlink:href="#linearGradient11301"
       inkscape:collect="always" />
    <linearGradient
       gradientUnits="userSpaceOnUse"
       y2="131.85291"
       x2="110.14919"
       y1="77.070274"
       x1="55.549179"
       id="linearGradient9521"
       xlink:href="#linearGradient9515"
       inkscape:collect="always" />
    <linearGradient
       id="linearGradient9515"
       inkscape:collect="always">
      <stop
         id="stop9517"
         offset="0"
         style="stop-color:#387eb8;stop-opacity:1" />
      <stop
         id="stop9519"
         offset="1"
         style="stop-color:#366994;stop-opacity:1" />
    </linearGradient>
    <linearGradient
       id="linearGradient11301"
       inkscape:collect="always">
      <stop
         id="stop11303"
         offset="0"
         style="stop-color:#ffe052;stop-opacity:1" />
      <stop
         id="stop11305"
         offset="1"
         style="stop-color:#ffc331;stop-opacity:1" />
    </linearGradient>
    <radialGradient
       inkscape:collect="always"
       xlink:href="#linearGradient3238"
       id="radialGradient3254"
       cx="44.19416"
       cy="9.4496508"
       fx="44.19416"
       fy="9.4496508"
       r="160.36171"
       gradientTransform="matrix(1.4157621,0,0,0.7669356,-18.374255,34.895668)"
       gradientUnits="userSpaceOnUse" />
  </defs>
  <sodipodi:namedview
     id="base"
     pagecolor="#ffffff"
     bordercolor="#666666"
     borderopacity="1.0"
     inkscape:pageopacity="0.0"
     inkscape:pageshadow="2"
     inkscape:zoom="1.979899"
     inkscape:cx="93.177529"
     inkscape:cy="59.855939"
     inkscape:document-units="mm"
     inkscape:current-layer="layer1"
     showgrid="false"
     inkscape:window-width="1423"
     inkscape:window-height="954"
     inkscape:window-x="95"
     inkscape:window-y="181"
     units="mm"
     inkscape:snap-global="false" />
  <metadata
     id="metadata2427">
    <rdf:RDF>
      <cc:Work
         rdf:about="">
        <dc:format>image/svg+xml</dc:format>
        <dc:type
           rdf:resource="http://purl.org/dc/dcmitype/StillImage" />
      </cc:Work>
    </rdf:RDF>
  </metadata>
  <g
     inkscape:label="Calque 1"
     inkscape:groupmode="layer"
     id="layer1">
    <path
       style="opacity:0.35;fill:#ff6f32;fill-opacity:1;stroke:none;stroke-width:6.79567623;stroke-linecap:butt;stroke-linejoin:round;stroke-miterlimit:4;stroke-opacity:1"
       d="M 44.58773,43.82537 L 3.4944132,99.463755 L 3.6009636,214.22729 L 154.99367,213.84719 L 44.58773,43.82537 z"
       id="path2480"
       sodipodi:nodetypes="ccccc" />
    <path
       style="opacity:0.35;fill:#32ada9;fill-opacity:1;stroke:none;stroke-width:6.79567623;stroke-linecap:butt;stroke-linejoin:round;stroke-miterlimit:4;stroke-opacity:1"
       d="M 44.58773,43.82537 L 198.29912,1.0364731 L 45.277447,1.2276562 L 44.58773,43.82537 z"
       id="path2484"
       sodipodi:nodetypes="cccc" />
    <path
       style="opacity:0.35;fill:#ebff32;fill-opacity:0.70807453;stroke:none;stroke-width:6.79567623;stroke-linecap:butt;stroke-linejoin:round;stroke-miterlimit:4;stroke-dasharray:none;stroke-opacity:1"
       d="M 44.58773,43.82537 L 45.443867,1.1836742 L 3.5933618,1.3540029 L 3.3474192,30.298033 L 44.58773,43.82537 z"
       id="path2486"
       sodipodi:nodetypes="ccccc" />
    <path
       style="opacity:0.35;fill:#327bd6;fill-opacity:1;stroke:none;stroke-width:6.79567623;stroke-linecap:butt;stroke-linejoin:round;stroke-miterlimit:4;stroke-opacity:1"
       d="M 44.58773,43.82537 L 3.3682058,30.169958 L 3.5784454,99.415488 L 44.58773,43.82537 z"
       id="path2488"
       sodipodi:nodetypes="cccc" />
    <path
       style="font-size:12.73233509px;font-style:normal;font-variant:normal;font-weight:normal;font-stretch:normal;text-align:start;line-height:100%;writing-mode:lr-tb;text-anchor:start;fill:#000000;fill-opacity:1;stroke:none;stroke-width:1px;stroke-linecap:butt;stroke-linejoin:miter;stroke-opacity:1;font-family:Bitstream Vera Sans;-inkscape-font-specification:Bitstream Vera Sans"
       d="M 18.649726,78.927072 L 17.220031,82.803963 L 20.084651,82.803963 L 18.649726,78.927072 M 18.05489,77.888708 L 19.249783,77.888708 L 22.21877,85.679024 L 21.123007,85.679024 L 20.413379,83.680569 L 16.901735,83.680569 L 16.192108,85.679024 L 15.080691,85.679024 L 18.05489,77.888708 M 27.034878,80.007175 L 27.034878,80.915087 C 26.763541,80.775948 26.48178,80.671589 26.189578,80.602011 C 25.897376,80.53245 25.594733,80.497661 25.281666,80.497653 C 24.805096,80.497661 24.446807,80.570714 24.206784,80.71681 C 23.970236,80.862916 23.851962,81.082065 23.851962,81.374259 C 23.851962,81.5969 23.937193,81.772565 24.107646,81.901271 C 24.278091,82.026503 24.620735,82.146515 25.13557,82.261305 L 25.46429,82.33435 C 26.146094,82.480455 26.629614,82.687434 26.914867,82.95528 C 27.203586,83.219659 27.347945,83.590126 27.347954,84.066697 C 27.347945,84.609354 27.132271,85.038957 26.70093,85.355508 C 26.273063,85.672066 25.683439,85.830341 24.932065,85.830341 C 24.618989,85.830341 24.292007,85.799035 23.951109,85.736415 C 23.613677,85.677278 23.257126,85.586835 22.881439,85.465086 L 22.881439,84.47369 C 23.236253,84.658058 23.585854,84.797197 23.930235,84.891123 C 24.274617,84.981566 24.615515,85.026788 24.952938,85.026788 C 25.405152,85.026788 25.753017,84.95026 25.996514,84.797197 C 26.240012,84.64066 26.361769,84.42151 26.361769,84.139741 C 26.361769,83.878853 26.273063,83.678831 26.095661,83.539684 C 25.921724,83.400545 25.537342,83.266618 24.942506,83.137911 L 24.608557,83.059638 C 24.01372,82.934415 23.584117,82.743088 23.319738,82.485675 C 23.055367,82.224779 22.923177,81.868228 22.923186,81.416005 C 22.923177,80.86639 23.117979,80.442007 23.507581,80.142839 C 23.897184,79.843688 24.450282,79.694108 25.166875,79.694099 C 25.521689,79.694108 25.855629,79.720193 26.168705,79.772372 C 26.48178,79.824552 26.770499,79.902825 27.034878,80.007175 M 32.607581,80.007175 L 32.607581,80.915087 C 32.336252,80.775948 32.054483,80.671589 31.762289,80.602011 C 31.470079,80.53245 31.167444,80.497661 30.854369,80.497653 C 30.377807,80.497661 30.01951,80.570714 29.779487,80.71681 C 29.542939,80.862916 29.424673,81.082065 29.424673,81.374259 C 29.424673,81.5969 29.509896,81.772565 29.680349,81.901271 C 29.850794,82.026503 30.193438,82.146515 30.708272,82.261305 L 31.037001,82.33435 C 31.718797,82.480455 32.202325,82.687434 32.48757,82.95528 C 32.776288,83.219659 32.920648,83.590126 32.920656,84.066697 C 32.920648,84.609354 32.704982,85.038957 32.273641,85.355508 C 31.845766,85.672066 31.25615,85.830341 30.504776,85.830341 C 30.1917,85.830341 29.86471,85.799035 29.523811,85.736415 C 29.186388,85.677278 28.829829,85.586835 28.454141,85.465086 L 28.454141,84.47369 C 28.808955,84.658058 29.158557,84.797197 29.502938,84.891123 C 29.847319,84.981566 30.188217,85.026788 30.525649,85.026788 C 30.977864,85.026788 31.325719,84.95026 31.569225,84.797197 C 31.812723,84.64066 31.934471,84.42151 31.93448,84.139741 C 31.934471,83.878853 31.845766,83.678831 31.668363,83.539684 C 31.494427,83.400545 31.110045,83.266618 30.515208,83.137911 L 30.181268,83.059638 C 29.586423,82.934415 29.156819,82.743088 28.892449,82.485675 C 28.628069,82.224779 28.495888,81.868228 28.495888,81.416005 C 28.495888,80.86639 28.69069,80.442007 29.080292,80.142839 C 29.469895,79.843688 30.022985,79.694108 30.739578,79.694099 C 31.094392,79.694108 31.428341,79.720193 31.741416,79.772372 C 32.054483,79.824552 32.34321,79.902825 32.607581,80.007175 M 36.719282,80.508094 C 36.204448,80.508094 35.797455,80.709853 35.498295,81.113371 C 35.199135,81.513406 35.049555,82.063029 35.049555,82.762224 C 35.049555,83.461419 35.197398,84.01278 35.493074,84.41629 C 35.792234,84.816333 36.200964,85.016347 36.719282,85.016347 C 37.230633,85.016347 37.635889,84.814588 37.935049,84.411078 C 38.2342,84.00756 38.38378,83.457945 38.383788,82.762224 C 38.38378,82.069987 38.2342,81.52211 37.935049,81.118583 C 37.635889,80.711598 37.230633,80.508094 36.719282,80.508094 M 36.719282,79.694099 C 37.554141,79.694108 38.209852,79.965436 38.686423,80.508094 C 39.162985,81.050759 39.401271,81.802133 39.401279,82.762224 C 39.401271,83.718832 39.162985,84.470215 38.686423,85.016347 C 38.209852,85.559012 37.554141,85.830341 36.719282,85.830341 C 35.88094,85.830341 35.223483,85.559012 34.746921,85.016347 C 34.273833,84.470215 34.037285,83.718832 34.037285,82.762224 C 34.037285,81.802133 34.273833,81.050759 34.746921,80.508094 C 35.223483,79.965436 35.88094,79.694108 36.719282,79.694099 M 45.193131,80.059354 L 45.193131,80.956833 C 44.921803,80.807253 44.648728,80.695946 44.373925,80.622885 C 44.102588,80.546366 43.827785,80.508094 43.549498,80.508094 C 42.926831,80.508094 42.443302,80.706378 42.098929,81.10293 C 41.754539,81.496016 41.582349,82.049114 41.582357,82.762224 C 41.582349,83.475335 41.754539,84.03017 42.098929,84.426731 C 42.443302,84.819808 42.926831,85.016347 43.549498,85.016347 C 43.827785,85.016347 44.102588,84.97982 44.373925,84.906776 C 44.648728,84.830249 44.921803,84.717187 45.193131,84.567607 L 45.193131,85.454654 C 44.925277,85.579877 44.646991,85.673803 44.358272,85.736415 C 44.073019,85.799035 43.768648,85.830341 43.44514,85.830341 C 42.565051,85.830341 41.865856,85.553792 41.347547,85.000694 C 40.829237,84.447604 40.570087,83.701442 40.570087,82.762224 C 40.570087,81.809091 40.830975,81.059454 41.352767,80.513314 C 41.878034,79.967174 42.596365,79.694108 43.507751,79.694099 C 43.803428,79.694108 44.092155,79.725414 44.373925,79.788025 C 44.655686,79.847162 44.928752,79.937605 45.193131,80.059354 M 46.87329,79.834984 L 47.833381,79.834984 L 47.833381,85.679024 L 46.87329,85.679024 L 46.87329,79.834984 M 46.87329,77.559988 L 47.833381,77.559988 L 47.833381,78.775755 L 46.87329,78.775755 L 46.87329,77.559988 M 52.49296,82.741351 C 51.71723,82.741351 51.179793,82.830057 50.880633,83.007459 C 50.581473,83.18487 50.431893,83.487513 50.431893,83.915371 C 50.431893,84.256277 50.54321,84.527606 50.765842,84.729365 C 50.991949,84.92765 51.298058,85.026788 51.684186,85.026788 C 52.216411,85.026788 52.64254,84.838944 52.962573,84.463249 C 53.286073,84.084087 53.447831,83.581431 53.447831,82.95528 L 53.447831,82.741351 L 52.49296,82.741351 M 54.407922,82.344791 L 54.407922,85.679024 L 53.447831,85.679024 L 53.447831,84.791977 C 53.228681,85.146799 52.955607,85.409432 52.628625,85.579877 C 52.301634,85.746856 51.901598,85.830341 51.428511,85.830341 C 50.830191,85.830341 50.35362,85.663371 49.998807,85.329422 C 49.647468,84.991999 49.471802,84.541522 49.471802,83.977991 C 49.471802,83.320535 49.690952,82.824836 50.129259,82.490887 C 50.571032,82.156947 51.228489,81.989977 52.10162,81.989977 L 53.447831,81.989977 L 53.447831,81.896051 C 53.447831,81.454277 53.301726,81.113371 53.009532,80.873348 C 52.720805,80.629851 52.313812,80.508094 51.788545,80.508094 C 51.454596,80.508094 51.129351,80.548103 50.812801,80.628105 C 50.496242,80.708115 50.191871,80.828127 49.899669,80.988139 L 49.899669,80.101101 C 50.251008,79.965436 50.591906,79.864561 50.92238,79.798458 C 51.252837,79.728897 51.574608,79.694108 51.887683,79.694099 C 52.732983,79.694108 53.364346,79.913257 53.78178,80.351556 C 54.199205,80.789863 54.407922,81.454277 54.407922,82.344791 M 57.340383,78.175698 L 57.340383,79.834984 L 59.317956,79.834984 L 59.317956,80.581146 L 57.340383,80.581146 L 57.340383,83.753621 C 57.340374,84.230192 57.404732,84.536301 57.533438,84.671966 C 57.665628,84.807638 57.931736,84.87547 58.331779,84.875462 L 59.317956,84.875462 L 59.317956,85.679024 L 58.331779,85.679024 C 57.590838,85.679024 57.079486,85.541614 56.797717,85.26681 C 56.515956,84.988524 56.375071,84.484122 56.375071,83.753621 L 56.375071,80.581146 L 55.670656,80.581146 L 55.670656,79.834984 L 56.375071,79.834984 L 56.375071,78.175698 L 57.340383,78.175698 M 60.58591,79.834984 L 61.546001,79.834984 L 61.546001,85.679024 L 60.58591,85.679024 L 60.58591,79.834984 M 60.58591,77.559988 L 61.546001,77.559988 L 61.546001,78.775755 L 60.58591,78.775755 L 60.58591,77.559988 M 65.814232,80.508094 C 65.299397,80.508094 64.892404,80.709853 64.593244,81.113371 C 64.294085,81.513406 64.144505,82.063029 64.144505,82.762224 C 64.144505,83.461419 64.292347,84.01278 64.588032,84.41629 C 64.887184,84.816333 65.295922,85.016347 65.814232,85.016347 C 66.325583,85.016347 66.730839,84.814588 67.029998,84.411078 C 67.329158,84.00756 67.478738,83.457945 67.478738,82.762224 C 67.478738,82.069987 67.329158,81.52211 67.029998,81.118583 C 66.730839,80.711598 66.325583,80.508094 65.814232,80.508094 M 65.814232,79.694099 C 66.649091,79.694108 67.304802,79.965436 67.781381,80.508094 C 68.257935,81.050759 68.49622,81.802133 68.496229,82.762224 C 68.49622,83.718832 68.257935,84.470215 67.781381,85.016347 C 67.304802,85.559012 66.649091,85.830341 65.814232,85.830341 C 64.975889,85.830341 64.318433,85.559012 63.84187,85.016347 C 63.368783,84.470215 63.132235,83.718832 63.132235,82.762224 C 63.132235,81.802133 63.368783,81.050759 63.84187,80.508094 C 64.318433,79.965436 64.975889,79.694108 65.814232,79.694099 M 74.940317,82.151727 L 74.940317,85.679024 L 73.980226,85.679024 L 73.980226,82.183032 C 73.980226,81.629943 73.872384,81.215992 73.656718,80.94118 C 73.441043,80.666377 73.117535,80.528967 72.686194,80.528967 C 72.167877,80.528967 71.759147,80.6942 71.459987,81.024665 C 71.160827,81.355131 71.011247,81.805608 71.011247,82.376096 L 71.011247,85.679024 L 70.045944,85.679024 L 70.045944,79.834984 L 71.011247,79.834984 L 71.011247,80.742896 C 71.240837,80.391565 71.510429,80.128932 71.820021,79.954995 C 72.133096,79.781076 72.49313,79.694108 72.900123,79.694099 C 73.571487,79.694108 74.079364,79.902825 74.423753,80.32025 C 74.768126,80.734209 74.940317,81.344699 74.940317,82.151727"
       id="text2918" />
    <path
       style="font-size:12.81396866px;font-style:normal;font-variant:normal;font-weight:normal;font-stretch:normal;text-align:start;line-height:100%;writing-mode:lr-tb;text-anchor:start;fill:#000000;fill-opacity:1;stroke:none;stroke-width:1px;stroke-linecap:butt;stroke-linejoin:miter;stroke-opacity:1;font-family:Bitstream Vera Sans;-inkscape-font-specification:Bitstream Vera Sans"
       d="M 80.70793,77.838762 L 85.213581,77.838762 L 85.213581,78.73149 L 81.768703,78.73149 L 81.768703,81.042081 L 84.877501,81.042081 L 84.877501,81.93481 L 81.768703,81.93481 L 81.768703,85.679024 L 80.70793,85.679024 L 80.70793,77.838762 M 89.493427,80.700746 C 89.384898,80.637732 89.265868,80.592225 89.136339,80.564209 C 89.010302,80.53271 88.870265,80.516957 88.716228,80.516948 C 88.170088,80.516957 87.749985,80.695501 87.455911,81.052589 C 87.165329,81.406186 87.020047,81.915565 87.020047,82.580726 L 87.020047,85.679024 L 86.048549,85.679024 L 86.048549,79.797518 L 87.020047,79.797518 L 87.020047,80.711246 C 87.223098,80.354166 87.48741,80.089846 87.813,79.918293 C 88.138581,79.743257 88.534184,79.655735 88.999802,79.655727 C 89.066317,79.655735 89.139839,79.660989 89.220362,79.67148 C 89.300875,79.678488 89.390152,79.690742 89.488182,79.708242 L 89.493427,80.700746 M 93.190372,82.722517 C 92.409673,82.722517 91.868787,82.811793 91.567713,82.990329 C 91.266631,83.168882 91.116095,83.473455 91.116095,83.904066 C 91.116095,84.247154 91.228124,84.520229 91.452184,84.72328 C 91.679734,84.922832 91.987816,85.0226 92.37642,85.0226 C 92.912052,85.0226 93.340909,84.833556 93.662998,84.45546 C 93.988579,84.073864 94.15137,83.567985 94.15137,82.937823 L 94.15137,82.722517 L 93.190372,82.722517 M 95.117621,82.323414 L 95.117621,85.679024 L 94.15137,85.679024 L 94.15137,84.786295 C 93.93081,85.143383 93.65599,85.407704 93.326909,85.579248 C 92.99782,85.747292 92.595217,85.831306 92.119099,85.831306 C 91.516944,85.831306 91.037327,85.66327 90.68023,85.327181 C 90.326642,84.987592 90.149843,84.534228 90.149852,83.96708 C 90.149843,83.305419 90.370403,82.806539 90.811513,82.47045 C 91.256132,82.13437 91.917802,81.966325 92.796523,81.966317 L 94.15137,81.966317 L 94.15137,81.871795 C 94.15137,81.427185 94.004333,81.084096 93.710259,80.842529 C 93.419677,80.597479 93.010074,80.474941 92.481441,80.474941 C 92.145352,80.474941 91.818026,80.515202 91.499445,80.595716 C 91.180863,80.676247 90.874528,80.797022 90.580454,80.958059 L 90.580454,80.065338 C 90.934051,79.928801 91.277131,79.827279 91.60972,79.760757 C 91.942301,79.690742 92.266136,79.655735 92.581217,79.655727 C 93.431931,79.655735 94.067347,79.876294 94.487459,80.317396 C 94.907561,80.758515 95.117613,81.427185 95.117621,82.323414 M 102.00213,82.129116 L 102.00213,85.679024 L 101.03589,85.679024 L 101.03589,82.160623 C 101.03588,81.603983 100.92735,81.187372 100.7103,80.910798 C 100.49324,80.634232 100.16766,80.495949 99.733548,80.495941 C 99.211915,80.495949 98.800558,80.662239 98.499484,80.99482 C 98.198403,81.327409 98.047866,81.780773 98.047866,82.354921 L 98.047866,85.679024 L 97.076369,85.679024 L 97.076369,79.797518 L 98.047866,79.797518 L 98.047866,80.711246 C 98.278925,80.357666 98.550245,80.093346 98.861827,79.918293 C 99.176908,79.743257 99.53925,79.655735 99.948853,79.655727 C 100.62452,79.655735 101.13565,79.865786 101.48225,80.285889 C 101.82883,80.7025 102.00212,81.316909 102.00213,82.129116 M 108.17246,80.023323 L 108.17246,80.926551 C 107.89939,80.776023 107.62457,80.663993 107.34801,80.590471 C 107.07493,80.513457 106.79836,80.474941 106.5183,80.474941 C 105.89163,80.474941 105.40501,80.674493 105.05842,81.073588 C 104.71183,81.4692 104.53854,82.02584 104.53854,82.743516 C 104.53854,83.461209 104.71183,84.019595 105.05842,84.418699 C 105.40501,84.814302 105.89163,85.0121 106.5183,85.0121 C 106.79836,85.0121 107.07493,84.975339 107.34801,84.901824 C 107.62457,84.824802 107.89939,84.711027 108.17246,84.560481 L 108.17246,85.45321 C 107.90289,85.579248 107.62282,85.67377 107.33225,85.736784 C 107.04518,85.799799 106.73885,85.831306 106.41327,85.831306 C 105.52754,85.831306 104.82386,85.552986 104.30223,84.996346 C 103.78059,84.439706 103.51978,83.68876 103.51978,82.743516 C 103.51978,81.784281 103.78234,81.029835 104.30748,80.480187 C 104.83611,79.930555 105.55905,79.655735 106.47628,79.655727 C 106.77386,79.655735 107.06443,79.687242 107.34801,79.750257 C 107.63158,79.809772 107.9064,79.900802 108.17246,80.023323 M 112.14248,80.474941 C 111.62435,80.474941 111.21475,80.677993 110.91367,81.084096 C 110.61259,81.4867 110.46206,82.03984 110.46206,82.743516 C 110.46206,83.447202 110.61084,84.002096 110.90842,84.408199 C 111.20949,84.810802 111.62085,85.0121 112.14248,85.0121 C 112.65711,85.0121 113.06497,84.809048 113.36605,84.402945 C 113.66712,83.996842 113.81766,83.443702 113.81767,82.743516 C 113.81766,82.046848 113.66712,81.495453 113.36605,81.08935 C 113.06497,80.679747 112.65711,80.474941 112.14248,80.474941 M 112.14248,79.655727 C 112.9827,79.655735 113.64261,79.928801 114.12224,80.474941 C 114.60186,81.021082 114.84167,81.777273 114.84168,82.743516 C 114.84167,83.706268 114.60186,84.46246 114.12224,85.0121 C 113.64261,85.55824 112.9827,85.831306 112.14248,85.831306 C 111.29876,85.831306 110.6371,85.55824 110.15747,85.0121 C 109.68136,84.46246 109.44329,83.706268 109.44329,82.743516 C 109.44329,81.777273 109.68136,81.021082 110.15747,80.474941 C 110.6371,79.928801 111.29876,79.655735 112.14248,79.655727 M 117.37283,84.796794 L 117.37283,87.916092 L 116.40132,87.916092 L 116.40132,79.797518 L 117.37283,79.797518 L 117.37283,80.690247 C 117.57587,80.340158 117.83144,80.081092 118.13952,79.913047 C 118.4511,79.741503 118.82219,79.655735 119.25281,79.655727 C 119.96698,79.655735 120.54638,79.939309 120.991,80.506449 C 121.43911,81.073597 121.66316,81.819289 121.66317,82.743516 C 121.66316,83.667761 121.43911,84.413445 120.991,84.980593 C 120.54638,85.547741 119.96698,85.831306 119.25281,85.831306 C 118.82219,85.831306 118.4511,85.747292 118.13952,85.579248 C 117.83144,85.407704 117.57587,85.146883 117.37283,84.796794 M 120.66017,82.743516 C 120.66016,82.03284 120.51312,81.4762 120.21905,81.073588 C 119.92848,80.667493 119.52762,80.464442 119.01649,80.464433 C 118.50536,80.464442 118.10276,80.667493 117.80868,81.073588 C 117.51811,81.4762 117.37282,82.03284 117.37283,82.743516 C 117.37282,83.454201 117.51811,84.012595 117.80868,84.418699 C 118.10276,84.821302 118.50536,85.0226 119.01649,85.0226 C 119.52762,85.0226 119.92848,84.821302 120.21905,84.418699 C 120.51312,84.012595 120.66016,83.454201 120.66017,82.743516 M 128.15383,82.129116 L 128.15383,85.679024 L 127.18758,85.679024 L 127.18758,82.160623 C 127.18758,81.603983 127.07905,81.187372 126.862,80.910798 C 126.64494,80.634232 126.31936,80.495949 125.88525,80.495941 C 125.36362,80.495949 124.95226,80.662239 124.65119,80.99482 C 124.35011,81.327409 124.19957,81.780773 124.19957,82.354921 L 124.19957,85.679024 L 123.22807,85.679024 L 123.22807,77.507927 L 124.19957,77.507927 L 124.19957,80.711246 C 124.43063,80.357666 124.70195,80.093346 125.01353,79.918293 C 125.3286,79.743257 125.69094,79.655735 126.10056,79.655727 C 126.77623,79.655735 127.28736,79.865786 127.63395,80.285889 C 127.98054,80.7025 128.15383,81.316909 128.15383,82.129116 M 132.37067,80.474941 C 131.85252,80.474941 131.44292,80.677993 131.14185,81.084096 C 130.84077,81.4867 130.69023,82.03984 130.69023,82.743516 C 130.69023,83.447202 130.83902,84.002096 131.13659,84.408199 C 131.43767,84.810802 131.84902,85.0121 132.37067,85.0121 C 132.88529,85.0121 133.29315,84.809048 133.59423,84.402945 C 133.89529,83.996842 134.04584,83.443702 134.04584,82.743516 C 134.04584,82.046848 133.89529,81.495453 133.59423,81.08935 C 133.29315,80.679747 132.88529,80.474941 132.37067,80.474941 M 132.37067,79.655727 C 133.21087,79.655735 133.8708,79.928801 134.35042,80.474941 C 134.83004,81.021082 135.06984,81.777273 135.06985,82.743516 C 135.06984,83.706268 134.83004,84.46246 134.35042,85.0121 C 133.8708,85.55824 133.21087,85.831306 132.37067,85.831306 C 131.52694,85.831306 130.86527,85.55824 130.38566,85.0121 C 129.90953,84.46246 129.67147,83.706268 129.67147,82.743516 C 129.67147,81.777273 129.90953,81.021082 130.38566,80.474941 C 130.86527,79.928801 131.52694,79.655735 132.37067,79.655727 M 141.55526,82.129116 L 141.55526,85.679024 L 140.58902,85.679024 L 140.58902,82.160623 C 140.58901,81.603983 140.48048,81.187372 140.26343,80.910798 C 140.04637,80.634232 139.72079,80.495949 139.28667,80.495941 C 138.76504,80.495949 138.35368,80.662239 138.05261,80.99482 C 137.75153,81.327409 137.60099,81.780773 137.60099,82.354921 L 137.60099,85.679024 L 136.6295,85.679024 L 136.6295,79.797518 L 137.60099,79.797518 L 137.60099,80.711246 C 137.83205,80.357666 138.10337,80.093346 138.41495,79.918293 C 138.73003,79.743257 139.09238,79.655735 139.50198,79.655727 C 140.17765,79.655735 140.68878,79.865786 141.03538,80.285889 C 141.38196,80.7025 141.55525,81.316909 141.55526,82.129116 M 148.5238,82.496704 L 148.5238,82.96933 L 144.08116,82.96933 C 144.12317,83.6345 144.32272,84.142133 144.67981,84.492213 C 145.04041,84.83881 145.54103,85.0121 146.1817,85.0121 C 146.55279,85.0121 146.91163,84.966593 147.25822,84.875563 C 147.60831,84.784541 147.9549,84.648012 148.29799,84.46596 L 148.29799,85.379696 C 147.9514,85.526733 147.59605,85.638763 147.23197,85.715777 C 146.86787,85.792799 146.49853,85.831306 146.12393,85.831306 C 145.18569,85.831306 144.44175,85.55824 143.89211,85.0121 C 143.34597,84.46596 143.0729,83.727276 143.0729,82.796031 C 143.0729,81.833288 143.33197,81.070097 143.8501,80.506449 C 144.37174,79.939309 145.07366,79.655735 145.95589,79.655727 C 146.74709,79.655735 147.372,79.911302 147.83062,80.422426 C 148.29273,80.93006 148.52379,81.621483 148.5238,82.496704 M 147.55755,82.21313 C 147.55054,81.684506 147.40176,81.262649 147.11118,80.947559 C 146.82411,80.632486 146.44251,80.474941 145.9664,80.474941 C 145.42726,80.474941 144.99489,80.627232 144.66931,80.931805 C 144.34723,81.236387 144.16168,81.665244 144.11267,82.218384 L 147.55755,82.21313"
       id="text2922" />
    <path
       style="font-size:12.81396866px;font-style:normal;font-variant:normal;font-weight:normal;font-stretch:normal;text-align:start;line-height:100%;writing-mode:lr-tb;text-anchor:start;fill:#000000;fill-opacity:1;stroke:none;stroke-width:1px;stroke-linecap:butt;stroke-linejoin:miter;stroke-opacity:1;font-family:Bitstream Vera Sans;-inkscape-font-specification:Bitstream Vera Sans"
       d="M 155.35215,78.710491 L 155.35215,81.65649 L 156.68599,81.65649 C 157.17961,81.656498 157.56121,81.528715 157.83078,81.27314 C 158.10034,81.017582 158.23513,80.653494 158.23514,80.180868 C 158.23513,79.71175 158.10034,79.349408 157.83078,79.093833 C 157.56121,78.838274 157.17961,78.710491 156.68599,78.710491 L 155.35215,78.710491 M 154.29138,77.838762 L 156.68599,77.838762 C 157.56471,77.83877 158.22813,78.038322 158.67625,78.437417 C 159.12786,78.833029 159.35367,79.414176 159.35367,80.180868 C 159.35367,80.954567 159.12786,81.539215 158.67625,81.93481 C 158.22813,82.330413 157.56471,82.528219 156.68599,82.528211 L 155.35215,82.528211 L 155.35215,85.679024 L 154.29138,85.679024 L 154.29138,77.838762 M 163.18715,86.225164 C 162.91408,86.925341 162.64801,87.382205 162.38895,87.595765 C 162.12988,87.809316 161.78329,87.916092 161.34918,87.916092 L 160.57723,87.916092 L 160.57723,87.107385 L 161.14438,87.107385 C 161.41045,87.107385 161.617,87.04437 161.76404,86.918341 C 161.91107,86.792304 162.07386,86.49473 162.25242,86.025612 L 162.42571,85.584493 L 160.04685,79.797518 L 161.07086,79.797518 L 162.90883,84.397691 L 164.7468,79.797518 L 165.77082,79.797518 L 163.18715,86.225164 M 168.0604,78.12759 L 168.0604,79.797518 L 170.05066,79.797518 L 170.05066,80.548455 L 168.0604,80.548455 L 168.0604,83.741275 C 168.0604,84.220901 168.12517,84.528974 168.2547,84.665511 C 168.38773,84.802049 168.65555,84.870317 169.05816,84.870317 L 170.05066,84.870317 L 170.05066,85.679024 L 169.05816,85.679024 C 168.31247,85.679024 167.79783,85.540732 167.51426,85.264167 C 167.23069,84.984092 167.0889,84.476468 167.0889,83.741275 L 167.0889,80.548455 L 166.37997,80.548455 L 166.37997,79.797518 L 167.0889,79.797518 L 167.0889,78.12759 L 168.0604,78.12759 M 176.21573,82.129116 L 176.21573,85.679024 L 175.24949,85.679024 L 175.24949,82.160623 C 175.24948,81.603983 175.14096,81.187372 174.92391,80.910798 C 174.70685,80.634232 174.38126,80.495949 173.94716,80.495941 C 173.42552,80.495949 173.01417,80.662239 172.7131,80.99482 C 172.41201,81.327409 172.26148,81.780773 172.26148,82.354921 L 172.26148,85.679024 L 171.28998,85.679024 L 171.28998,77.507927 L 172.26148,77.507927 L 172.26148,80.711246 C 172.49254,80.357666 172.76385,80.093346 173.07544,79.918293 C 173.39051,79.743257 173.75285,79.655735 174.16246,79.655727 C 174.83813,79.655735 175.34926,79.865786 175.69586,80.285889 C 176.04244,80.7025 176.21573,81.316909 176.21573,82.129116 M 180.43257,80.474941 C 179.91443,80.474941 179.50483,80.677993 179.20376,81.084096 C 178.90268,81.4867 178.75214,82.03984 178.75214,82.743516 C 178.75214,83.447202 178.90092,84.002096 179.1985,84.408199 C 179.49958,84.810802 179.91093,85.0121 180.43257,85.0121 C 180.9472,85.0121 181.35505,84.809048 181.65613,84.402945 C 181.9572,83.996842 182.10774,83.443702 182.10775,82.743516 C 182.10774,82.046848 181.9572,81.495453 181.65613,81.08935 C 181.35505,80.679747 180.9472,80.474941 180.43257,80.474941 M 180.43257,79.655727 C 181.27278,79.655735 181.9327,79.928801 182.41232,80.474941 C 182.89194,81.021082 183.13175,81.777273 183.13176,82.743516 C 183.13175,83.706268 182.89194,84.46246 182.41232,85.0121 C 181.9327,85.55824 181.27278,85.831306 180.43257,85.831306 C 179.58885,85.831306 178.92718,85.55824 178.44756,85.0121 C 177.97144,84.46246 177.73338,83.706268 177.73338,82.743516 C 177.73338,81.777273 177.97144,81.021082 178.44756,80.474941 C 178.92718,79.928801 179.58885,79.655735 180.43257,79.655727 M 189.61717,82.129116 L 189.61717,85.679024 L 188.65092,85.679024 L 188.65092,82.160623 C 188.65092,81.603983 188.54239,81.187372 188.32533,80.910798 C 188.10828,80.634232 187.78269,80.495949 187.34858,80.495941 C 186.82695,80.495949 186.41559,80.662239 186.11452,80.99482 C 185.81344,81.327409 185.6629,81.780773 185.6629,82.354921 L 185.6629,85.679024 L 184.6914,85.679024 L 184.6914,79.797518 L 185.6629,79.797518 L 185.6629,80.711246 C 185.89396,80.357666 186.16528,80.093346 186.47686,79.918293 C 186.79194,79.743257 187.15429,79.655735 187.56389,79.655727 C 188.23956,79.655735 188.75069,79.865786 189.09728,80.285889 C 189.44387,80.7025 189.61716,81.316909 189.61717,82.129116"
       id="text2926" />
    <g
       inkscape:label="Calque 1"
       id="g2894"
       transform="matrix(0.5661867,0,0,0.5661867,-166.01344,-169.88973)"
       inkscape:export-filename="/home/dadafkas/projets/afpy/graphisme/logo_afpy_v3.png"
       inkscape:export-xdpi="432.78586"
       inkscape:export-ydpi="432.78586">
      <path
         sodipodi:type="arc"
         style="fill:#ffffff;fill-opacity:1;stroke:none;stroke-width:7.5;stroke-linecap:butt;stroke-linejoin:round;stroke-miterlimit:4;stroke-dasharray:none;stroke-opacity:1"
         id="path2896"
         sodipodi:cx="484.45236"
         sodipodi:cy="538.11047"
         sodipodi:rx="31.927879"
         sodipodi:ry="31.927879"
         d="M 465.43372,563.75576 A 31.927879,31.927879 0 1 1 465.43721,563.75835"
         sodipodi:start="2.2089023"
         sodipodi:end="8.4919515"
         sodipodi:open="true"
         transform="matrix(1.5467086,0,0,1.5467086,-377.48997,-454.38896)" />
      <path
         style="fill:#ff6f32;fill-opacity:1;stroke:none;stroke-width:6.79567623;stroke-linecap:butt;stroke-linejoin:round;stroke-miterlimit:4;stroke-opacity:1"
         d="M 371.96419,377.46401 L 338.11538,420.32924 C 356.95696,435.25894 382.47099,436.19353 402.34388,422.66685 L 371.96419,377.46401 z"
         id="path2898"
         sodipodi:nodetypes="cccc" />
      <path
         style="fill:#84326b;fill-opacity:1;stroke:none;stroke-width:6.79567623;stroke-linecap:butt;stroke-linejoin:round;stroke-miterlimit:4;stroke-opacity:1"
         d="M 371.96419,377.46401 L 401.63888,423.14921 C 421.97163,409.77844 430.804,385.40307 423.75338,362.11173 L 371.96419,377.46401 z"
         id="path2900"
         sodipodi:nodetypes="cccc" />
      <path
         style="fill:#32ada9;fill-opacity:1;stroke:none;stroke-width:6.79567623;stroke-linecap:butt;stroke-linejoin:round;stroke-miterlimit:4;stroke-opacity:1"
         d="M 371.96419,377.46401 L 424.05021,363.07646 C 417.4039,339.53324 396.60349,323.70552 372.14053,323.55979 L 371.96419,377.46401 z"
         id="path2902"
         sodipodi:nodetypes="cccc" />
      <path
         style="fill:#ebff32;fill-opacity:1;stroke:none;stroke-width:6.79567623;stroke-linecap:butt;stroke-linejoin:round;stroke-miterlimit:4;stroke-dasharray:none;stroke-opacity:1"
         d="M 371.96419,377.46401 L 373.4763,323.5969 C 349.05547,322.85854 327.71557,337.86461 320.19374,361.1099 L 371.96419,377.46401 z"
         id="path2904"
         sodipodi:nodetypes="cccc" />
      <path
         style="fill:#327bd6;fill-opacity:1;stroke:none;stroke-width:6.79567623;stroke-linecap:butt;stroke-linejoin:round;stroke-miterlimit:4;stroke-opacity:1"
         d="M 371.96419,377.46401 L 320.45347,360.40491 C 312.79361,383.01995 320.34671,407.1823 339.52537,421.40528 L 371.96419,377.46401 z"
         id="path2906"
         sodipodi:nodetypes="cccc" />
      <path
         style="fill:#ffffff;fill-opacity:1"
         d="M 366.89769,331.21685 C 358.95058,331.25855 347.92977,333.50909 346.67894,342.96685 C 346.03621,346.08463 346.83826,349.92642 346.21019,352.6231 C 336.75356,351.6096 326.20576,357.41178 324.92894,367.40435 C 322.30195,378.61864 322.93523,393.14594 332.89769,400.4981 C 336.79713,403.15896 342.56499,402.04832 346.17894,402.9356 C 345.1705,410.9603 348.66407,420.09168 357.24144,422.1231 C 369.36912,426.73056 385.18333,426.07901 394.64769,416.40435 C 397.93342,412.60098 396.67427,406.34868 397.58519,402.6231 C 405.187,403.58831 414.59037,401.10012 416.83519,392.90435 C 422.07054,381.06736 421.33528,365.16673 412.11644,355.52935 C 408.02035,352.01873 401.40392,353.26897 397.30394,352.40435 C 398.38106,344.31383 394.86464,334.8998 386.27269,332.7481 C 380.09626,330.72753 373.32513,330.95009 366.89769,331.21685 z"
         id="path2908" />
      <g
         transform="matrix(0.7960788,0,0,0.7636835,323.11888,330.11106)"
         id="g2910">
        <path
           d="M 60.510156,6.3979729 C 55.926503,6.4192712 51.549217,6.8101906 47.697656,7.4917229 C 36.35144,9.4962267 34.291407,13.691825 34.291406,21.429223 L 34.291406,31.647973 L 61.103906,31.647973 L 61.103906,35.054223 L 34.291406,35.054223 L 24.228906,35.054223 C 16.436447,35.054223 9.6131468,39.73794 7.4789058,48.647973 C 5.0170858,58.860939 4.9078907,65.233996 7.4789058,75.897973 C 9.3848341,83.835825 13.936449,89.491721 21.728906,89.491723 L 30.947656,89.491723 L 30.947656,77.241723 C 30.947656,68.391821 38.6048,60.585475 47.697656,60.585473 L 74.478906,60.585473 C 81.933857,60.585473 87.885159,54.447309 87.885156,46.960473 L 87.885156,21.429223 C 87.885156,14.162884 81.755176,8.7044455 74.478906,7.4917229 C 69.872919,6.7249976 65.093809,6.3766746 60.510156,6.3979729 z M 46.010156,14.616723 C 48.779703,14.616723 51.041406,16.915369 51.041406,19.741723 C 51.041404,22.558059 48.779703,24.835473 46.010156,24.835473 C 43.23068,24.835472 40.978906,22.558058 40.978906,19.741723 C 40.978905,16.91537 43.23068,14.616723 46.010156,14.616723 z"
           style="fill:url(#linearGradient3449);fill-opacity:1"
           id="path2912" />
        <path
           d="M 91.228906,35.054223 L 91.228906,46.960473 C 91.228906,56.191228 83.403011,63.960472 74.478906,63.960473 L 47.697656,63.960473 C 40.361823,63.960473 34.291407,70.238956 34.291406,77.585473 L 34.291406,103.11672 C 34.291406,110.38306 40.609994,114.65704 47.697656,116.74172 C 56.184987,119.23733 64.323893,119.68835 74.478906,116.74172 C 81.229061,114.78733 87.885159,110.85411 87.885156,103.11672 L 87.885156,92.897973 L 61.103906,92.897973 L 61.103906,89.491723 L 87.885156,89.491723 L 101.29141,89.491723 C 109.08387,89.491723 111.98766,84.056315 114.69765,75.897973 C 117.49698,67.499087 117.37787,59.422197 114.69765,48.647973 C 112.77187,40.890532 109.09378,35.054223 101.29141,35.054223 L 91.228906,35.054223 z M 76.166406,99.710473 C 78.945884,99.710476 81.197656,101.98789 81.197656,104.80422 C 81.197654,107.63057 78.945881,109.92922 76.166406,109.92922 C 73.396856,109.92922 71.135156,107.63057 71.135156,104.80422 C 71.135158,101.98789 73.396853,99.710473 76.166406,99.710473 z"
           style="fill:url(#linearGradient3451);fill-opacity:1"
           id="path2914" />
      </g>
    </g>
    <path
       style="font-size:62px;font-style:normal;font-variant:normal;font-weight:normal;font-stretch:normal;text-align:start;line-height:125%;writing-mode:lr-tb;text-anchor:start;fill:#000000;fill-opacity:1;stroke:none;stroke-width:1px;stroke-linecap:butt;stroke-linejoin:miter;stroke-opacity:1;font-family:Bitstream Vera Sans;-inkscape-font-specification:Bitstream Vera Sans"
       d="M 210.54878,44.112899 C 206.77137,44.112916 204.1543,44.544861 202.69755,45.408735 C 201.2408,46.272634 200.51242,47.746326 200.51243,49.829802 C 200.51242,51.489835 201.05446,52.811068 202.13857,53.793526 C 203.23959,54.759056 204.73022,55.241813 206.61046,55.241813 C 209.2021,55.241813 211.27713,54.327111 212.83553,52.497699 C 214.41084,50.65135 215.1985,48.203677 215.19852,45.154646 L 215.19852,44.112899 L 210.54878,44.112899 M 219.87368,42.181857 L 219.87368,58.417872 L 215.19852,58.417872 L 215.19852,54.098427 C 214.13134,55.826208 212.80164,57.105099 211.20939,57.935107 C 209.61711,58.748178 207.66913,59.154717 205.36544,59.154717 C 202.45193,59.154717 200.13129,58.341646 198.40352,56.715504 C 196.69269,55.072425 195.83726,52.878825 195.83726,50.134711 C 195.83726,46.933255 196.90442,44.519447 199.03874,42.893297 C 201.18998,41.267172 204.39144,40.454101 208.64314,40.454084 L 215.19852,40.454084 L 215.19852,39.996725 C 215.1985,37.8455 214.48706,36.185476 213.06421,35.016668 C 211.65825,33.830965 209.6764,33.238101 207.11863,33.238075 C 205.49248,33.238101 203.90868,33.432902 202.36725,33.822471 C 200.82579,34.21209 199.34363,34.796486 197.92076,35.575658 L 197.92076,31.256213 C 199.63159,30.595626 201.29161,30.104393 202.90082,29.782522 C 204.51001,29.443772 206.07686,29.274385 207.60139,29.274351 C 211.71754,29.274385 214.79196,30.341537 216.82466,32.475824 C 218.85731,34.610153 219.87365,37.8455 219.87368,42.181857 M 243.93549,18.882292 L 243.93549,22.769783 L 239.46361,22.769783 C 237.78663,22.769825 236.61785,23.1086 235.95723,23.786124 C 235.31354,24.463715 234.99171,25.683326 234.99171,27.444948 L 234.99171,29.960386 L 242.69048,29.960386 L 242.69048,33.593796 L 234.99171,33.593796 L 234.99171,58.417872 L 230.29115,58.417872 L 230.29115,33.593796 L 225.81926,33.593796 L 225.81926,29.960386 L 230.29115,29.960386 L 230.29115,27.978524 C 230.29114,24.810967 231.02799,22.507267 232.50169,21.067416 C 233.97536,19.610703 236.31295,18.882326 239.51442,18.882292 L 243.93549,18.882292 M 252.3457,54.149247 L 252.3457,69.241876 L 247.64513,69.241876 L 247.64513,29.960386 L 252.3457,29.960386 L 252.3457,34.279822 C 253.32815,32.585948 254.5647,31.332464 256.05534,30.519367 C 257.56289,29.689385 259.35842,29.274385 261.44193,29.274351 C 264.89746,29.274385 267.70086,30.646437 269.85214,33.390526 C 272.0203,36.134665 273.10439,39.74266 273.10442,44.21453 C 273.10439,48.686433 272.0203,52.294437 269.85214,55.038543 C 267.70086,57.782656 264.89746,59.154717 261.44193,59.154717 C 259.35842,59.154717 257.56289,58.748178 256.05534,57.935107 C 254.5647,57.105099 253.32815,55.843145 252.3457,54.149247 M 268.2514,44.21453 C 268.25138,40.775938 267.53994,38.082644 266.11709,36.134639 C 264.71114,34.169739 262.77162,33.187281 260.29855,33.187256 C 257.82544,33.187281 255.87746,34.169739 254.45461,36.134639 C 253.04866,38.082644 252.34569,40.775938 252.3457,44.21453 C 252.34569,47.653155 253.04866,50.354918 254.45461,52.319835 C 255.87746,54.267823 257.82544,55.241813 260.29855,55.241813 C 262.77162,55.241813 264.71114,54.267823 266.11709,52.319835 C 267.53994,50.354918 268.25138,47.653155 268.2514,44.21453 M 292.69435,61.060346 C 291.37309,64.448135 290.08573,66.658673 288.83227,67.691959 C 287.57876,68.725228 285.90181,69.241867 283.80139,69.241876 L 280.06634,69.241876 L 280.06634,65.328971 L 282.81045,65.328971 C 284.09781,65.328963 285.09721,65.024062 285.80866,64.414269 C 286.52008,63.80446 287.30775,62.36465 288.17164,60.094825 L 289.01012,57.960512 L 277.50008,29.960386 L 282.45473,29.960386 L 291.3477,52.218204 L 300.24067,29.960386 L 305.19532,29.960386 L 292.69435,61.060346"
       id="text2979"
       inkscape:export-filename="/home/dadafkas/projets/afpy/graphisme/logo_afpy_v3.png"
       inkscape:export-xdpi="432.78586"
       inkscape:export-ydpi="432.78586" />
    <text
       xml:space="preserve"
       style="font-size:14px;font-style:normal;font-weight:normal;line-height:125%;fill:#000000;fill-opacity:1;stroke:none;stroke-width:1px;stroke-linecap:butt;stroke-linejoin:miter;stroke-opacity:1;font-family:Bitstream Vera Sans"
       x="235.3418"
       y="86.022552"
       id="text3392"
       sodipodi:linespacing="125%"><tspan
         sodipodi:role="line"
         id="tspan3394"
         x="235.3418"
         y="86.022552"
         style="font-size:10px;font-style:normal;font-variant:normal;font-weight:normal;font-stretch:normal;text-align:start;line-height:125%;writing-mode:lr-tb;text-anchor:start;font-family:Bitstream Vera Sans;-inkscape-font-specification:Bitstream Vera Sans">http://afpy.org</tspan></text>
    <text
       xml:space="preserve"
       style="font-size:14px;font-style:normal;font-weight:normal;fill:#000000;fill-opacity:1;stroke:none;stroke-width:1px;stroke-linecap:butt;stroke-linejoin:miter;stroke-opacity:1;font-family:Bitstream Vera Sans"
       x="188.19092"
       y="124.69685"
       id="text3396"><tspan
         sodipodi:role="line"
         id="tspan3398"
         x="188.19092"
         y="124.69685" /></text>
    <text
       xml:space="preserve"
       style="font-size:14px;font-style:normal;font-weight:normal;fill:#ffffff;fill-opacity:1;stroke:none;stroke-width:1px;stroke-linecap:butt;stroke-linejoin:miter;stroke-opacity:1;font-family:Bitstream Vera Sans"
       x="99.64286"
       y="103.64172"
       id="text2430"><tspan
         sodipodi:role="line"
         id="tspan2432"
         x="99.64286"
         y="103.64172" /></text>
    <path
       style="opacity:1;fill:#ffffff;fill-opacity:1;stroke:none;stroke-width:0.17716534;stroke-linecap:round;stroke-linejoin:miter;stroke-miterlimit:4;stroke-opacity:1"
       d="M 79.701063,92.130489 L 321.68583,92.130489 L 321.68583,216.05906 L 159.9817,215.55398 L 79.701063,92.130489 z"
       id="rect3317"
       sodipodi:nodetypes="ccccc" />
    <text
       xml:space="preserve"
       style="font-size:14px;font-style:normal;font-weight:normal;fill:#000000;fill-opacity:1;stroke:none;stroke-width:1px;stroke-linecap:butt;stroke-linejoin:miter;stroke-opacity:1;font-family:Bitstream Vera Sans"
       x="93.867287"
       y="106.86108"
       id="text3204"><tspan
         sodipodi:role="line"
         id="tspan3206"
         x="93.867287"
         y="106.86108"
         style="fill:#000000;fill-opacity:1">%(prenom)s %(nom)s</tspan></text>
    <text
       xml:space="preserve"
       style="font-size:9px;font-style:normal;font-variant:normal;font-weight:normal;font-stretch:normal;text-align:start;line-height:100%;writing-mode:lr-tb;text-anchor:start;fill:#646464;fill-opacity:1;stroke:none;stroke-width:1px;stroke-linecap:butt;stroke-linejoin:miter;stroke-opacity:1;font-family:Bitstream Vera Sans;-inkscape-font-specification:Bitstream Vera Sans"
       x="108.2084"
       y="129.07536"
       id="text3208"
       sodipodi:linespacing="100%"><tspan
         sodipodi:role="line"
         id="tspan3210"
         x="108.2084"
         y="129.07536">email : %(email)s</tspan></text>
    <text
       xml:space="preserve"
       style="font-size:9px;font-style:normal;font-variant:normal;font-weight:normal;font-stretch:normal;text-align:start;line-height:100%;writing-mode:lr-tb;text-anchor:start;fill:#646464;fill-opacity:1;stroke:none;stroke-width:1px;stroke-linecap:butt;stroke-linejoin:miter;stroke-opacity:1;font-family:Bitstream Vera Sans;-inkscape-font-specification:Bitstream Vera Sans"
       x="117.51223"
       y="140.8849"
       id="text3212"
       sodipodi:linespacing="100%"><tspan
         sodipodi:role="line"
         id="tspan3214"
         x="117.51223"
         y="140.8849">jabber : %(jabber)s</tspan></text>
    <text
       xml:space="preserve"
       style="font-size:9px;font-style:normal;font-variant:normal;font-weight:normal;font-stretch:normal;text-align:start;line-height:100%;writing-mode:lr-tb;text-anchor:start;fill:#646464;fill-opacity:1;stroke:none;stroke-width:1px;stroke-linecap:butt;stroke-linejoin:miter;stroke-opacity:1;font-family:Bitstream Vera Sans;-inkscape-font-specification:Bitstream Vera Sans"
       x="124.56776"
       y="152.69443"
       id="text3216"
       sodipodi:linespacing="100%"><tspan
         sodipodi:role="line"
         id="tspan3218"
         x="124.56776"
         y="152.69443">irc #afpy / freenode.net : %(irc)s</tspan></text>
    <text
       xml:space="preserve"
       style="font-size:9px;font-style:normal;font-variant:normal;font-weight:normal;font-stretch:normal;text-align:start;line-height:100%;writing-mode:lr-tb;text-anchor:start;fill:#646464;fill-opacity:1;stroke:none;stroke-width:1px;stroke-linecap:butt;stroke-linejoin:miter;stroke-opacity:1;font-family:Bitstream Vera Sans;-inkscape-font-specification:Bitstream Vera Sans"
       x="131.88766"
       y="164.50395"
       id="text3220"
       sodipodi:linespacing="100%"><tspan
         sodipodi:role="line"
         id="tspan3222"
         x="131.88766"
         y="164.50395">blog : %(blog)s</tspan></text>
    <text
       xml:space="preserve"
       style="font-size:6px;font-style:normal;font-variant:normal;font-weight:normal;font-stretch:normal;text-align:start;line-height:125%;writing-mode:lr-tb;text-anchor:start;fill:#646464;fill-opacity:1;stroke:none;stroke-width:1px;stroke-linecap:butt;stroke-linejoin:miter;stroke-opacity:1;font-family:Bitstream Vera Sans;-inkscape-font-specification:Bitstream Vera Sans"
       x="138.72443"
       y="174.78966"
       id="text3224"
       sodipodi:linespacing="125%"><tspan
         sodipodi:role="line"
         id="tspan3226"
         x="138.72443"
         y="174.78966">tags : %(tags)s</tspan></text>
    <text
       sodipodi:linespacing="100%"
       id="text3228"
       y="119.98399"
       x="305.63916"
       style="font-size:9px;font-style:normal;font-variant:normal;font-weight:normal;font-stretch:normal;text-align:start;line-height:100%;writing-mode:lr-tb;text-anchor:start;fill:#646464;fill-opacity:1;stroke:none;stroke-width:1px;stroke-linecap:butt;stroke-linejoin:miter;stroke-opacity:1;font-family:Bitstream Vera Sans;-inkscape-font-specification:Bitstream Vera Sans"
       xml:space="preserve"><tspan
         y="119.98399"
         x="305.63916"
         id="tspan3230"
         sodipodi:role="line"
         style="text-align:end;text-anchor:end;fill:#646464;fill-opacity:1">%(role)s</tspan></text>
    <flowRoot
       xml:space="preserve"
       id="flowRoot3232"
       style="font-size:14px;font-style:normal;font-weight:normal;fill:#000000;fill-opacity:1;stroke:none;stroke-width:1px;stroke-linecap:butt;stroke-linejoin:miter;stroke-opacity:1;font-family:Bitstream Vera Sans"><flowRegion
         id="flowRegion3234"><rect
           id="rect3236"
           width="56.568542"
           height="15.404826"
           x="249.50768"
           y="113.61124" /></flowRegion><flowPara
         id="flowPara3238" /></flowRoot>    <text
       xml:space="preserve"
       style="font-size:14px;font-style:normal;font-weight:normal;fill:#000000;fill-opacity:1;stroke:none;stroke-width:1px;stroke-linecap:butt;stroke-linejoin:miter;stroke-opacity:1;font-family:Bitstream Vera Sans"
       x="264.28116"
       y="120.68231"
       id="text3240"><tspan
         sodipodi:role="line"
         id="tspan3242"
         x="264.28116"
         y="120.68231" /></text>
    <text
       xml:space="preserve"
       style="font-size:14px;font-style:normal;font-weight:normal;fill:#000000;fill-opacity:1;stroke:none;stroke-width:1px;stroke-linecap:butt;stroke-linejoin:miter;stroke-opacity:1;font-family:Bitstream Vera Sans"
       x="190.16122"
       y="114.87393"
       id="text3244"><tspan
         sodipodi:role="line"
         id="tspan3246"
         x="190.16122"
         y="114.87393" /></text>
    <g
       transform="matrix(0.1824275,0,0,0.1824275,210.30453,169.01607)"
       id="g3282"
       inkscape:label="Warstwa 1">
      <g
         id="g1894">
        <path
           style="opacity:1;fill:#646464;fill-opacity:1;fill-rule:nonzero;stroke:none;stroke-width:1;stroke-linecap:butt;stroke-linejoin:miter;marker:none;marker-start:none;marker-mid:none;marker-end:none;stroke-miterlimit:4;stroke-dasharray:none;stroke-dashoffset:0;stroke-opacity:1;visibility:visible;display:inline;overflow:visible"
           d="M 411.96875,93.96875 C 392.50446,93.96875 386.95088,113.95536 387.84375,121.8125 C 387.84375,126.27678 388.9159,151.12444 412.84375,150.9375 C 435.52232,150.75893 436.6327,126.47018 436.59375,122.1875 C 436.55473,118.07666 436.25446,93.968751 411.96875,93.96875 z M 412.3125,100.40625 C 414.5433,100.40625 427.3125,100.74108 427.3125,121.8125 C 427.31249,142.88392 418.74107,145.03125 412.3125,145.03125 C 405.88392,145.03124 397.5,141.66071 397.5,121.125 C 397.5,100.58929 409.90313,100.40625 412.3125,100.40625 z"
           id="path8605" />
        <path
           style="opacity:1;fill:#646464;fill-opacity:1;fill-rule:nonzero;stroke:none;stroke-width:1;stroke-linecap:butt;stroke-linejoin:miter;marker:none;marker-start:none;marker-mid:none;marker-end:none;stroke-miterlimit:4;stroke-dasharray:none;stroke-dashoffset:0;stroke-opacity:1;visibility:visible;display:inline;overflow:visible"
           d="M 210.34375,94.15625 C 195.34375,94.15625 186.78125,103.4375 186.78125,103.4375 L 186.78125,173.78125 L 196.0625,178.0625 L 196.0625,146.28125 C 196.0625,146.28125 202.50446,151.28124 213.21875,151.28125 C 223.93303,151.28125 233.9375,140.23214 233.9375,122.375 C 233.9375,104.51786 225.34374,94.156249 210.34375,94.15625 z M 209.28125,100.21875 C 216.78125,100.21875 224.09374,103.60268 224.09375,122.53125 C 224.09375,141.45982 215.8884,144.31249 209.28125,144.3125 C 202.67411,144.3125 196.25,139.31249 196.25,139.3125 L 196.0625,139.15625 L 196.0625,104.6875 C 196.0625,104.6875 201.78125,100.21875 209.28125,100.21875 z"
           id="path8593" />
        <path
           style="opacity:1;fill:#646464;fill-opacity:1;fill-rule:nonzero;stroke:none;stroke-width:1;stroke-linecap:butt;stroke-linejoin:miter;marker:none;marker-start:none;marker-mid:none;marker-end:none;stroke-miterlimit:4;stroke-dasharray:none;stroke-dashoffset:0;stroke-opacity:1;visibility:visible;display:inline;overflow:visible"
           d="M 280.35714,95.397895 L 289.46429,95.397895 L 289.46429,148.25504 C 289.46429,148.25504 290.53571,162.18361 283.57143,169.32647 C 276.60714,176.46932 259.82143,177.71932 259.82143,177.71932 L 258.57143,172.54076 C 258.57143,172.54076 280.89286,170.93361 280.89286,153.43361 L 280.89286,146.29075 C 280.89286,146.29075 270.53571,150.75504 261.60714,150.75504 C 252.67857,150.75504 243.75,145.04075 243.75,134.50504 C 243.75,123.96932 243.75,97.183609 243.75,97.183609 L 253.12798,94.670788 L 253.12798,132.71932 C 253.12798,132.71932 252.5,144.32647 265.53571,144.32647 C 278.57143,144.32647 280.71429,139.32647 280.71429,139.32647 L 280.35714,95.397895 z"
           id="path8597"
           sodipodi:nodetypes="cccsccccsscccscc" />
        <path
           style="opacity:1;fill:#646464;fill-opacity:1;fill-rule:nonzero;stroke:none;stroke-width:1;stroke-linecap:butt;stroke-linejoin:miter;marker:none;marker-start:none;marker-mid:none;marker-end:none;stroke-miterlimit:4;stroke-dasharray:none;stroke-dashoffset:0;stroke-opacity:1;visibility:visible;display:inline;overflow:visible"
           d="M 305.35714,80.576466 L 305.35714,80.576466 L 314.28571,77.719323 L 314.28571,95.397895 L 324.64286,95.397895 L 324.64286,101.29075 L 314.28571,101.29075 L 314.28571,136.64789 C 314.28571,136.64789 313.03571,145.39789 324.28571,145.39789 L 324.28571,150.75504 C 324.28571,150.75504 305.53571,150.93361 305.53571,138.25504 C 305.53571,125.57647 305.53571,101.11218 305.53571,101.11218 L 299.46429,101.11218 L 299.46429,95.397895 L 305.35714,95.397895 L 305.35714,80.576466 z"
           id="path8599" />
        <path
           style="opacity:1;fill:#646464;fill-opacity:1;fill-rule:nonzero;stroke:none;stroke-width:1;stroke-linecap:butt;stroke-linejoin:miter;marker:none;marker-start:none;marker-mid:none;marker-end:none;stroke-miterlimit:4;stroke-dasharray:none;stroke-dashoffset:0;stroke-opacity:1;visibility:visible;display:inline;overflow:visible"
           d="M 335.35714,66.112181 L 344.10714,63.612181 L 344.10714,101.46932 C 344.10714,101.46932 353.39286,95.040752 362.85714,95.040752 C 372.32143,95.040752 379.10714,103.43361 379.10714,109.14789 C 379.10714,114.86218 379.10714,149.86218 379.10714,149.86218 L 370.35714,149.86218 L 370.35714,113.43361 C 370.35714,113.43361 369.46429,100.93361 359.46429,100.93361 C 349.46429,100.93361 344.28572,107.89789 344.28572,107.89789 L 344.28572,150.04075 L 335.17857,150.04075 L 335.35714,66.112181 z"
           id="path8601" />
        <path
           style="opacity:1;fill:#646464;fill-opacity:1;fill-rule:nonzero;stroke:none;stroke-width:1;stroke-linecap:butt;stroke-linejoin:miter;marker:none;marker-start:none;marker-mid:none;marker-end:none;stroke-miterlimit:4;stroke-dasharray:none;stroke-dashoffset:0;stroke-opacity:1;visibility:visible;display:inline;overflow:visible"
           d="M 445.53572,149.86218 L 454.46429,149.86218 L 454.46429,104.32647 C 454.46429,104.32647 458.03572,99.862181 467.14286,99.862181 C 476.25,99.862181 479.82143,108.07647 479.82143,110.21932 C 479.82143,112.36218 479.82143,149.86218 479.82143,149.86218 L 489.10714,149.86218 L 489.10714,107.18361 C 489.10714,107.18361 487.85714,94.147895 470.71429,93.969323 C 453.57143,93.790752 445.35714,103.25504 445.35714,103.25504 L 445.53572,149.86218 z"
           id="path8609" />
        <path
           style="font-size:16px;font-style:normal;font-variant:normal;font-weight:normal;font-stretch:normal;text-align:start;line-height:125%;writing-mode:lr-tb;text-anchor:start;fill:#646464;fill-opacity:1;stroke:none;stroke-width:1px;stroke-linecap:butt;stroke-linejoin:miter;stroke-opacity:1;font-family:Arial"
           d="M 502.40616,88.171577 L 502.40616,78.070015 L 498.63272,78.070015 L 498.63272,76.718452 L 507.71085,76.718452 L 507.71085,78.070015 L 503.92178,78.070015 L 503.92178,88.171577 L 502.40616,88.171577 z M 509.22647,88.171577 L 509.22647,76.718452 L 511.50772,76.718452 L 514.21866,84.827827 C 514.46865,85.583038 514.65094,86.148142 514.76553,86.52314 C 514.89573,86.106475 515.09886,85.494497 515.37491,84.687202 L 518.1171,76.718452 L 520.15616,76.718452 L 520.15616,88.171577 L 518.69522,88.171577 L 518.69522,78.58564 L 515.3671,88.171577 L 513.99991,88.171577 L 510.68741,78.421577 L 510.68741,88.171577 L 509.22647,88.171577 z"
           id="text8611" />
        <path
           style="opacity:1;fill:url(#linearGradient9521);fill-opacity:1;fill-rule:nonzero;stroke:none;stroke-width:1;stroke-linecap:butt;stroke-linejoin:miter;marker:none;marker-start:none;marker-mid:none;marker-end:none;stroke-miterlimit:4;stroke-dasharray:none;stroke-dashoffset:0;stroke-opacity:1;visibility:visible;display:inline;overflow:visible"
           d="M 99.75,67.46875 C 71.718268,67.468752 73.46875,79.625 73.46875,79.625 L 73.5,92.21875 L 100.25,92.21875 L 100.25,96 L 62.875,96 C 62.875,96 44.9375,93.965724 44.9375,122.25 C 44.937498,150.53427 60.59375,149.53125 60.59375,149.53125 L 69.9375,149.53125 L 69.9375,136.40625 C 69.9375,136.40625 69.433848,120.75 85.34375,120.75 C 101.25365,120.75 111.875,120.75 111.875,120.75 C 111.875,120.75 126.78125,120.99096 126.78125,106.34375 C 126.78125,91.696544 126.78125,82.125 126.78125,82.125 C 126.78125,82.124998 129.04443,67.46875 99.75,67.46875 z M 85,75.9375 C 87.661429,75.937498 89.8125,78.088571 89.8125,80.75 C 89.812502,83.411429 87.661429,85.5625 85,85.5625 C 82.338571,85.562502 80.1875,83.411429 80.1875,80.75 C 80.187498,78.088571 82.338571,75.9375 85,75.9375 z"
           id="path8615" />
        <path
           id="path8620"
           d="M 100.5461,177.31485 C 128.57784,177.31485 126.82735,165.1586 126.82735,165.1586 L 126.7961,152.56485 L 100.0461,152.56485 L 100.0461,148.7836 L 137.4211,148.7836 C 137.4211,148.7836 155.3586,150.81787 155.3586,122.53359 C 155.35861,94.249323 139.70235,95.252343 139.70235,95.252343 L 130.3586,95.252343 L 130.3586,108.37734 C 130.3586,108.37734 130.86226,124.03359 114.95235,124.03359 C 99.042448,124.03359 88.421098,124.03359 88.421098,124.03359 C 88.421098,124.03359 73.514848,123.79263 73.514848,138.43985 C 73.514848,153.08705 73.514848,162.6586 73.514848,162.6586 C 73.514848,162.6586 71.251668,177.31485 100.5461,177.31485 z M 115.2961,168.8461 C 112.63467,168.8461 110.4836,166.69503 110.4836,164.0336 C 110.4836,161.37217 112.63467,159.2211 115.2961,159.2211 C 117.95753,159.2211 120.1086,161.37217 120.1086,164.0336 C 120.10861,166.69503 117.95753,168.8461 115.2961,168.8461 z"
           style="opacity:1;fill:url(#linearGradient11307);fill-opacity:1;fill-rule:nonzero;stroke:none;stroke-width:1;stroke-linecap:butt;stroke-linejoin:miter;marker:none;marker-start:none;marker-mid:none;marker-end:none;stroke-miterlimit:4;stroke-dasharray:none;stroke-dashoffset:0;stroke-opacity:1;visibility:visible;display:inline;overflow:visible" />
      </g>
    </g>
    <path
       style="fill:none;fill-opacity:1;fill-rule:evenodd;stroke:none;stroke-width:1px;stroke-linecap:butt;stroke-linejoin:miter;stroke-opacity:1"
       d="M 80.812203,90.882809 L 313.65237,90.882809"
       id="path3256" />
    <rect
       style="opacity:1;fill:none;fill-opacity:0.23291925;stroke:#000000;stroke-width:0.35433072;stroke-linecap:round;stroke-linejoin:miter;stroke-miterlimit:4;stroke-dasharray:none;stroke-opacity:1"
       id="rect3048"
       width="301.18109"
       height="194.8819"
       x="10.807087"
       y="10.45274" />
  </g>
</svg>
