<?xml version="1.0" encoding="UTF-8" standalone="no"?>
<!-- Created with Inkscape (http://www.inkscape.org/) -->
<svg
   xmlns:dc="http://purl.org/dc/elements/1.1/"
   xmlns:cc="http://creativecommons.org/ns#"
   xmlns:rdf="http://www.w3.org/1999/02/22-rdf-syntax-ns#"
   xmlns:svg="http://www.w3.org/2000/svg"
   xmlns="http://www.w3.org/2000/svg"
   xmlns:xlink="http://www.w3.org/1999/xlink"
   xmlns:sodipodi="http://sodipodi.sourceforge.net/DTD/sodipodi-0.dtd"
   xmlns:inkscape="http://www.inkscape.org/namespaces/inkscape"
   width="322.44095"
   height="216.14172"
   id="svg2422"
   sodipodi:version="0.32"
   inkscape:version="0.46"
   sodipodi:docname="carte_visite_template.svg"
   inkscape:output_extension="org.inkscape.output.svg.inkscape"
   version="1.0"
   inkscape:export-filename="/home/dadafkas/projets/afpy/cartes de visite/cvisite1.png"
   inkscape:export-xdpi="150"
   inkscape:export-ydpi="150">
  <defs
     id="defs2424">
    <linearGradient
       id="linearGradient3238">
      <stop
         style="stop-color:#ffffff;stop-opacity:0;"
         offset="0"
         id="stop3240" />
      <stop
         style="stop-color:#ffffff;stop-opacity:1;"
         offset="1"
         id="stop3242" />
    </linearGradient>
    <inkscape:perspective
       sodipodi:type="inkscape:persp3d"
       inkscape:vp_x="0 : 108.07086 : 1"
       inkscape:vp_y="0 : 1000 : 0"
       inkscape:vp_z="322.44095 : 108.07086 : 1"
       inkscape:persp3d-origin="161.22047 : 72.047241 : 1"
       id="perspective83" />
    <linearGradient
       id="linearGradient4671-684">
      <stop
         id="stop3849"
         offset="0"
         style="stop-color: rgb(255, 212, 59); stop-opacity: 1;" />
      <stop
         id="stop3851"
         offset="1"
         style="stop-color: rgb(255, 232, 115); stop-opacity: 1;" />
    </linearGradient>
    <linearGradient
       id="linearGradient4689-47">
      <stop
         id="stop3843"
         offset="0"
         style="stop-color: rgb(90, 159, 212); stop-opacity: 1;" />
      <stop
         id="stop3845"
         offset="1"
         style="stop-color: rgb(48, 105, 152); stop-opacity: 1;" />
    </linearGradient>
    <linearGradient
       inkscape:collect="always"
       xlink:href="#linearGradient4689-47"
       id="linearGradient3449"
       gradientUnits="userSpaceOnUse"
       gradientTransform="matrix(0.562541,0,0,0.567972,-9.39975,-5.30532)"
       x1="26.648937"
       y1="20.603781"
       x2="135.66525"
       y2="114.39767" />
    <linearGradient
       inkscape:collect="always"
       xlink:href="#linearGradient4671-684"
       id="linearGradient3451"
       gradientUnits="userSpaceOnUse"
       gradientTransform="matrix(0.562541,0,0,0.567972,-9.39975,-5.30532)"
       x1="150.96111"
       y1="192.35176"
       x2="112.03144"
       y2="137.27299" />
    <linearGradient
       gradientUnits="userSpaceOnUse"
       y2="168.1012"
       x2="147.77737"
       y1="111.92053"
       x1="89.136749"
       id="linearGradient11307"
       xlink:href="#linearGradient11301"
       inkscape:collect="always" />
    <linearGradient
       gradientUnits="userSpaceOnUse"
       y2="131.85291"
       x2="110.14919"
       y1="77.070274"
       x1="55.549179"
       id="linearGradient9521"
       xlink:href="#linearGradient9515"
       inkscape:collect="always" />
    <linearGradient
       id="linearGradient9515"
       inkscape:collect="always">
      <stop
         id="stop9517"
         offset="0"
         style="stop-color:#387eb8;stop-opacity:1" />
      <stop
         id="stop9519"
         offset="1"
         style="stop-color:#366994;stop-opacity:1" />
    </linearGradient>
    <linearGradient
       id="linearGradient11301"
       inkscape:collect="always">
      <stop
         id="stop11303"
         offset="0"
         style="stop-color:#ffe052;stop-opacity:1" />
      <stop
         id="stop11305"
         offset="1"
         style="stop-color:#ffc331;stop-opacity:1" />
    </linearGradient>
    <radialGradient
       inkscape:collect="always"
       xlink:href="#linearGradient3238"
       id="radialGradient3254"
       cx="44.19416"
       cy="9.4496508"
       fx="44.19416"
       fy="9.4496508"
       r="160.36171"
       gradientTransform="matrix(1.4157621,0,0,0.7669356,-18.374255,34.895668)"
       gradientUnits="userSpaceOnUse" />
  </defs>
  <sodipodi:namedview
     id="base"
     pagecolor="#ffffff"
     bordercolor="#666666"
     borderopacity="1.0"
     inkscape:pageopacity="0.0"
     inkscape:pageshadow="2"
     inkscape:zoom="1.979899"
     inkscape:cx="93.177529"
     inkscape:cy="80.05899"
     inkscape:document-units="mm"
     inkscape:current-layer="layer1"
     showgrid="false"
     inkscape:window-width="1423"
     inkscape:window-height="954"
     inkscape:window-x="95"
     inkscape:window-y="181"
     units="mm"
     inkscape:snap-global="false" />
  <metadata
     id="metadata2427">
    <rdf:RDF>
      <cc:Work
         rdf:about="">
        <dc:format>image/svg+xml</dc:format>
        <dc:type
           rdf:resource="http://purl.org/dc/dcmitype/StillImage" />
      </cc:Work>
    </rdf:RDF>
  </metadata>
  <g
     inkscape:label="Calque 1"
     inkscape:groupmode="layer"
     id="layer1">
    <path
       style="opacity:0.35;fill:#ff6f32;fill-opacity:1;stroke:none;stroke-width:6.79567623;stroke-linecap:butt;stroke-linejoin:round;stroke-miterlimit:4;stroke-opacity:1"
       d="M 45.092806,44.330446 L 3.9994895,99.968831 L 4.1060399,214.73237 L 155.49875,214.35227 L 45.092806,44.330446 z"
       id="path2480"
       sodipodi:nodetypes="ccccc" />
    <path
       style="opacity:0.35;fill:#edadd9;fill-opacity:1;stroke:none;stroke-width:6.79567623;stroke-linecap:butt;stroke-linejoin:round;stroke-miterlimit:4;stroke-opacity:1"
       d="M 45.092806,44.330446 L 155.67995,214.62537 L 321.25445,214.80955 L 321.61892,1.7197999 L 199.30802,1.3524825 L 45.092806,44.330446 z"
       id="path2482"
       sodipodi:nodetypes="cccccc" />
    <path
       style="opacity:0.35;fill:#32ada9;fill-opacity:1;stroke:none;stroke-width:6.79567623;stroke-linecap:butt;stroke-linejoin:round;stroke-miterlimit:4;stroke-opacity:1"
       d="M 45.092806,44.330446 L 198.8042,1.5415494 L 45.782523,1.7327325 L 45.092806,44.330446 z"
       id="path2484"
       sodipodi:nodetypes="cccc" />
    <path
       style="opacity:0.35;fill:#ebff32;fill-opacity:0.70807453;stroke:none;stroke-width:6.79567623;stroke-linecap:butt;stroke-linejoin:round;stroke-miterlimit:4;stroke-dasharray:none;stroke-opacity:1"
       d="M 45.092806,44.330446 L 45.948943,1.6887505 L 4.0984381,1.8590792 L 3.8524955,30.803109 L 45.092806,44.330446 z"
       id="path2486"
       sodipodi:nodetypes="ccccc" />
    <path
       style="opacity:0.35;fill:#327bd6;fill-opacity:1;stroke:none;stroke-width:6.79567623;stroke-linecap:butt;stroke-linejoin:round;stroke-miterlimit:4;stroke-opacity:1"
       d="M 45.092806,44.330446 L 3.8732821,30.675034 L 4.0835217,99.920564 L 45.092806,44.330446 z"
       id="path2488"
       sodipodi:nodetypes="cccc" />
    <path
       style="font-size:12.73233509px;font-style:normal;font-variant:normal;font-weight:normal;font-stretch:normal;text-align:start;line-height:100%;writing-mode:lr-tb;text-anchor:start;fill:#000000;fill-opacity:1;stroke:none;stroke-width:1px;stroke-linecap:butt;stroke-linejoin:miter;stroke-opacity:1;font-family:Bitstream Vera Sans;-inkscape-font-specification:Bitstream Vera Sans"
       d="M 17.154802,79.432148 L 15.725107,83.309039 L 18.589727,83.309039 L 17.154802,79.432148 M 16.559966,78.393784 L 17.754859,78.393784 L 20.723846,86.1841 L 19.628083,86.1841 L 18.918455,84.185645 L 15.406811,84.185645 L 14.697184,86.1841 L 13.585767,86.1841 L 16.559966,78.393784 M 25.539954,80.512251 L 25.539954,81.420163 C 25.268617,81.281024 24.986856,81.176665 24.694654,81.107087 C 24.402452,81.037526 24.099809,81.002737 23.786742,81.002729 C 23.310172,81.002737 22.951883,81.07579 22.71186,81.221886 C 22.475312,81.367992 22.357038,81.587141 22.357038,81.879335 C 22.357038,82.101976 22.442269,82.277641 22.612722,82.406347 C 22.783167,82.531579 23.125811,82.651591 23.640646,82.766381 L 23.969366,82.839426 C 24.65117,82.985531 25.13469,83.19251 25.419943,83.460356 C 25.708662,83.724735 25.853021,84.095202 25.85303,84.571773 C 25.853021,85.11443 25.637347,85.544033 25.206006,85.860584 C 24.778139,86.177142 24.188515,86.335417 23.437141,86.335417 C 23.124065,86.335417 22.797083,86.304111 22.456185,86.241491 C 22.118753,86.182354 21.762202,86.091911 21.386515,85.970162 L 21.386515,84.978766 C 21.741329,85.163134 22.09093,85.302273 22.435311,85.396199 C 22.779693,85.486642 23.120591,85.531864 23.458014,85.531864 C 23.910228,85.531864 24.258093,85.455336 24.50159,85.302273 C 24.745088,85.145736 24.866845,84.926586 24.866845,84.644817 C 24.866845,84.383929 24.778139,84.183907 24.600737,84.04476 C 24.4268,83.905621 24.042418,83.771694 23.447582,83.642987 L 23.113633,83.564714 C 22.518796,83.439491 22.089193,83.248164 21.824814,82.990751 C 21.560443,82.729855 21.428253,82.373304 21.428262,81.921081 C 21.428253,81.371466 21.623055,80.947083 22.012657,80.647915 C 22.40226,80.348764 22.955358,80.199184 23.671951,80.199175 C 24.026765,80.199184 24.360705,80.225269 24.673781,80.277448 C 24.986856,80.329628 25.275575,80.407901 25.539954,80.512251 M 31.112657,80.512251 L 31.112657,81.420163 C 30.841328,81.281024 30.559559,81.176665 30.267365,81.107087 C 29.975155,81.037526 29.67252,81.002737 29.359445,81.002729 C 28.882883,81.002737 28.524586,81.07579 28.284563,81.221886 C 28.048015,81.367992 27.929749,81.587141 27.929749,81.879335 C 27.929749,82.101976 28.014972,82.277641 28.185425,82.406347 C 28.35587,82.531579 28.698514,82.651591 29.213348,82.766381 L 29.542077,82.839426 C 30.223873,82.985531 30.707401,83.19251 30.992646,83.460356 C 31.281364,83.724735 31.425724,84.095202 31.425732,84.571773 C 31.425724,85.11443 31.210058,85.544033 30.778717,85.860584 C 30.350842,86.177142 29.761226,86.335417 29.009852,86.335417 C 28.696776,86.335417 28.369786,86.304111 28.028887,86.241491 C 27.691464,86.182354 27.334905,86.091911 26.959217,85.970162 L 26.959217,84.978766 C 27.314031,85.163134 27.663633,85.302273 28.008014,85.396199 C 28.352395,85.486642 28.693293,85.531864 29.030725,85.531864 C 29.48294,85.531864 29.830795,85.455336 30.074301,85.302273 C 30.317799,85.145736 30.439547,84.926586 30.439556,84.644817 C 30.439547,84.383929 30.350842,84.183907 30.173439,84.04476 C 29.999503,83.905621 29.615121,83.771694 29.020284,83.642987 L 28.686344,83.564714 C 28.091499,83.439491 27.661895,83.248164 27.397525,82.990751 C 27.133145,82.729855 27.000964,82.373304 27.000964,81.921081 C 27.000964,81.371466 27.195766,80.947083 27.585368,80.647915 C 27.974971,80.348764 28.528061,80.199184 29.244654,80.199175 C 29.599468,80.199184 29.933417,80.225269 30.246492,80.277448 C 30.559559,80.329628 30.848286,80.407901 31.112657,80.512251 M 35.224358,81.01317 C 34.709524,81.01317 34.302531,81.214929 34.003371,81.618447 C 33.704211,82.018482 33.554631,82.568105 33.554631,83.2673 C 33.554631,83.966495 33.702474,84.517856 33.99815,84.921366 C 34.29731,85.321409 34.70604,85.521423 35.224358,85.521423 C 35.735709,85.521423 36.140965,85.319664 36.440125,84.916154 C 36.739276,84.512636 36.888856,83.963021 36.888864,83.2673 C 36.888856,82.575063 36.739276,82.027186 36.440125,81.623659 C 36.140965,81.216674 35.735709,81.01317 35.224358,81.01317 M 35.224358,80.199175 C 36.059217,80.199184 36.714928,80.470512 37.191499,81.01317 C 37.668061,81.555835 37.906347,82.307209 37.906355,83.2673 C 37.906347,84.223908 37.668061,84.975291 37.191499,85.521423 C 36.714928,86.064088 36.059217,86.335417 35.224358,86.335417 C 34.386016,86.335417 33.728559,86.064088 33.251997,85.521423 C 32.778909,84.975291 32.542361,84.223908 32.542361,83.2673 C 32.542361,82.307209 32.778909,81.555835 33.251997,81.01317 C 33.728559,80.470512 34.386016,80.199184 35.224358,80.199175 M 43.698207,80.56443 L 43.698207,81.461909 C 43.426879,81.312329 43.153804,81.201022 42.879001,81.127961 C 42.607664,81.051442 42.332861,81.01317 42.054574,81.01317 C 41.431907,81.01317 40.948378,81.211454 40.604005,81.608006 C 40.259615,82.001092 40.087425,82.55419 40.087433,83.2673 C 40.087425,83.980411 40.259615,84.535246 40.604005,84.931807 C 40.948378,85.324884 41.431907,85.521423 42.054574,85.521423 C 42.332861,85.521423 42.607664,85.484896 42.879001,85.411852 C 43.153804,85.335325 43.426879,85.222263 43.698207,85.072683 L 43.698207,85.95973 C 43.430353,86.084953 43.152067,86.178879 42.863348,86.241491 C 42.578095,86.304111 42.273724,86.335417 41.950216,86.335417 C 41.070127,86.335417 40.370932,86.058868 39.852623,85.50577 C 39.334313,84.95268 39.075163,84.206518 39.075163,83.2673 C 39.075163,82.314167 39.336051,81.56453 39.857843,81.01839 C 40.38311,80.47225 41.101441,80.199184 42.012827,80.199175 C 42.308504,80.199184 42.597231,80.23049 42.879001,80.293101 C 43.160762,80.352238 43.433828,80.442681 43.698207,80.56443 M 45.378366,80.34006 L 46.338457,80.34006 L 46.338457,86.1841 L 45.378366,86.1841 L 45.378366,80.34006 M 45.378366,78.065064 L 46.338457,78.065064 L 46.338457,79.280831 L 45.378366,79.280831 L 45.378366,78.065064 M 50.998036,83.246427 C 50.222306,83.246427 49.684869,83.335133 49.385709,83.512535 C 49.086549,83.689946 48.936969,83.992589 48.936969,84.420447 C 48.936969,84.761353 49.048286,85.032682 49.270918,85.234441 C 49.497025,85.432726 49.803134,85.531864 50.189262,85.531864 C 50.721487,85.531864 51.147616,85.34402 51.467649,84.968325 C 51.791149,84.589163 51.952907,84.086507 51.952907,83.460356 L 51.952907,83.246427 L 50.998036,83.246427 M 52.912998,82.849867 L 52.912998,86.1841 L 51.952907,86.1841 L 51.952907,85.297053 C 51.733757,85.651875 51.460683,85.914508 51.133701,86.084953 C 50.80671,86.251932 50.406674,86.335417 49.933587,86.335417 C 49.335267,86.335417 48.858696,86.168447 48.503883,85.834498 C 48.152544,85.497075 47.976878,85.046598 47.976878,84.483067 C 47.976878,83.825611 48.196028,83.329912 48.634335,82.995963 C 49.076108,82.662023 49.733565,82.495053 50.606696,82.495053 L 51.952907,82.495053 L 51.952907,82.401127 C 51.952907,81.959353 51.806802,81.618447 51.514608,81.378424 C 51.225881,81.134927 50.818888,81.01317 50.293621,81.01317 C 49.959672,81.01317 49.634427,81.053179 49.317877,81.133181 C 49.001318,81.213191 48.696947,81.333203 48.404745,81.493215 L 48.404745,80.606177 C 48.756084,80.470512 49.096982,80.369637 49.427456,80.303534 C 49.757913,80.233973 50.079684,80.199184 50.392759,80.199175 C 51.238059,80.199184 51.869422,80.418333 52.286856,80.856632 C 52.704281,81.294939 52.912998,81.959353 52.912998,82.849867 M 55.845459,78.680774 L 55.845459,80.34006 L 57.823032,80.34006 L 57.823032,81.086222 L 55.845459,81.086222 L 55.845459,84.258697 C 55.84545,84.735268 55.909808,85.041377 56.038514,85.177042 C 56.170704,85.312714 56.436812,85.380546 56.836855,85.380538 L 57.823032,85.380538 L 57.823032,86.1841 L 56.836855,86.1841 C 56.095914,86.1841 55.584562,86.04669 55.302793,85.771886 C 55.021032,85.4936 54.880147,84.989198 54.880147,84.258697 L 54.880147,81.086222 L 54.175732,81.086222 L 54.175732,80.34006 L 54.880147,80.34006 L 54.880147,78.680774 L 55.845459,78.680774 M 59.090986,80.34006 L 60.051077,80.34006 L 60.051077,86.1841 L 59.090986,86.1841 L 59.090986,80.34006 M 59.090986,78.065064 L 60.051077,78.065064 L 60.051077,79.280831 L 59.090986,79.280831 L 59.090986,78.065064 M 64.319308,81.01317 C 63.804473,81.01317 63.39748,81.214929 63.09832,81.618447 C 62.799161,82.018482 62.649581,82.568105 62.649581,83.2673 C 62.649581,83.966495 62.797423,84.517856 63.093108,84.921366 C 63.39226,85.321409 63.800998,85.521423 64.319308,85.521423 C 64.830659,85.521423 65.235915,85.319664 65.535074,84.916154 C 65.834234,84.512636 65.983814,83.963021 65.983814,83.2673 C 65.983814,82.575063 65.834234,82.027186 65.535074,81.623659 C 65.235915,81.216674 64.830659,81.01317 64.319308,81.01317 M 64.319308,80.199175 C 65.154167,80.199184 65.809878,80.470512 66.286457,81.01317 C 66.763011,81.555835 67.001296,82.307209 67.001305,83.2673 C 67.001296,84.223908 66.763011,84.975291 66.286457,85.521423 C 65.809878,86.064088 65.154167,86.335417 64.319308,86.335417 C 63.480965,86.335417 62.823509,86.064088 62.346946,85.521423 C 61.873859,84.975291 61.637311,84.223908 61.637311,83.2673 C 61.637311,82.307209 61.873859,81.555835 62.346946,81.01317 C 62.823509,80.470512 63.480965,80.199184 64.319308,80.199175 M 73.445393,82.656803 L 73.445393,86.1841 L 72.485302,86.1841 L 72.485302,82.688108 C 72.485302,82.135019 72.37746,81.721068 72.161794,81.446256 C 71.946119,81.171453 71.622611,81.034043 71.19127,81.034043 C 70.672953,81.034043 70.264223,81.199276 69.965063,81.529741 C 69.665903,81.860207 69.516323,82.310684 69.516323,82.881172 L 69.516323,86.1841 L 68.55102,86.1841 L 68.55102,80.34006 L 69.516323,80.34006 L 69.516323,81.247972 C 69.745913,80.896641 70.015505,80.634008 70.325097,80.460071 C 70.638172,80.286152 70.998206,80.199184 71.405199,80.199175 C 72.076563,80.199184 72.58444,80.407901 72.928829,80.825326 C 73.273202,81.239285 73.445393,81.849775 73.445393,82.656803"
       id="text2918" />
    <path
       style="font-size:12.81396866px;font-style:normal;font-variant:normal;font-weight:normal;font-stretch:normal;text-align:start;line-height:100%;writing-mode:lr-tb;text-anchor:start;fill:#000000;fill-opacity:1;stroke:none;stroke-width:1px;stroke-linecap:butt;stroke-linejoin:miter;stroke-opacity:1;font-family:Bitstream Vera Sans;-inkscape-font-specification:Bitstream Vera Sans"
       d="M 79.213006,78.343838 L 83.718657,78.343838 L 83.718657,79.236566 L 80.273779,79.236566 L 80.273779,81.547157 L 83.382577,81.547157 L 83.382577,82.439886 L 80.273779,82.439886 L 80.273779,86.1841 L 79.213006,86.1841 L 79.213006,78.343838 M 87.998503,81.205822 C 87.889974,81.142808 87.770944,81.097301 87.641415,81.069285 C 87.515378,81.037786 87.375341,81.022033 87.221304,81.022024 C 86.675164,81.022033 86.255061,81.200577 85.960987,81.557665 C 85.670405,81.911262 85.525123,82.420641 85.525123,83.085802 L 85.525123,86.1841 L 84.553625,86.1841 L 84.553625,80.302594 L 85.525123,80.302594 L 85.525123,81.216322 C 85.728174,80.859242 85.992486,80.594922 86.318076,80.423369 C 86.643657,80.248333 87.03926,80.160811 87.504878,80.160803 C 87.571393,80.160811 87.644915,80.166065 87.725438,80.176556 C 87.805951,80.183564 87.895228,80.195818 87.993258,80.213318 L 87.998503,81.205822 M 91.695448,83.227593 C 90.914749,83.227593 90.373863,83.316869 90.072789,83.495405 C 89.771707,83.673958 89.621171,83.978531 89.621171,84.409142 C 89.621171,84.75223 89.7332,85.025305 89.95726,85.228356 C 90.18481,85.427908 90.492892,85.527676 90.881496,85.527676 C 91.417128,85.527676 91.845985,85.338632 92.168074,84.960536 C 92.493655,84.57894 92.656446,84.073061 92.656446,83.442899 L 92.656446,83.227593 L 91.695448,83.227593 M 93.622697,82.82849 L 93.622697,86.1841 L 92.656446,86.1841 L 92.656446,85.291371 C 92.435886,85.648459 92.161066,85.91278 91.831985,86.084324 C 91.502896,86.252368 91.100293,86.336382 90.624175,86.336382 C 90.02202,86.336382 89.542403,86.168346 89.185306,85.832257 C 88.831718,85.492668 88.654919,85.039304 88.654928,84.472156 C 88.654919,83.810495 88.875479,83.311615 89.316589,82.975526 C 89.761208,82.639446 90.422878,82.471401 91.301599,82.471393 L 92.656446,82.471393 L 92.656446,82.376871 C 92.656446,81.932261 92.509409,81.589172 92.215335,81.347605 C 91.924753,81.102555 91.51515,80.980017 90.986517,80.980017 C 90.650428,80.980017 90.323102,81.020278 90.004521,81.100792 C 89.685939,81.181323 89.379604,81.302098 89.08553,81.463135 L 89.08553,80.570414 C 89.439127,80.433877 89.782207,80.332355 90.114796,80.265833 C 90.447377,80.195818 90.771212,80.160811 91.086293,80.160803 C 91.937007,80.160811 92.572423,80.38137 92.992535,80.822472 C 93.412637,81.263591 93.622689,81.932261 93.622697,82.82849 M 100.50721,82.634192 L 100.50721,86.1841 L 99.540968,86.1841 L 99.540968,82.665699 C 99.540958,82.109059 99.432426,81.692448 99.215375,81.415874 C 98.998316,81.139308 98.672735,81.001025 98.238624,81.001017 C 97.716991,81.001025 97.305634,81.167315 97.00456,81.499896 C 96.703479,81.832485 96.552942,82.285849 96.552942,82.859997 L 96.552942,86.1841 L 95.581445,86.1841 L 95.581445,80.302594 L 96.552942,80.302594 L 96.552942,81.216322 C 96.784001,80.862742 97.055321,80.598422 97.366903,80.423369 C 97.681984,80.248333 98.044326,80.160811 98.453929,80.160803 C 99.129599,80.160811 99.640728,80.370862 99.987328,80.790965 C 100.33391,81.207576 100.5072,81.821985 100.50721,82.634192 M 106.67754,80.528399 L 106.67754,81.431627 C 106.40447,81.281099 106.12965,81.169069 105.85309,81.095547 C 105.58001,81.018533 105.30344,80.980017 105.02338,80.980017 C 104.39671,80.980017 103.91009,81.179569 103.5635,81.578664 C 103.21691,81.974276 103.04362,82.530916 103.04362,83.248592 C 103.04362,83.966285 103.21691,84.524671 103.5635,84.923775 C 103.91009,85.319378 104.39671,85.517176 105.02338,85.517176 C 105.30344,85.517176 105.58001,85.480415 105.85309,85.4069 C 106.12965,85.329878 106.40447,85.216103 106.67754,85.065557 L 106.67754,85.958286 C 106.40797,86.084324 106.1279,86.178846 105.83733,86.24186 C 105.55026,86.304875 105.24393,86.336382 104.91835,86.336382 C 104.03262,86.336382 103.32894,86.058062 102.80731,85.501422 C 102.28567,84.944782 102.02486,84.193836 102.02486,83.248592 C 102.02486,82.289357 102.28742,81.534911 102.81256,80.985263 C 103.34119,80.435631 104.06413,80.160811 104.98136,80.160803 C 105.27894,80.160811 105.56951,80.192318 105.85309,80.255333 C 106.13666,80.314848 106.41148,80.405878 106.67754,80.528399 M 110.64756,80.980017 C 110.12943,80.980017 109.71983,81.183069 109.41875,81.589172 C 109.11767,81.991776 108.96714,82.544916 108.96714,83.248592 C 108.96714,83.952278 109.11592,84.507172 109.4135,84.913275 C 109.71457,85.315878 110.12593,85.517176 110.64756,85.517176 C 111.16219,85.517176 111.57005,85.314124 111.87113,84.908021 C 112.1722,84.501918 112.32274,83.948778 112.32275,83.248592 C 112.32274,82.551924 112.1722,82.000529 111.87113,81.594426 C 111.57005,81.184823 111.16219,80.980017 110.64756,80.980017 M 110.64756,80.160803 C 111.48778,80.160811 112.14769,80.433877 112.62732,80.980017 C 113.10694,81.526158 113.34675,82.282349 113.34676,83.248592 C 113.34675,84.211344 113.10694,84.967536 112.62732,85.517176 C 112.14769,86.063316 111.48778,86.336382 110.64756,86.336382 C 109.80384,86.336382 109.14218,86.063316 108.66255,85.517176 C 108.18644,84.967536 107.94837,84.211344 107.94837,83.248592 C 107.94837,82.282349 108.18644,81.526158 108.66255,80.980017 C 109.14218,80.433877 109.80384,80.160811 110.64756,80.160803 M 115.87791,85.30187 L 115.87791,88.421168 L 114.9064,88.421168 L 114.9064,80.302594 L 115.87791,80.302594 L 115.87791,81.195323 C 116.08095,80.845234 116.33652,80.586168 116.6446,80.418123 C 116.95618,80.246579 117.32727,80.160811 117.75789,80.160803 C 118.47206,80.160811 119.05146,80.444385 119.49608,81.011525 C 119.94419,81.578673 120.16824,82.324365 120.16825,83.248592 C 120.16824,84.172837 119.94419,84.918521 119.49608,85.485669 C 119.05146,86.052817 118.47206,86.336382 117.75789,86.336382 C 117.32727,86.336382 116.95618,86.252368 116.6446,86.084324 C 116.33652,85.91278 116.08095,85.651959 115.87791,85.30187 M 119.16525,83.248592 C 119.16524,82.537916 119.0182,81.981276 118.72413,81.578664 C 118.43356,81.172569 118.0327,80.969518 117.52157,80.969509 C 117.01044,80.969518 116.60784,81.172569 116.31376,81.578664 C 116.02319,81.981276 115.8779,82.537916 115.87791,83.248592 C 115.8779,83.959277 116.02319,84.517671 116.31376,84.923775 C 116.60784,85.326378 117.01044,85.527676 117.52157,85.527676 C 118.0327,85.527676 118.43356,85.326378 118.72413,84.923775 C 119.0182,84.517671 119.16524,83.959277 119.16525,83.248592 M 126.65891,82.634192 L 126.65891,86.1841 L 125.69266,86.1841 L 125.69266,82.665699 C 125.69266,82.109059 125.58413,81.692448 125.36708,81.415874 C 125.15002,81.139308 124.82444,81.001025 124.39033,81.001017 C 123.8687,81.001025 123.45734,81.167315 123.15627,81.499896 C 122.85519,81.832485 122.70465,82.285849 122.70465,82.859997 L 122.70465,86.1841 L 121.73315,86.1841 L 121.73315,78.013003 L 122.70465,78.013003 L 122.70465,81.216322 C 122.93571,80.862742 123.20703,80.598422 123.51861,80.423369 C 123.83368,80.248333 124.19602,80.160811 124.60564,80.160803 C 125.28131,80.160811 125.79244,80.370862 126.13903,80.790965 C 126.48562,81.207576 126.65891,81.821985 126.65891,82.634192 M 130.87575,80.980017 C 130.3576,80.980017 129.948,81.183069 129.64693,81.589172 C 129.34585,81.991776 129.19531,82.544916 129.19531,83.248592 C 129.19531,83.952278 129.3441,84.507172 129.64167,84.913275 C 129.94275,85.315878 130.3541,85.517176 130.87575,85.517176 C 131.39037,85.517176 131.79823,85.314124 132.09931,84.908021 C 132.40037,84.501918 132.55092,83.948778 132.55092,83.248592 C 132.55092,82.551924 132.40037,82.000529 132.09931,81.594426 C 131.79823,81.184823 131.39037,80.980017 130.87575,80.980017 M 130.87575,80.160803 C 131.71595,80.160811 132.37588,80.433877 132.8555,80.980017 C 133.33512,81.526158 133.57492,82.282349 133.57493,83.248592 C 133.57492,84.211344 133.33512,84.967536 132.8555,85.517176 C 132.37588,86.063316 131.71595,86.336382 130.87575,86.336382 C 130.03202,86.336382 129.37035,86.063316 128.89074,85.517176 C 128.41461,84.967536 128.17655,84.211344 128.17655,83.248592 C 128.17655,82.282349 128.41461,81.526158 128.89074,80.980017 C 129.37035,80.433877 130.03202,80.160811 130.87575,80.160803 M 140.06034,82.634192 L 140.06034,86.1841 L 139.0941,86.1841 L 139.0941,82.665699 C 139.09409,82.109059 138.98556,81.692448 138.76851,81.415874 C 138.55145,81.139308 138.22587,81.001025 137.79175,81.001017 C 137.27012,81.001025 136.85876,81.167315 136.55769,81.499896 C 136.25661,81.832485 136.10607,82.285849 136.10607,82.859997 L 136.10607,86.1841 L 135.13458,86.1841 L 135.13458,80.302594 L 136.10607,80.302594 L 136.10607,81.216322 C 136.33713,80.862742 136.60845,80.598422 136.92003,80.423369 C 137.23511,80.248333 137.59746,80.160811 138.00706,80.160803 C 138.68273,80.160811 139.19386,80.370862 139.54046,80.790965 C 139.88704,81.207576 140.06033,81.821985 140.06034,82.634192 M 147.02888,83.00178 L 147.02888,83.474406 L 142.58624,83.474406 C 142.62825,84.139576 142.8278,84.647209 143.18489,84.997289 C 143.54549,85.343886 144.04611,85.517176 144.68678,85.517176 C 145.05787,85.517176 145.41671,85.471669 145.7633,85.380639 C 146.11339,85.289617 146.45998,85.153088 146.80307,84.971036 L 146.80307,85.884772 C 146.45648,86.031809 146.10113,86.143839 145.73705,86.220853 C 145.37295,86.297875 145.00361,86.336382 144.62901,86.336382 C 143.69077,86.336382 142.94683,86.063316 142.39719,85.517176 C 141.85105,84.971036 141.57798,84.232352 141.57798,83.301107 C 141.57798,82.338364 141.83705,81.575173 142.35518,81.011525 C 142.87682,80.444385 143.57874,80.160811 144.46097,80.160803 C 145.25217,80.160811 145.87708,80.416378 146.3357,80.927502 C 146.79781,81.435136 147.02887,82.126559 147.02888,83.00178 M 146.06263,82.718206 C 146.05562,82.189582 145.90684,81.767725 145.61626,81.452635 C 145.32919,81.137562 144.94759,80.980017 144.47148,80.980017 C 143.93234,80.980017 143.49997,81.132308 143.17439,81.436881 C 142.85231,81.741463 142.66676,82.17032 142.61775,82.72346 L 146.06263,82.718206"
       id="text2922" />
    <path
       style="font-size:12.81396866px;font-style:normal;font-variant:normal;font-weight:normal;font-stretch:normal;text-align:start;line-height:100%;writing-mode:lr-tb;text-anchor:start;fill:#000000;fill-opacity:1;stroke:none;stroke-width:1px;stroke-linecap:butt;stroke-linejoin:miter;stroke-opacity:1;font-family:Bitstream Vera Sans;-inkscape-font-specification:Bitstream Vera Sans"
       d="M 153.85723,79.215567 L 153.85723,82.161566 L 155.19107,82.161566 C 155.68469,82.161574 156.06629,82.033791 156.33586,81.778216 C 156.60542,81.522658 156.74021,81.15857 156.74022,80.685944 C 156.74021,80.216826 156.60542,79.854484 156.33586,79.598909 C 156.06629,79.34335 155.68469,79.215567 155.19107,79.215567 L 153.85723,79.215567 M 152.79646,78.343838 L 155.19107,78.343838 C 156.06979,78.343846 156.73321,78.543398 157.18133,78.942493 C 157.63294,79.338105 157.85875,79.919252 157.85875,80.685944 C 157.85875,81.459643 157.63294,82.044291 157.18133,82.439886 C 156.73321,82.835489 156.06979,83.033295 155.19107,83.033287 L 153.85723,83.033287 L 153.85723,86.1841 L 152.79646,86.1841 L 152.79646,78.343838 M 161.69223,86.73024 C 161.41916,87.430417 161.15309,87.887281 160.89403,88.100841 C 160.63496,88.314392 160.28837,88.421168 159.85426,88.421168 L 159.08231,88.421168 L 159.08231,87.612461 L 159.64946,87.612461 C 159.91553,87.612461 160.12208,87.549446 160.26912,87.423417 C 160.41615,87.29738 160.57894,86.999806 160.7575,86.530688 L 160.93079,86.089569 L 158.55193,80.302594 L 159.57594,80.302594 L 161.41391,84.902767 L 163.25188,80.302594 L 164.2759,80.302594 L 161.69223,86.73024 M 166.56548,78.632666 L 166.56548,80.302594 L 168.55574,80.302594 L 168.55574,81.053531 L 166.56548,81.053531 L 166.56548,84.246351 C 166.56548,84.725977 166.63025,85.03405 166.75978,85.170587 C 166.89281,85.307125 167.16063,85.375393 167.56324,85.375393 L 168.55574,85.375393 L 168.55574,86.1841 L 167.56324,86.1841 C 166.81755,86.1841 166.30291,86.045808 166.01934,85.769243 C 165.73577,85.489168 165.59398,84.981544 165.59398,84.246351 L 165.59398,81.053531 L 164.88505,81.053531 L 164.88505,80.302594 L 165.59398,80.302594 L 165.59398,78.632666 L 166.56548,78.632666 M 174.72081,82.634192 L 174.72081,86.1841 L 173.75457,86.1841 L 173.75457,82.665699 C 173.75456,82.109059 173.64604,81.692448 173.42899,81.415874 C 173.21193,81.139308 172.88634,81.001025 172.45224,81.001017 C 171.9306,81.001025 171.51925,81.167315 171.21818,81.499896 C 170.91709,81.832485 170.76656,82.285849 170.76656,82.859997 L 170.76656,86.1841 L 169.79506,86.1841 L 169.79506,78.013003 L 170.76656,78.013003 L 170.76656,81.216322 C 170.99762,80.862742 171.26893,80.598422 171.58052,80.423369 C 171.89559,80.248333 172.25793,80.160811 172.66754,80.160803 C 173.34321,80.160811 173.85434,80.370862 174.20094,80.790965 C 174.54752,81.207576 174.72081,81.821985 174.72081,82.634192 M 178.93765,80.980017 C 178.41951,80.980017 178.00991,81.183069 177.70884,81.589172 C 177.40776,81.991776 177.25722,82.544916 177.25722,83.248592 C 177.25722,83.952278 177.406,84.507172 177.70358,84.913275 C 178.00466,85.315878 178.41601,85.517176 178.93765,85.517176 C 179.45228,85.517176 179.86013,85.314124 180.16121,84.908021 C 180.46228,84.501918 180.61282,83.948778 180.61283,83.248592 C 180.61282,82.551924 180.46228,82.000529 180.16121,81.594426 C 179.86013,81.184823 179.45228,80.980017 178.93765,80.980017 M 178.93765,80.160803 C 179.77786,80.160811 180.43778,80.433877 180.9174,80.980017 C 181.39702,81.526158 181.63683,82.282349 181.63684,83.248592 C 181.63683,84.211344 181.39702,84.967536 180.9174,85.517176 C 180.43778,86.063316 179.77786,86.336382 178.93765,86.336382 C 178.09393,86.336382 177.43226,86.063316 176.95264,85.517176 C 176.47652,84.967536 176.23846,84.211344 176.23846,83.248592 C 176.23846,82.282349 176.47652,81.526158 176.95264,80.980017 C 177.43226,80.433877 178.09393,80.160811 178.93765,80.160803 M 188.12225,82.634192 L 188.12225,86.1841 L 187.156,86.1841 L 187.156,82.665699 C 187.156,82.109059 187.04747,81.692448 186.83041,81.415874 C 186.61336,81.139308 186.28777,81.001025 185.85366,81.001017 C 185.33203,81.001025 184.92067,81.167315 184.6196,81.499896 C 184.31852,81.832485 184.16798,82.285849 184.16798,82.859997 L 184.16798,86.1841 L 183.19648,86.1841 L 183.19648,80.302594 L 184.16798,80.302594 L 184.16798,81.216322 C 184.39904,80.862742 184.67036,80.598422 184.98194,80.423369 C 185.29702,80.248333 185.65937,80.160811 186.06897,80.160803 C 186.74464,80.160811 187.25577,80.370862 187.60236,80.790965 C 187.94895,81.207576 188.12224,81.821985 188.12225,82.634192"
       id="text2926" />
    <g
       inkscape:label="Calque 1"
       id="g2894"
       transform="matrix(0.5661867,0,0,0.5661867,-165.50836,-169.38465)"
       inkscape:export-filename="/home/dadafkas/projets/afpy/graphisme/logo_afpy_v3.png"
       inkscape:export-xdpi="432.78586"
       inkscape:export-ydpi="432.78586">
      <path
         sodipodi:type="arc"
         style="fill:#ffffff;fill-opacity:1;stroke:none;stroke-width:7.5;stroke-linecap:butt;stroke-linejoin:round;stroke-miterlimit:4;stroke-dasharray:none;stroke-opacity:1"
         id="path2896"
         sodipodi:cx="484.45236"
         sodipodi:cy="538.11047"
         sodipodi:rx="31.927879"
         sodipodi:ry="31.927879"
         d="M 465.43372,563.75576 A 31.927879,31.927879 0 1 1 465.43721,563.75835"
         sodipodi:start="2.2089023"
         sodipodi:end="8.4919515"
         sodipodi:open="true"
         transform="matrix(1.5467086,0,0,1.5467086,-377.48997,-454.38896)" />
      <path
         style="fill:#ff6f32;fill-opacity:1;stroke:none;stroke-width:6.79567623;stroke-linecap:butt;stroke-linejoin:round;stroke-miterlimit:4;stroke-opacity:1"
         d="M 371.96419,377.46401 L 338.11538,420.32924 C 356.95696,435.25894 382.47099,436.19353 402.34388,422.66685 L 371.96419,377.46401 z"
         id="path2898"
         sodipodi:nodetypes="cccc" />
      <path
         style="fill:#84326b;fill-opacity:1;stroke:none;stroke-width:6.79567623;stroke-linecap:butt;stroke-linejoin:round;stroke-miterlimit:4;stroke-opacity:1"
         d="M 371.96419,377.46401 L 401.63888,423.14921 C 421.97163,409.77844 430.804,385.40307 423.75338,362.11173 L 371.96419,377.46401 z"
         id="path2900"
         sodipodi:nodetypes="cccc" />
      <path
         style="fill:#32ada9;fill-opacity:1;stroke:none;stroke-width:6.79567623;stroke-linecap:butt;stroke-linejoin:round;stroke-miterlimit:4;stroke-opacity:1"
         d="M 371.96419,377.46401 L 424.05021,363.07646 C 417.4039,339.53324 396.60349,323.70552 372.14053,323.55979 L 371.96419,377.46401 z"
         id="path2902"
         sodipodi:nodetypes="cccc" />
      <path
         style="fill:#ebff32;fill-opacity:1;stroke:none;stroke-width:6.79567623;stroke-linecap:butt;stroke-linejoin:round;stroke-miterlimit:4;stroke-dasharray:none;stroke-opacity:1"
         d="M 371.96419,377.46401 L 373.4763,323.5969 C 349.05547,322.85854 327.71557,337.86461 320.19374,361.1099 L 371.96419,377.46401 z"
         id="path2904"
         sodipodi:nodetypes="cccc" />
      <path
         style="fill:#327bd6;fill-opacity:1;stroke:none;stroke-width:6.79567623;stroke-linecap:butt;stroke-linejoin:round;stroke-miterlimit:4;stroke-opacity:1"
         d="M 371.96419,377.46401 L 320.45347,360.40491 C 312.79361,383.01995 320.34671,407.1823 339.52537,421.40528 L 371.96419,377.46401 z"
         id="path2906"
         sodipodi:nodetypes="cccc" />
      <path
         style="fill:#ffffff;fill-opacity:1"
         d="M 366.89769,331.21685 C 358.95058,331.25855 347.92977,333.50909 346.67894,342.96685 C 346.03621,346.08463 346.83826,349.92642 346.21019,352.6231 C 336.75356,351.6096 326.20576,357.41178 324.92894,367.40435 C 322.30195,378.61864 322.93523,393.14594 332.89769,400.4981 C 336.79713,403.15896 342.56499,402.04832 346.17894,402.9356 C 345.1705,410.9603 348.66407,420.09168 357.24144,422.1231 C 369.36912,426.73056 385.18333,426.07901 394.64769,416.40435 C 397.93342,412.60098 396.67427,406.34868 397.58519,402.6231 C 405.187,403.58831 414.59037,401.10012 416.83519,392.90435 C 422.07054,381.06736 421.33528,365.16673 412.11644,355.52935 C 408.02035,352.01873 401.40392,353.26897 397.30394,352.40435 C 398.38106,344.31383 394.86464,334.8998 386.27269,332.7481 C 380.09626,330.72753 373.32513,330.95009 366.89769,331.21685 z"
         id="path2908" />
      <g
         transform="matrix(0.7960788,0,0,0.7636835,323.11888,330.11106)"
         id="g2910">
        <path
           d="M 60.510156,6.3979729 C 55.926503,6.4192712 51.549217,6.8101906 47.697656,7.4917229 C 36.35144,9.4962267 34.291407,13.691825 34.291406,21.429223 L 34.291406,31.647973 L 61.103906,31.647973 L 61.103906,35.054223 L 34.291406,35.054223 L 24.228906,35.054223 C 16.436447,35.054223 9.6131468,39.73794 7.4789058,48.647973 C 5.0170858,58.860939 4.9078907,65.233996 7.4789058,75.897973 C 9.3848341,83.835825 13.936449,89.491721 21.728906,89.491723 L 30.947656,89.491723 L 30.947656,77.241723 C 30.947656,68.391821 38.6048,60.585475 47.697656,60.585473 L 74.478906,60.585473 C 81.933857,60.585473 87.885159,54.447309 87.885156,46.960473 L 87.885156,21.429223 C 87.885156,14.162884 81.755176,8.7044455 74.478906,7.4917229 C 69.872919,6.7249976 65.093809,6.3766746 60.510156,6.3979729 z M 46.010156,14.616723 C 48.779703,14.616723 51.041406,16.915369 51.041406,19.741723 C 51.041404,22.558059 48.779703,24.835473 46.010156,24.835473 C 43.23068,24.835472 40.978906,22.558058 40.978906,19.741723 C 40.978905,16.91537 43.23068,14.616723 46.010156,14.616723 z"
           style="fill:url(#linearGradient3449);fill-opacity:1"
           id="path2912" />
        <path
           d="M 91.228906,35.054223 L 91.228906,46.960473 C 91.228906,56.191228 83.403011,63.960472 74.478906,63.960473 L 47.697656,63.960473 C 40.361823,63.960473 34.291407,70.238956 34.291406,77.585473 L 34.291406,103.11672 C 34.291406,110.38306 40.609994,114.65704 47.697656,116.74172 C 56.184987,119.23733 64.323893,119.68835 74.478906,116.74172 C 81.229061,114.78733 87.885159,110.85411 87.885156,103.11672 L 87.885156,92.897973 L 61.103906,92.897973 L 61.103906,89.491723 L 87.885156,89.491723 L 101.29141,89.491723 C 109.08387,89.491723 111.98766,84.056315 114.69765,75.897973 C 117.49698,67.499087 117.37787,59.422197 114.69765,48.647973 C 112.77187,40.890532 109.09378,35.054223 101.29141,35.054223 L 91.228906,35.054223 z M 76.166406,99.710473 C 78.945884,99.710476 81.197656,101.98789 81.197656,104.80422 C 81.197654,107.63057 78.945881,109.92922 76.166406,109.92922 C 73.396856,109.92922 71.135156,107.63057 71.135156,104.80422 C 71.135158,101.98789 73.396853,99.710473 76.166406,99.710473 z"
           style="fill:url(#linearGradient3451);fill-opacity:1"
           id="path2914" />
      </g>
    </g>
    <path
       style="font-size:62px;font-style:normal;font-variant:normal;font-weight:normal;font-stretch:normal;text-align:start;line-height:125%;writing-mode:lr-tb;text-anchor:start;fill:#000000;fill-opacity:1;stroke:none;stroke-width:1px;stroke-linecap:butt;stroke-linejoin:miter;stroke-opacity:1;font-family:Bitstream Vera Sans;-inkscape-font-specification:Bitstream Vera Sans"
       d="M 92.805081,44.617975 C 89.027673,44.617992 86.410604,45.049937 84.953857,45.913811 C 83.497103,46.77771 82.768725,48.251402 82.768734,50.334878 C 82.768725,51.994911 83.31077,53.316144 84.394876,54.298602 C 85.495893,55.264132 86.986522,55.746889 88.866762,55.746889 C 91.458409,55.746889 93.533433,54.832187 95.091835,53.002775 C 96.667141,51.156426 97.454806,48.708753 97.454823,45.659722 L 97.454823,44.617975 L 92.805081,44.617975 M 102.13,42.686933 L 102.13,58.922948 L 97.454823,58.922948 L 97.454823,54.603503 C 96.387646,56.331284 95.057944,57.610175 93.465693,58.440183 C 91.873417,59.253254 89.925437,59.659793 87.621746,59.659793 C 84.708236,59.659793 82.3876,58.846722 80.659827,57.22058 C 78.948991,55.577501 78.093569,53.383901 78.093569,50.639787 C 78.093569,47.438331 79.160721,45.024523 81.295042,43.398373 C 83.446283,41.772248 86.647748,40.959177 90.899444,40.95916 L 97.454823,40.95916 L 97.454823,40.501801 C 97.454806,38.350576 96.743366,36.690552 95.320519,35.521744 C 93.914559,34.336041 91.932705,33.743177 89.374933,33.743151 C 87.748782,33.743177 86.164983,33.937978 84.623551,34.327547 C 83.082094,34.717166 81.599934,35.301562 80.17707,36.080734 L 80.17707,31.761289 C 81.887898,31.100702 83.547914,30.609469 85.157127,30.287598 C 86.766315,29.948848 88.333169,29.779461 89.857697,29.779427 C 93.973847,29.779461 97.048267,30.846613 99.080965,32.9809 C 101.11363,35.115229 102.12997,38.350576 102.13,42.686933 M 126.19181,19.387368 L 126.19181,23.274859 L 121.71993,23.274859 C 120.04295,23.274901 118.87417,23.613676 118.21355,24.2912 C 117.56986,24.968791 117.24803,26.188402 117.24803,27.950024 L 117.24803,30.465462 L 124.9468,30.465462 L 124.9468,34.098872 L 117.24803,34.098872 L 117.24803,58.922948 L 112.54747,58.922948 L 112.54747,34.098872 L 108.07558,34.098872 L 108.07558,30.465462 L 112.54747,30.465462 L 112.54747,28.4836 C 112.54746,25.316043 113.28431,23.012343 114.75801,21.572492 C 116.23168,20.115779 118.56927,19.387402 121.77074,19.387368 L 126.19181,19.387368 M 134.60202,54.654323 L 134.60202,69.746952 L 129.90145,69.746952 L 129.90145,30.465462 L 134.60202,30.465462 L 134.60202,34.784898 C 135.58447,33.091024 136.82102,31.83754 138.31166,31.024443 C 139.81921,30.194461 141.61474,29.779461 143.69825,29.779427 C 147.15378,29.779461 149.95718,31.151513 152.10846,33.895602 C 154.27662,36.639741 155.36071,40.247736 155.36074,44.719606 C 155.36071,49.191509 154.27662,52.799513 152.10846,55.543619 C 149.95718,58.287732 147.15378,59.659793 143.69825,59.659793 C 141.61474,59.659793 139.81921,59.253254 138.31166,58.440183 C 136.82102,57.610175 135.58447,56.348221 134.60202,54.654323 M 150.50772,44.719606 C 150.5077,41.281014 149.79626,38.58772 148.37341,36.639715 C 146.96746,34.674815 145.02794,33.692357 142.55487,33.692332 C 140.08176,33.692357 138.13378,34.674815 136.71093,36.639715 C 135.30498,38.58772 134.60201,41.281014 134.60202,44.719606 C 134.60201,48.158231 135.30498,50.859994 136.71093,52.824911 C 138.13378,54.772899 140.08176,55.746889 142.55487,55.746889 C 145.02794,55.746889 146.96746,54.772899 148.37341,52.824911 C 149.79626,50.859994 150.5077,48.158231 150.50772,44.719606 M 174.95067,61.565422 C 173.62941,64.953211 172.34205,67.163749 171.08859,68.197035 C 169.83508,69.230304 168.15813,69.746943 166.05771,69.746952 L 162.32266,69.746952 L 162.32266,65.834047 L 165.06677,65.834047 C 166.35413,65.834039 167.35353,65.529138 168.06498,64.919345 C 168.7764,64.309536 169.56407,62.869726 170.42796,60.599901 L 171.26644,58.465588 L 159.7564,30.465462 L 164.71105,30.465462 L 173.60402,52.72328 L 182.49699,30.465462 L 187.45164,30.465462 L 174.95067,61.565422"
       id="text2979"
       inkscape:export-filename="/home/dadafkas/projets/afpy/graphisme/logo_afpy_v3.png"
       inkscape:export-xdpi="432.78586"
       inkscape:export-ydpi="432.78586" />
    <text
       xml:space="preserve"
       style="font-size:14px;font-style:normal;font-weight:normal;line-height:125%;fill:#000000;fill-opacity:1;stroke:none;stroke-width:1px;stroke-linecap:butt;stroke-linejoin:miter;stroke-opacity:1;font-family:Bitstream Vera Sans"
       x="237.56329"
       y="86.527626"
       id="text3392"
       sodipodi:linespacing="125%"><tspan
         sodipodi:role="line"
         id="tspan3394"
         x="237.56329"
         y="86.527626"
         style="font-size:10px;font-style:normal;font-variant:normal;font-weight:normal;font-stretch:normal;text-align:start;line-height:125%;writing-mode:lr-tb;text-anchor:start;font-family:Bitstream Vera Sans;-inkscape-font-specification:Bitstream Vera Sans">http://afpy.org</tspan></text>
    <text
       xml:space="preserve"
       style="font-size:14px;font-style:normal;font-weight:normal;fill:#000000;fill-opacity:1;stroke:none;stroke-width:1px;stroke-linecap:butt;stroke-linejoin:miter;stroke-opacity:1;font-family:Bitstream Vera Sans"
       x="188.19092"
       y="124.69685"
       id="text3396"><tspan
         sodipodi:role="line"
         id="tspan3398"
         x="188.19092"
         y="124.69685" /></text>
    <text
       xml:space="preserve"
       style="font-size:14px;font-style:normal;font-weight:normal;fill:#ffffff;fill-opacity:1;stroke:none;stroke-width:1px;stroke-linecap:butt;stroke-linejoin:miter;stroke-opacity:1;font-family:Bitstream Vera Sans"
       x="99.64286"
       y="103.64172"
       id="text2430"><tspan
         sodipodi:role="line"
         id="tspan2432"
         x="99.64286"
         y="103.64172" /></text>
    <path
       style="opacity:1;fill:#ffffff;fill-opacity:1;stroke:none;stroke-width:0.17716534;stroke-linecap:round;stroke-linejoin:miter;stroke-miterlimit:4;stroke-opacity:1"
       d="M 80.206139,92.635565 L 322.19091,92.635565 L 322.19091,216.56414 L 160.48678,216.05906 L 80.206139,92.635565 z"
       id="rect3317"
       sodipodi:nodetypes="ccccc" />
    <text
       xml:space="preserve"
       style="font-size:14px;font-style:normal;font-weight:normal;fill:#000000;fill-opacity:1;stroke:none;stroke-width:1px;stroke-linecap:butt;stroke-linejoin:miter;stroke-opacity:1;font-family:Bitstream Vera Sans"
       x="94.37236"
       y="107.36615"
       id="text3204"><tspan
         sodipodi:role="line"
         id="tspan3206"
         x="94.37236"
         y="107.36615"
         style="fill:#000000;fill-opacity:1">%(prenom)s %(nom)s</tspan></text>
    <text
       xml:space="preserve"
       style="font-size:9px;font-style:normal;font-variant:normal;font-weight:normal;font-stretch:normal;text-align:start;line-height:100%;writing-mode:lr-tb;text-anchor:start;fill:#646464;fill-opacity:1;stroke:none;stroke-width:1px;stroke-linecap:butt;stroke-linejoin:miter;stroke-opacity:1;font-family:Bitstream Vera Sans;-inkscape-font-specification:Bitstream Vera Sans"
       x="108.71347"
       y="129.58044"
       id="text3208"
       sodipodi:linespacing="100%"><tspan
         sodipodi:role="line"
         id="tspan3210"
         x="108.71347"
         y="129.58044">email : %(email)s</tspan></text>
    <text
       xml:space="preserve"
       style="font-size:9px;font-style:normal;font-variant:normal;font-weight:normal;font-stretch:normal;text-align:start;line-height:100%;writing-mode:lr-tb;text-anchor:start;fill:#646464;fill-opacity:1;stroke:none;stroke-width:1px;stroke-linecap:butt;stroke-linejoin:miter;stroke-opacity:1;font-family:Bitstream Vera Sans;-inkscape-font-specification:Bitstream Vera Sans"
       x="118.0173"
       y="141.38998"
       id="text3212"
       sodipodi:linespacing="100%"><tspan
         sodipodi:role="line"
         id="tspan3214"
         x="118.0173"
         y="141.38998">jabber : %(jabber)s</tspan></text>
    <text
       xml:space="preserve"
       style="font-size:9px;font-style:normal;font-variant:normal;font-weight:normal;font-stretch:normal;text-align:start;line-height:100%;writing-mode:lr-tb;text-anchor:start;fill:#646464;fill-opacity:1;stroke:none;stroke-width:1px;stroke-linecap:butt;stroke-linejoin:miter;stroke-opacity:1;font-family:Bitstream Vera Sans;-inkscape-font-specification:Bitstream Vera Sans"
       x="125.07283"
       y="153.19951"
       id="text3216"
       sodipodi:linespacing="100%"><tspan
         sodipodi:role="line"
         id="tspan3218"
         x="125.07283"
         y="153.19951">irc #afpy / freenode.net : %(irc)s</tspan></text>
    <text
       xml:space="preserve"
       style="font-size:9px;font-style:normal;font-variant:normal;font-weight:normal;font-stretch:normal;text-align:start;line-height:100%;writing-mode:lr-tb;text-anchor:start;fill:#646464;fill-opacity:1;stroke:none;stroke-width:1px;stroke-linecap:butt;stroke-linejoin:miter;stroke-opacity:1;font-family:Bitstream Vera Sans;-inkscape-font-specification:Bitstream Vera Sans"
       x="132.39275"
       y="165.00903"
       id="text3220"
       sodipodi:linespacing="100%"><tspan
         sodipodi:role="line"
         id="tspan3222"
         x="132.39275"
         y="165.00903">blog : %(blog)s</tspan></text>
    <text
       xml:space="preserve"
       style="font-size:6px;font-style:normal;font-variant:normal;font-weight:normal;font-stretch:normal;text-align:start;line-height:125%;writing-mode:lr-tb;text-anchor:start;fill:#646464;fill-opacity:1;stroke:none;stroke-width:1px;stroke-linecap:butt;stroke-linejoin:miter;stroke-opacity:1;font-family:Bitstream Vera Sans;-inkscape-font-specification:Bitstream Vera Sans"
       x="139.22951"
       y="175.29474"
       id="text3224"
       sodipodi:linespacing="125%"><tspan
         sodipodi:role="line"
         id="tspan3226"
         x="139.22951"
         y="175.29474">tags : %(tags)s</tspan></text>
    <text
       sodipodi:linespacing="100%"
       id="text3228"
       y="120.48907"
       x="307.86066"
       style="font-size:9px;font-style:normal;font-variant:normal;font-weight:normal;font-stretch:normal;text-align:start;line-height:100%;writing-mode:lr-tb;text-anchor:start;fill:#646464;fill-opacity:1;stroke:none;stroke-width:1px;stroke-linecap:butt;stroke-linejoin:miter;stroke-opacity:1;font-family:Bitstream Vera Sans;-inkscape-font-specification:Bitstream Vera Sans"
       xml:space="preserve"><tspan
         y="120.48907"
         x="307.86066"
         id="tspan3230"
         sodipodi:role="line"
         style="text-align:end;text-anchor:end;fill:#646464;fill-opacity:1">%(role)s</tspan></text>
    <flowRoot
       xml:space="preserve"
       id="flowRoot3232"
       style="font-size:14px;font-style:normal;font-weight:normal;fill:#000000;fill-opacity:1;stroke:none;stroke-width:1px;stroke-linecap:butt;stroke-linejoin:miter;stroke-opacity:1;font-family:Bitstream Vera Sans"><flowRegion
         id="flowRegion3234"><rect
           id="rect3236"
           width="56.568542"
           height="15.404826"
           x="249.50768"
           y="113.61124" /></flowRegion><flowPara
         id="flowPara3238" /></flowRoot>    <text
       xml:space="preserve"
       style="font-size:14px;font-style:normal;font-weight:normal;fill:#000000;fill-opacity:1;stroke:none;stroke-width:1px;stroke-linecap:butt;stroke-linejoin:miter;stroke-opacity:1;font-family:Bitstream Vera Sans"
       x="264.28116"
       y="120.68231"
       id="text3240"><tspan
         sodipodi:role="line"
         id="tspan3242"
         x="264.28116"
         y="120.68231" /></text>
    <text
       xml:space="preserve"
       style="font-size:14px;font-style:normal;font-weight:normal;fill:#000000;fill-opacity:1;stroke:none;stroke-width:1px;stroke-linecap:butt;stroke-linejoin:miter;stroke-opacity:1;font-family:Bitstream Vera Sans"
       x="190.16122"
       y="114.87393"
       id="text3244"><tspan
         sodipodi:role="line"
         id="tspan3246"
         x="190.16122"
         y="114.87393" /></text>
    <g
       transform="matrix(0.1824275,0,0,0.1824275,212.52602,168.99575)"
       id="g3282"
       inkscape:label="Warstwa 1">
      <g
         id="g1894">
        <path
           style="opacity:1;fill:#646464;fill-opacity:1;fill-rule:nonzero;stroke:none;stroke-width:1;stroke-linecap:butt;stroke-linejoin:miter;marker:none;marker-start:none;marker-mid:none;marker-end:none;stroke-miterlimit:4;stroke-dasharray:none;stroke-dashoffset:0;stroke-opacity:1;visibility:visible;display:inline;overflow:visible"
           d="M 411.96875,93.96875 C 392.50446,93.96875 386.95088,113.95536 387.84375,121.8125 C 387.84375,126.27678 388.9159,151.12444 412.84375,150.9375 C 435.52232,150.75893 436.6327,126.47018 436.59375,122.1875 C 436.55473,118.07666 436.25446,93.968751 411.96875,93.96875 z M 412.3125,100.40625 C 414.5433,100.40625 427.3125,100.74108 427.3125,121.8125 C 427.31249,142.88392 418.74107,145.03125 412.3125,145.03125 C 405.88392,145.03124 397.5,141.66071 397.5,121.125 C 397.5,100.58929 409.90313,100.40625 412.3125,100.40625 z"
           id="path8605" />
        <path
           style="opacity:1;fill:#646464;fill-opacity:1;fill-rule:nonzero;stroke:none;stroke-width:1;stroke-linecap:butt;stroke-linejoin:miter;marker:none;marker-start:none;marker-mid:none;marker-end:none;stroke-miterlimit:4;stroke-dasharray:none;stroke-dashoffset:0;stroke-opacity:1;visibility:visible;display:inline;overflow:visible"
           d="M 210.34375,94.15625 C 195.34375,94.15625 186.78125,103.4375 186.78125,103.4375 L 186.78125,173.78125 L 196.0625,178.0625 L 196.0625,146.28125 C 196.0625,146.28125 202.50446,151.28124 213.21875,151.28125 C 223.93303,151.28125 233.9375,140.23214 233.9375,122.375 C 233.9375,104.51786 225.34374,94.156249 210.34375,94.15625 z M 209.28125,100.21875 C 216.78125,100.21875 224.09374,103.60268 224.09375,122.53125 C 224.09375,141.45982 215.8884,144.31249 209.28125,144.3125 C 202.67411,144.3125 196.25,139.31249 196.25,139.3125 L 196.0625,139.15625 L 196.0625,104.6875 C 196.0625,104.6875 201.78125,100.21875 209.28125,100.21875 z"
           id="path8593" />
        <path
           style="opacity:1;fill:#646464;fill-opacity:1;fill-rule:nonzero;stroke:none;stroke-width:1;stroke-linecap:butt;stroke-linejoin:miter;marker:none;marker-start:none;marker-mid:none;marker-end:none;stroke-miterlimit:4;stroke-dasharray:none;stroke-dashoffset:0;stroke-opacity:1;visibility:visible;display:inline;overflow:visible"
           d="M 280.35714,95.397895 L 289.46429,95.397895 L 289.46429,148.25504 C 289.46429,148.25504 290.53571,162.18361 283.57143,169.32647 C 276.60714,176.46932 259.82143,177.71932 259.82143,177.71932 L 258.57143,172.54076 C 258.57143,172.54076 280.89286,170.93361 280.89286,153.43361 L 280.89286,146.29075 C 280.89286,146.29075 270.53571,150.75504 261.60714,150.75504 C 252.67857,150.75504 243.75,145.04075 243.75,134.50504 C 243.75,123.96932 243.75,97.183609 243.75,97.183609 L 253.12798,94.670788 L 253.12798,132.71932 C 253.12798,132.71932 252.5,144.32647 265.53571,144.32647 C 278.57143,144.32647 280.71429,139.32647 280.71429,139.32647 L 280.35714,95.397895 z"
           id="path8597"
           sodipodi:nodetypes="cccsccccsscccscc" />
        <path
           style="opacity:1;fill:#646464;fill-opacity:1;fill-rule:nonzero;stroke:none;stroke-width:1;stroke-linecap:butt;stroke-linejoin:miter;marker:none;marker-start:none;marker-mid:none;marker-end:none;stroke-miterlimit:4;stroke-dasharray:none;stroke-dashoffset:0;stroke-opacity:1;visibility:visible;display:inline;overflow:visible"
           d="M 305.35714,80.576466 L 305.35714,80.576466 L 314.28571,77.719323 L 314.28571,95.397895 L 324.64286,95.397895 L 324.64286,101.29075 L 314.28571,101.29075 L 314.28571,136.64789 C 314.28571,136.64789 313.03571,145.39789 324.28571,145.39789 L 324.28571,150.75504 C 324.28571,150.75504 305.53571,150.93361 305.53571,138.25504 C 305.53571,125.57647 305.53571,101.11218 305.53571,101.11218 L 299.46429,101.11218 L 299.46429,95.397895 L 305.35714,95.397895 L 305.35714,80.576466 z"
           id="path8599" />
        <path
           style="opacity:1;fill:#646464;fill-opacity:1;fill-rule:nonzero;stroke:none;stroke-width:1;stroke-linecap:butt;stroke-linejoin:miter;marker:none;marker-start:none;marker-mid:none;marker-end:none;stroke-miterlimit:4;stroke-dasharray:none;stroke-dashoffset:0;stroke-opacity:1;visibility:visible;display:inline;overflow:visible"
           d="M 335.35714,66.112181 L 344.10714,63.612181 L 344.10714,101.46932 C 344.10714,101.46932 353.39286,95.040752 362.85714,95.040752 C 372.32143,95.040752 379.10714,103.43361 379.10714,109.14789 C 379.10714,114.86218 379.10714,149.86218 379.10714,149.86218 L 370.35714,149.86218 L 370.35714,113.43361 C 370.35714,113.43361 369.46429,100.93361 359.46429,100.93361 C 349.46429,100.93361 344.28572,107.89789 344.28572,107.89789 L 344.28572,150.04075 L 335.17857,150.04075 L 335.35714,66.112181 z"
           id="path8601" />
        <path
           style="opacity:1;fill:#646464;fill-opacity:1;fill-rule:nonzero;stroke:none;stroke-width:1;stroke-linecap:butt;stroke-linejoin:miter;marker:none;marker-start:none;marker-mid:none;marker-end:none;stroke-miterlimit:4;stroke-dasharray:none;stroke-dashoffset:0;stroke-opacity:1;visibility:visible;display:inline;overflow:visible"
           d="M 445.53572,149.86218 L 454.46429,149.86218 L 454.46429,104.32647 C 454.46429,104.32647 458.03572,99.862181 467.14286,99.862181 C 476.25,99.862181 479.82143,108.07647 479.82143,110.21932 C 479.82143,112.36218 479.82143,149.86218 479.82143,149.86218 L 489.10714,149.86218 L 489.10714,107.18361 C 489.10714,107.18361 487.85714,94.147895 470.71429,93.969323 C 453.57143,93.790752 445.35714,103.25504 445.35714,103.25504 L 445.53572,149.86218 z"
           id="path8609" />
        <path
           style="font-size:16px;font-style:normal;font-variant:normal;font-weight:normal;font-stretch:normal;text-align:start;line-height:125%;writing-mode:lr-tb;text-anchor:start;fill:#646464;fill-opacity:1;stroke:none;stroke-width:1px;stroke-linecap:butt;stroke-linejoin:miter;stroke-opacity:1;font-family:Arial"
           d="M 502.40616,88.171577 L 502.40616,78.070015 L 498.63272,78.070015 L 498.63272,76.718452 L 507.71085,76.718452 L 507.71085,78.070015 L 503.92178,78.070015 L 503.92178,88.171577 L 502.40616,88.171577 z M 509.22647,88.171577 L 509.22647,76.718452 L 511.50772,76.718452 L 514.21866,84.827827 C 514.46865,85.583038 514.65094,86.148142 514.76553,86.52314 C 514.89573,86.106475 515.09886,85.494497 515.37491,84.687202 L 518.1171,76.718452 L 520.15616,76.718452 L 520.15616,88.171577 L 518.69522,88.171577 L 518.69522,78.58564 L 515.3671,88.171577 L 513.99991,88.171577 L 510.68741,78.421577 L 510.68741,88.171577 L 509.22647,88.171577 z"
           id="text8611" />
        <path
           style="opacity:1;fill:url(#linearGradient9521);fill-opacity:1;fill-rule:nonzero;stroke:none;stroke-width:1;stroke-linecap:butt;stroke-linejoin:miter;marker:none;marker-start:none;marker-mid:none;marker-end:none;stroke-miterlimit:4;stroke-dasharray:none;stroke-dashoffset:0;stroke-opacity:1;visibility:visible;display:inline;overflow:visible"
           d="M 99.75,67.46875 C 71.718268,67.468752 73.46875,79.625 73.46875,79.625 L 73.5,92.21875 L 100.25,92.21875 L 100.25,96 L 62.875,96 C 62.875,96 44.9375,93.965724 44.9375,122.25 C 44.937498,150.53427 60.59375,149.53125 60.59375,149.53125 L 69.9375,149.53125 L 69.9375,136.40625 C 69.9375,136.40625 69.433848,120.75 85.34375,120.75 C 101.25365,120.75 111.875,120.75 111.875,120.75 C 111.875,120.75 126.78125,120.99096 126.78125,106.34375 C 126.78125,91.696544 126.78125,82.125 126.78125,82.125 C 126.78125,82.124998 129.04443,67.46875 99.75,67.46875 z M 85,75.9375 C 87.661429,75.937498 89.8125,78.088571 89.8125,80.75 C 89.812502,83.411429 87.661429,85.5625 85,85.5625 C 82.338571,85.562502 80.1875,83.411429 80.1875,80.75 C 80.187498,78.088571 82.338571,75.9375 85,75.9375 z"
           id="path8615" />
        <path
           id="path8620"
           d="M 100.5461,177.31485 C 128.57784,177.31485 126.82735,165.1586 126.82735,165.1586 L 126.7961,152.56485 L 100.0461,152.56485 L 100.0461,148.7836 L 137.4211,148.7836 C 137.4211,148.7836 155.3586,150.81787 155.3586,122.53359 C 155.35861,94.249323 139.70235,95.252343 139.70235,95.252343 L 130.3586,95.252343 L 130.3586,108.37734 C 130.3586,108.37734 130.86226,124.03359 114.95235,124.03359 C 99.042448,124.03359 88.421098,124.03359 88.421098,124.03359 C 88.421098,124.03359 73.514848,123.79263 73.514848,138.43985 C 73.514848,153.08705 73.514848,162.6586 73.514848,162.6586 C 73.514848,162.6586 71.251668,177.31485 100.5461,177.31485 z M 115.2961,168.8461 C 112.63467,168.8461 110.4836,166.69503 110.4836,164.0336 C 110.4836,161.37217 112.63467,159.2211 115.2961,159.2211 C 117.95753,159.2211 120.1086,161.37217 120.1086,164.0336 C 120.10861,166.69503 117.95753,168.8461 115.2961,168.8461 z"
           style="opacity:1;fill:url(#linearGradient11307);fill-opacity:1;fill-rule:nonzero;stroke:none;stroke-width:1;stroke-linecap:butt;stroke-linejoin:miter;marker:none;marker-start:none;marker-mid:none;marker-end:none;stroke-miterlimit:4;stroke-dasharray:none;stroke-dashoffset:0;stroke-opacity:1;visibility:visible;display:inline;overflow:visible" />
      </g>
    </g>
    <path
       style="fill:none;fill-opacity:1;fill-rule:evenodd;stroke:none;stroke-width:1px;stroke-linecap:butt;stroke-linejoin:miter;stroke-opacity:1"
       d="M 81.317279,91.387885 L 314.15745,91.387885"
       id="path3256" />
    <rect
       style="opacity:1;fill:none;fill-opacity:0.23291925;stroke:#000000;stroke-width:0.35433072;stroke-linecap:round;stroke-linejoin:miter;stroke-miterlimit:4;stroke-dasharray:none;stroke-opacity:1"
       id="rect3048"
       width="301.18109"
       height="194.8819"
       x="10.807087"
       y="10.45274" />
  </g>
</svg>
