<?xml version="1.0" encoding="UTF-8" standalone="no"?>
<!-- Created with Inkscape (http://www.inkscape.org/) -->
<svg
   xmlns:dc="http://purl.org/dc/elements/1.1/"
   xmlns:cc="http://creativecommons.org/ns#"
   xmlns:rdf="http://www.w3.org/1999/02/22-rdf-syntax-ns#"
   xmlns:svg="http://www.w3.org/2000/svg"
   xmlns="http://www.w3.org/2000/svg"
   xmlns:xlink="http://www.w3.org/1999/xlink"
   xmlns:sodipodi="http://sodipodi.sourceforge.net/DTD/sodipodi-0.dtd"
   xmlns:inkscape="http://www.inkscape.org/namespaces/inkscape"
   width="322.44095"
   height="216.14172"
   id="svg2422"
   sodipodi:version="0.32"
   inkscape:version="0.46"
   sodipodi:docname="gawel.svg"
   inkscape:output_extension="org.inkscape.output.svg.inkscape"
   version="1.0"
   inkscape:export-filename="/home/dadafkas/projets/afpy/hg/afpy_communication/cartes_visite/perso/gawel.png"
   inkscape:export-xdpi="300"
   inkscape:export-ydpi="300">
  <defs
     id="defs2424">
    <linearGradient
       id="linearGradient3642">
      <stop
         id="stop3644"
         offset="0"
         style="stop-color:#ffffff;stop-opacity:0;" />
      <stop
         style="stop-color:#ffffff;stop-opacity:0.80147058;"
         offset="0.5"
         id="stop3646" />
      <stop
         id="stop3648"
         offset="1"
         style="stop-color:#ffffff;stop-opacity:1;" />
    </linearGradient>
    <linearGradient
       id="linearGradient3630">
      <stop
         style="stop-color:#000000;stop-opacity:0.0882353;"
         offset="0"
         id="stop3632" />
      <stop
         style="stop-color:#000000;stop-opacity:0;"
         offset="1"
         id="stop3634" />
    </linearGradient>
    <linearGradient
       id="linearGradient3620">
      <stop
         id="stop3622"
         offset="0"
         style="stop-color:#ffffff;stop-opacity:0;" />
      <stop
         style="stop-color:#ffffff;stop-opacity:0.49803922;"
         offset="0.27544907"
         id="stop3624" />
      <stop
         id="stop3626"
         offset="1"
         style="stop-color:#ffffff;stop-opacity:1;" />
    </linearGradient>
    <linearGradient
       id="linearGradient3238">
      <stop
         style="stop-color:#ffffff;stop-opacity:0;"
         offset="0"
         id="stop3240" />
      <stop
         id="stop3618"
         offset="0.48214287"
         style="stop-color:#ffffff;stop-opacity:0.80147058;" />
      <stop
         style="stop-color:#ffffff;stop-opacity:1;"
         offset="1"
         id="stop3242" />
    </linearGradient>
    <inkscape:perspective
       sodipodi:type="inkscape:persp3d"
       inkscape:vp_x="0 : 108.07086 : 1"
       inkscape:vp_y="0 : 1000 : 0"
       inkscape:vp_z="322.44095 : 108.07086 : 1"
       inkscape:persp3d-origin="161.22047 : 72.047241 : 1"
       id="perspective83" />
    <linearGradient
       id="linearGradient4671-684">
      <stop
         id="stop3849"
         offset="0"
         style="stop-color: rgb(255, 212, 59); stop-opacity: 1;" />
      <stop
         id="stop3851"
         offset="1"
         style="stop-color: rgb(255, 232, 115); stop-opacity: 1;" />
    </linearGradient>
    <linearGradient
       id="linearGradient4689-47">
      <stop
         id="stop3843"
         offset="0"
         style="stop-color: rgb(90, 159, 212); stop-opacity: 1;" />
      <stop
         id="stop3845"
         offset="1"
         style="stop-color: rgb(48, 105, 152); stop-opacity: 1;" />
    </linearGradient>
    <linearGradient
       gradientUnits="userSpaceOnUse"
       y2="168.1012"
       x2="147.77737"
       y1="111.92053"
       x1="89.136749"
       id="linearGradient11307"
       xlink:href="#linearGradient11301"
       inkscape:collect="always" />
    <linearGradient
       gradientUnits="userSpaceOnUse"
       y2="131.85291"
       x2="110.14919"
       y1="77.070274"
       x1="55.549179"
       id="linearGradient9521"
       xlink:href="#linearGradient9515"
       inkscape:collect="always" />
    <linearGradient
       id="linearGradient9515"
       inkscape:collect="always">
      <stop
         id="stop9517"
         offset="0"
         style="stop-color:#387eb8;stop-opacity:1" />
      <stop
         id="stop9519"
         offset="1"
         style="stop-color:#366994;stop-opacity:1" />
    </linearGradient>
    <linearGradient
       id="linearGradient11301"
       inkscape:collect="always">
      <stop
         id="stop11303"
         offset="0"
         style="stop-color:#ffe052;stop-opacity:1" />
      <stop
         id="stop11305"
         offset="1"
         style="stop-color:#ffc331;stop-opacity:1" />
    </linearGradient>
    <radialGradient
       inkscape:collect="always"
       xlink:href="#linearGradient3238"
       id="radialGradient3254"
       cx="44.19416"
       cy="9.4496508"
       fx="44.19416"
       fy="9.4496508"
       r="160.36171"
       gradientTransform="matrix(1.4157621,0,0,0.7669356,-18.374255,34.895668)"
       gradientUnits="userSpaceOnUse" />
    <inkscape:perspective
       id="perspective2467"
       inkscape:persp3d-origin="372.04724 : 350.78739 : 1"
       inkscape:vp_z="744.09448 : 526.18109 : 1"
       inkscape:vp_y="0 : 1000 : 0"
       inkscape:vp_x="0 : 526.18109 : 1"
       sodipodi:type="inkscape:persp3d" />
    <linearGradient
       inkscape:collect="always"
       xlink:href="#linearGradient4689-47"
       id="linearGradient2834"
       gradientUnits="userSpaceOnUse"
       gradientTransform="matrix(0.562541,0,0,0.567972,-9.39975,-5.30532)"
       x1="26.648937"
       y1="20.603781"
       x2="135.66525"
       y2="114.39767" />
    <linearGradient
       inkscape:collect="always"
       xlink:href="#linearGradient4671-684"
       id="linearGradient2836"
       gradientUnits="userSpaceOnUse"
       gradientTransform="matrix(0.562541,0,0,0.567972,-9.39975,-5.30532)"
       x1="150.96111"
       y1="192.35176"
       x2="112.03144"
       y2="137.27299" />
    <linearGradient
       inkscape:collect="always"
       xlink:href="#linearGradient3238"
       id="linearGradient3616"
       x1="182.76854"
       y1="112.39172"
       x2="63.482845"
       y2="112.39172"
       gradientUnits="userSpaceOnUse" />
    <linearGradient
       inkscape:collect="always"
       xlink:href="#linearGradient3642"
       id="linearGradient3640"
       gradientUnits="userSpaceOnUse"
       x1="193.60971"
       y1="112.39172"
       x2="76.351234"
       y2="112.39172"
       gradientTransform="matrix(0.9784559,0,0,1.0024092,3.9230569,-1.1355035e-2)" />
  </defs>
  <sodipodi:namedview
     id="base"
     pagecolor="#ffffff"
     bordercolor="#666666"
     borderopacity="1.0"
     inkscape:pageopacity="0.0"
     inkscape:pageshadow="2"
     inkscape:zoom="1.979899"
     inkscape:cx="135.38497"
     inkscape:cy="53.67863"
     inkscape:document-units="mm"
     inkscape:current-layer="layer1"
     showgrid="false"
     inkscape:window-width="1473"
     inkscape:window-height="1086"
     inkscape:window-x="102"
     inkscape:window-y="49"
     units="mm"
     inkscape:snap-global="false" />
  <metadata
     id="metadata2427">
    <rdf:RDF>
      <cc:Work
         rdf:about="">
        <dc:format>image/svg+xml</dc:format>
        <dc:type
           rdf:resource="http://purl.org/dc/dcmitype/StillImage" />
      </cc:Work>
    </rdf:RDF>
  </metadata>
  <g
     inkscape:label="Calque 1"
     inkscape:groupmode="layer"
     id="layer1">
    <image
       y="4.3151102"
       x="0.0008238554"
       id="image2469"
       height="208.55022"
       width="322.2496"
       sodipodi:absref="/home/ccomb/Desktop/projets/afpy/SL2009/alain.jpg"
       xlink:href="/home/ccomb/Desktop/projets/afpy/SL2009/alain.jpg" />
    <rect
       style="opacity:1;fill:url(#linearGradient3640);fill-opacity:1;stroke:none;stroke-width:0.17716534;stroke-linecap:round;stroke-linejoin:miter;stroke-miterlimit:4;stroke-dasharray:none;stroke-opacity:1"
       id="rect2838"
       width="321.14322"
       height="210.14793"
       x="0.42857146"
       y="4.7131534" />
    <g
       id="g2817"
       transform="matrix(0.8567635,0,0,0.8567635,5.728942,3.8334907)">
      <path
         id="text2918"
         d="M 15.639574,78.421996 L 14.209879,82.298887 L 17.074499,82.298887 L 15.639574,78.421996 M 15.044738,77.383632 L 16.239631,77.383632 L 19.208618,85.173948 L 18.112855,85.173948 L 17.403227,83.175493 L 13.891583,83.175493 L 13.181956,85.173948 L 12.070539,85.173948 L 15.044738,77.383632 M 24.024726,79.502099 L 24.024726,80.410011 C 23.753389,80.270872 23.471628,80.166513 23.179426,80.096935 C 22.887224,80.027374 22.584581,79.992585 22.271514,79.992577 C 21.794944,79.992585 21.436655,80.065638 21.196632,80.211734 C 20.960084,80.35784 20.84181,80.576989 20.84181,80.869183 C 20.84181,81.091824 20.927041,81.267489 21.097494,81.396195 C 21.267939,81.521427 21.610583,81.641439 22.125418,81.756229 L 22.454138,81.829274 C 23.135942,81.975379 23.619462,82.182358 23.904715,82.450204 C 24.193434,82.714583 24.337793,83.08505 24.337802,83.561621 C 24.337793,84.104278 24.122119,84.533881 23.690778,84.850432 C 23.262911,85.16699 22.673287,85.325265 21.921913,85.325265 C 21.608837,85.325265 21.281855,85.293959 20.940957,85.231339 C 20.603525,85.172202 20.246974,85.081759 19.871287,84.96001 L 19.871287,83.968614 C 20.226101,84.152982 20.575702,84.292121 20.920083,84.386047 C 21.264465,84.47649 21.605363,84.521712 21.942786,84.521712 C 22.395,84.521712 22.742865,84.445184 22.986362,84.292121 C 23.22986,84.135584 23.351617,83.916434 23.351617,83.634665 C 23.351617,83.373777 23.262911,83.173755 23.085509,83.034608 C 22.911572,82.895469 22.52719,82.761542 21.932354,82.632835 L 21.598405,82.554562 C 21.003568,82.429339 20.573965,82.238012 20.309586,81.980599 C 20.045215,81.719703 19.913025,81.363152 19.913034,80.910929 C 19.913025,80.361314 20.107827,79.936931 20.497429,79.637763 C 20.887032,79.338612 21.44013,79.189032 22.156723,79.189023 C 22.511537,79.189032 22.845477,79.215117 23.158553,79.267296 C 23.471628,79.319476 23.760347,79.397749 24.024726,79.502099 M 29.597429,79.502099 L 29.597429,80.410011 C 29.3261,80.270872 29.044331,80.166513 28.752137,80.096935 C 28.459927,80.027374 28.157292,79.992585 27.844217,79.992577 C 27.367655,79.992585 27.009358,80.065638 26.769335,80.211734 C 26.532787,80.35784 26.414521,80.576989 26.414521,80.869183 C 26.414521,81.091824 26.499744,81.267489 26.670197,81.396195 C 26.840642,81.521427 27.183286,81.641439 27.69812,81.756229 L 28.026849,81.829274 C 28.708645,81.975379 29.192173,82.182358 29.477418,82.450204 C 29.766136,82.714583 29.910496,83.08505 29.910504,83.561621 C 29.910496,84.104278 29.69483,84.533881 29.263489,84.850432 C 28.835614,85.16699 28.245998,85.325265 27.494624,85.325265 C 27.181548,85.325265 26.854558,85.293959 26.513659,85.231339 C 26.176236,85.172202 25.819677,85.081759 25.443989,84.96001 L 25.443989,83.968614 C 25.798803,84.152982 26.148405,84.292121 26.492786,84.386047 C 26.837167,84.47649 27.178065,84.521712 27.515497,84.521712 C 27.967712,84.521712 28.315567,84.445184 28.559073,84.292121 C 28.802571,84.135584 28.924319,83.916434 28.924328,83.634665 C 28.924319,83.373777 28.835614,83.173755 28.658211,83.034608 C 28.484275,82.895469 28.099893,82.761542 27.505056,82.632835 L 27.171116,82.554562 C 26.576271,82.429339 26.146667,82.238012 25.882297,81.980599 C 25.617917,81.719703 25.485736,81.363152 25.485736,80.910929 C 25.485736,80.361314 25.680538,79.936931 26.07014,79.637763 C 26.459743,79.338612 27.012833,79.189032 27.729426,79.189023 C 28.08424,79.189032 28.418189,79.215117 28.731264,79.267296 C 29.044331,79.319476 29.333058,79.397749 29.597429,79.502099 M 33.70913,80.003018 C 33.194296,80.003018 32.787303,80.204777 32.488143,80.608295 C 32.188983,81.00833 32.039403,81.557953 32.039403,82.257148 C 32.039403,82.956343 32.187246,83.507704 32.482922,83.911214 C 32.782082,84.311257 33.190812,84.511271 33.70913,84.511271 C 34.220481,84.511271 34.625737,84.309512 34.924897,83.906002 C 35.224048,83.502484 35.373628,82.952869 35.373636,82.257148 C 35.373628,81.564911 35.224048,81.017034 34.924897,80.613507 C 34.625737,80.206522 34.220481,80.003018 33.70913,80.003018 M 33.70913,79.189023 C 34.543989,79.189032 35.1997,79.46036 35.676271,80.003018 C 36.152833,80.545683 36.391119,81.297057 36.391127,82.257148 C 36.391119,83.213756 36.152833,83.965139 35.676271,84.511271 C 35.1997,85.053936 34.543989,85.325265 33.70913,85.325265 C 32.870788,85.325265 32.213331,85.053936 31.736769,84.511271 C 31.263681,83.965139 31.027133,83.213756 31.027133,82.257148 C 31.027133,81.297057 31.263681,80.545683 31.736769,80.003018 C 32.213331,79.46036 32.870788,79.189032 33.70913,79.189023 M 42.182979,79.554278 L 42.182979,80.451757 C 41.911651,80.302177 41.638576,80.19087 41.363773,80.117809 C 41.092436,80.04129 40.817633,80.003018 40.539346,80.003018 C 39.916679,80.003018 39.43315,80.201302 39.088777,80.597854 C 38.744387,80.99094 38.572197,81.544038 38.572205,82.257148 C 38.572197,82.970259 38.744387,83.525094 39.088777,83.921655 C 39.43315,84.314732 39.916679,84.511271 40.539346,84.511271 C 40.817633,84.511271 41.092436,84.474744 41.363773,84.4017 C 41.638576,84.325173 41.911651,84.212111 42.182979,84.062531 L 42.182979,84.949578 C 41.915125,85.074801 41.636839,85.168727 41.34812,85.231339 C 41.062867,85.293959 40.758496,85.325265 40.434988,85.325265 C 39.554899,85.325265 38.855704,85.048716 38.337395,84.495618 C 37.819085,83.942528 37.559935,83.196366 37.559935,82.257148 C 37.559935,81.304015 37.820823,80.554378 38.342615,80.008238 C 38.867882,79.462098 39.586213,79.189032 40.497599,79.189023 C 40.793276,79.189032 41.082003,79.220338 41.363773,79.282949 C 41.645534,79.342086 41.9186,79.432529 42.182979,79.554278 M 43.863138,79.329908 L 44.823229,79.329908 L 44.823229,85.173948 L 43.863138,85.173948 L 43.863138,79.329908 M 43.863138,77.054912 L 44.823229,77.054912 L 44.823229,78.270679 L 43.863138,78.270679 L 43.863138,77.054912 M 49.482808,82.236275 C 48.707078,82.236275 48.169641,82.324981 47.870481,82.502383 C 47.571321,82.679794 47.421741,82.982437 47.421741,83.410295 C 47.421741,83.751201 47.533058,84.02253 47.75569,84.224289 C 47.981797,84.422574 48.287906,84.521712 48.674034,84.521712 C 49.206259,84.521712 49.632388,84.333868 49.952421,83.958173 C 50.275921,83.579011 50.437679,83.076355 50.437679,82.450204 L 50.437679,82.236275 L 49.482808,82.236275 M 51.39777,81.839715 L 51.39777,85.173948 L 50.437679,85.173948 L 50.437679,84.286901 C 50.218529,84.641723 49.945455,84.904356 49.618473,85.074801 C 49.291482,85.24178 48.891446,85.325265 48.418359,85.325265 C 47.820039,85.325265 47.343468,85.158295 46.988655,84.824346 C 46.637316,84.486923 46.46165,84.036446 46.46165,83.472915 C 46.46165,82.815459 46.6808,82.31976 47.119107,81.985811 C 47.56088,81.651871 48.218337,81.484901 49.091468,81.484901 L 50.437679,81.484901 L 50.437679,81.390975 C 50.437679,80.949201 50.291574,80.608295 49.99938,80.368272 C 49.710653,80.124775 49.30366,80.003018 48.778393,80.003018 C 48.444444,80.003018 48.119199,80.043027 47.802649,80.123029 C 47.48609,80.203039 47.181719,80.323051 46.889517,80.483063 L 46.889517,79.596025 C 47.240856,79.46036 47.581754,79.359485 47.912228,79.293382 C 48.242685,79.223821 48.564456,79.189032 48.877531,79.189023 C 49.722831,79.189032 50.354194,79.408181 50.771628,79.84648 C 51.189053,80.284787 51.39777,80.949201 51.39777,81.839715 M 54.330231,77.670622 L 54.330231,79.329908 L 56.307804,79.329908 L 56.307804,80.07607 L 54.330231,80.07607 L 54.330231,83.248545 C 54.330222,83.725116 54.39458,84.031225 54.523286,84.16689 C 54.655476,84.302562 54.921584,84.370394 55.321627,84.370386 L 56.307804,84.370386 L 56.307804,85.173948 L 55.321627,85.173948 C 54.580686,85.173948 54.069334,85.036538 53.787565,84.761734 C 53.505804,84.483448 53.364919,83.979046 53.364919,83.248545 L 53.364919,80.07607 L 52.660504,80.07607 L 52.660504,79.329908 L 53.364919,79.329908 L 53.364919,77.670622 L 54.330231,77.670622 M 57.575758,79.329908 L 58.535849,79.329908 L 58.535849,85.173948 L 57.575758,85.173948 L 57.575758,79.329908 M 57.575758,77.054912 L 58.535849,77.054912 L 58.535849,78.270679 L 57.575758,78.270679 L 57.575758,77.054912 M 62.80408,80.003018 C 62.289245,80.003018 61.882252,80.204777 61.583092,80.608295 C 61.283933,81.00833 61.134353,81.557953 61.134353,82.257148 C 61.134353,82.956343 61.282195,83.507704 61.57788,83.911214 C 61.877032,84.311257 62.28577,84.511271 62.80408,84.511271 C 63.315431,84.511271 63.720687,84.309512 64.019846,83.906002 C 64.319006,83.502484 64.468586,82.952869 64.468586,82.257148 C 64.468586,81.564911 64.319006,81.017034 64.019846,80.613507 C 63.720687,80.206522 63.315431,80.003018 62.80408,80.003018 M 62.80408,79.189023 C 63.638939,79.189032 64.29465,79.46036 64.771229,80.003018 C 65.247783,80.545683 65.486068,81.297057 65.486077,82.257148 C 65.486068,83.213756 65.247783,83.965139 64.771229,84.511271 C 64.29465,85.053936 63.638939,85.325265 62.80408,85.325265 C 61.965737,85.325265 61.308281,85.053936 60.831718,84.511271 C 60.358631,83.965139 60.122083,83.213756 60.122083,82.257148 C 60.122083,81.297057 60.358631,80.545683 60.831718,80.003018 C 61.308281,79.46036 61.965737,79.189032 62.80408,79.189023 M 71.930165,81.646651 L 71.930165,85.173948 L 70.970074,85.173948 L 70.970074,81.677956 C 70.970074,81.124867 70.862232,80.710916 70.646566,80.436104 C 70.430891,80.161301 70.107383,80.023891 69.676042,80.023891 C 69.157725,80.023891 68.748995,80.189124 68.449835,80.519589 C 68.150675,80.850055 68.001095,81.300532 68.001095,81.87102 L 68.001095,85.173948 L 67.035792,85.173948 L 67.035792,79.329908 L 68.001095,79.329908 L 68.001095,80.23782 C 68.230685,79.886489 68.500277,79.623856 68.809869,79.449919 C 69.122944,79.276 69.482978,79.189032 69.889971,79.189023 C 70.561335,79.189032 71.069212,79.397749 71.413601,79.815174 C 71.757974,80.229133 71.930165,80.839623 71.930165,81.646651"
         style="font-size:12.73233509px;font-style:normal;font-variant:normal;font-weight:normal;font-stretch:normal;text-align:start;line-height:100%;writing-mode:lr-tb;text-anchor:start;fill:#000000;fill-opacity:1;stroke:none;stroke-width:1px;stroke-linecap:butt;stroke-linejoin:miter;stroke-opacity:1;font-family:Bitstream Vera Sans;-inkscape-font-specification:Bitstream Vera Sans" />
      <path
         id="text2922"
         d="M 77.697778,77.333686 L 82.203429,77.333686 L 82.203429,78.226414 L 78.758551,78.226414 L 78.758551,80.537005 L 81.867349,80.537005 L 81.867349,81.429734 L 78.758551,81.429734 L 78.758551,85.173948 L 77.697778,85.173948 L 77.697778,77.333686 M 86.483275,80.19567 C 86.374746,80.132656 86.255716,80.087149 86.126187,80.059133 C 86.00015,80.027634 85.860113,80.011881 85.706076,80.011872 C 85.159936,80.011881 84.739833,80.190425 84.445759,80.547513 C 84.155177,80.90111 84.009895,81.410489 84.009895,82.07565 L 84.009895,85.173948 L 83.038397,85.173948 L 83.038397,79.292442 L 84.009895,79.292442 L 84.009895,80.20617 C 84.212946,79.84909 84.477258,79.58477 84.802848,79.413217 C 85.128429,79.238181 85.524032,79.150659 85.98965,79.150651 C 86.056165,79.150659 86.129687,79.155913 86.21021,79.166404 C 86.290723,79.173412 86.38,79.185666 86.47803,79.203166 L 86.483275,80.19567 M 90.18022,82.217441 C 89.399521,82.217441 88.858635,82.306717 88.557561,82.485253 C 88.256479,82.663806 88.105943,82.968379 88.105943,83.39899 C 88.105943,83.742078 88.217972,84.015153 88.442032,84.218204 C 88.669582,84.417756 88.977664,84.517524 89.366268,84.517524 C 89.9019,84.517524 90.330757,84.32848 90.652846,83.950384 C 90.978427,83.568788 91.141218,83.062909 91.141218,82.432747 L 91.141218,82.217441 L 90.18022,82.217441 M 92.107469,81.818338 L 92.107469,85.173948 L 91.141218,85.173948 L 91.141218,84.281219 C 90.920658,84.638307 90.645838,84.902628 90.316757,85.074172 C 89.987668,85.242216 89.585065,85.32623 89.108947,85.32623 C 88.506792,85.32623 88.027175,85.158194 87.670078,84.822105 C 87.31649,84.482516 87.139691,84.029152 87.1397,83.462004 C 87.139691,82.800343 87.360251,82.301463 87.801361,81.965374 C 88.24598,81.629294 88.90765,81.461249 89.786371,81.461241 L 91.141218,81.461241 L 91.141218,81.366719 C 91.141218,80.922109 90.994181,80.57902 90.700107,80.337453 C 90.409525,80.092403 89.999922,79.969865 89.471289,79.969865 C 89.1352,79.969865 88.807874,80.010126 88.489293,80.09064 C 88.170711,80.171171 87.864376,80.291946 87.570302,80.452983 L 87.570302,79.560262 C 87.923899,79.423725 88.266979,79.322203 88.599568,79.255681 C 88.932149,79.185666 89.255984,79.150659 89.571065,79.150651 C 90.421779,79.150659 91.057195,79.371218 91.477307,79.81232 C 91.897409,80.253439 92.107461,80.922109 92.107469,81.818338 M 98.99198,81.62404 L 98.99198,85.173948 L 98.02574,85.173948 L 98.02574,81.655547 C 98.02573,81.098907 97.917198,80.682296 97.700147,80.405722 C 97.483088,80.129156 97.157507,79.990873 96.723396,79.990865 C 96.201763,79.990873 95.790406,80.157163 95.489332,80.489744 C 95.188251,80.822333 95.037714,81.275697 95.037714,81.849845 L 95.037714,85.173948 L 94.066217,85.173948 L 94.066217,79.292442 L 95.037714,79.292442 L 95.037714,80.20617 C 95.268773,79.85259 95.540093,79.58827 95.851675,79.413217 C 96.166756,79.238181 96.529098,79.150659 96.938701,79.150651 C 97.614371,79.150659 98.1255,79.36071 98.4721,79.780813 C 98.81868,80.197424 98.99197,80.811833 98.99198,81.62404 M 105.1623,79.518247 L 105.1623,80.421475 C 104.88923,80.270947 104.61441,80.158917 104.33785,80.085395 C 104.06477,80.008381 103.7882,79.969865 103.50814,79.969865 C 102.88147,79.969865 102.39485,80.169417 102.04826,80.568512 C 101.70167,80.964124 101.52838,81.520764 101.52838,82.23844 C 101.52838,82.956133 101.70167,83.514519 102.04826,83.913623 C 102.39485,84.309226 102.88147,84.507024 103.50814,84.507024 C 103.7882,84.507024 104.06477,84.470263 104.33785,84.396748 C 104.61441,84.319726 104.88923,84.205951 105.1623,84.055405 L 105.1623,84.948134 C 104.89273,85.074172 104.61266,85.168694 104.32209,85.231708 C 104.03502,85.294723 103.72869,85.32623 103.40311,85.32623 C 102.51738,85.32623 101.8137,85.04791 101.29207,84.49127 C 100.77043,83.93463 100.50962,83.183684 100.50962,82.23844 C 100.50962,81.279205 100.77218,80.524759 101.29732,79.975111 C 101.82595,79.425479 102.54889,79.150659 103.46612,79.150651 C 103.7637,79.150659 104.05427,79.182166 104.33785,79.245181 C 104.62142,79.304696 104.89624,79.395726 105.1623,79.518247 M 109.13232,79.969865 C 108.61419,79.969865 108.20459,80.172917 107.90351,80.57902 C 107.60243,80.981624 107.4519,81.534764 107.4519,82.23844 C 107.4519,82.942126 107.60068,83.49702 107.89826,83.903123 C 108.19933,84.305726 108.61069,84.507024 109.13232,84.507024 C 109.64695,84.507024 110.05481,84.303972 110.35589,83.897869 C 110.65696,83.491766 110.8075,82.938626 110.80751,82.23844 C 110.8075,81.541772 110.65696,80.990377 110.35589,80.584274 C 110.05481,80.174671 109.64695,79.969865 109.13232,79.969865 M 109.13232,79.150651 C 109.97254,79.150659 110.63245,79.423725 111.11208,79.969865 C 111.5917,80.516006 111.83151,81.272197 111.83152,82.23844 C 111.83151,83.201192 111.5917,83.957384 111.11208,84.507024 C 110.63245,85.053164 109.97254,85.32623 109.13232,85.32623 C 108.2886,85.32623 107.62694,85.053164 107.14731,84.507024 C 106.6712,83.957384 106.43313,83.201192 106.43313,82.23844 C 106.43313,81.272197 106.6712,80.516006 107.14731,79.969865 C 107.62694,79.423725 108.2886,79.150659 109.13232,79.150651 M 114.36267,84.291718 L 114.36267,87.411016 L 113.39116,87.411016 L 113.39116,79.292442 L 114.36267,79.292442 L 114.36267,80.185171 C 114.56571,79.835082 114.82128,79.576016 115.12936,79.407971 C 115.44094,79.236427 115.81203,79.150659 116.24265,79.150651 C 116.95682,79.150659 117.53622,79.434233 117.98084,80.001373 C 118.42895,80.568521 118.653,81.314213 118.65301,82.23844 C 118.653,83.162685 118.42895,83.908369 117.98084,84.475517 C 117.53622,85.042665 116.95682,85.32623 116.24265,85.32623 C 115.81203,85.32623 115.44094,85.242216 115.12936,85.074172 C 114.82128,84.902628 114.56571,84.641807 114.36267,84.291718 M 117.65001,82.23844 C 117.65,81.527764 117.50296,80.971124 117.20889,80.568512 C 116.91832,80.162417 116.51746,79.959366 116.00633,79.959357 C 115.4952,79.959366 115.0926,80.162417 114.79852,80.568512 C 114.50795,80.971124 114.36266,81.527764 114.36267,82.23844 C 114.36266,82.949125 114.50795,83.507519 114.79852,83.913623 C 115.0926,84.316226 115.4952,84.517524 116.00633,84.517524 C 116.51746,84.517524 116.91832,84.316226 117.20889,83.913623 C 117.50296,83.507519 117.65,82.949125 117.65001,82.23844 M 125.14367,81.62404 L 125.14367,85.173948 L 124.17742,85.173948 L 124.17742,81.655547 C 124.17742,81.098907 124.06889,80.682296 123.85184,80.405722 C 123.63478,80.129156 123.3092,79.990873 122.87509,79.990865 C 122.35346,79.990873 121.9421,80.157163 121.64103,80.489744 C 121.33995,80.822333 121.18941,81.275697 121.18941,81.849845 L 121.18941,85.173948 L 120.21791,85.173948 L 120.21791,77.002851 L 121.18941,77.002851 L 121.18941,80.20617 C 121.42047,79.85259 121.69179,79.58827 122.00337,79.413217 C 122.31844,79.238181 122.68078,79.150659 123.0904,79.150651 C 123.76607,79.150659 124.2772,79.36071 124.62379,79.780813 C 124.97038,80.197424 125.14367,80.811833 125.14367,81.62404 M 129.36051,79.969865 C 128.84236,79.969865 128.43276,80.172917 128.13169,80.57902 C 127.83061,80.981624 127.68007,81.534764 127.68007,82.23844 C 127.68007,82.942126 127.82886,83.49702 128.12643,83.903123 C 128.42751,84.305726 128.83886,84.507024 129.36051,84.507024 C 129.87513,84.507024 130.28299,84.303972 130.58407,83.897869 C 130.88513,83.491766 131.03568,82.938626 131.03568,82.23844 C 131.03568,81.541772 130.88513,80.990377 130.58407,80.584274 C 130.28299,80.174671 129.87513,79.969865 129.36051,79.969865 M 129.36051,79.150651 C 130.20071,79.150659 130.86064,79.423725 131.34026,79.969865 C 131.81988,80.516006 132.05968,81.272197 132.05969,82.23844 C 132.05968,83.201192 131.81988,83.957384 131.34026,84.507024 C 130.86064,85.053164 130.20071,85.32623 129.36051,85.32623 C 128.51678,85.32623 127.85511,85.053164 127.3755,84.507024 C 126.89937,83.957384 126.66131,83.201192 126.66131,82.23844 C 126.66131,81.272197 126.89937,80.516006 127.3755,79.969865 C 127.85511,79.423725 128.51678,79.150659 129.36051,79.150651 M 138.5451,81.62404 L 138.5451,85.173948 L 137.57886,85.173948 L 137.57886,81.655547 C 137.57885,81.098907 137.47032,80.682296 137.25327,80.405722 C 137.03621,80.129156 136.71063,79.990873 136.27651,79.990865 C 135.75488,79.990873 135.34352,80.157163 135.04245,80.489744 C 134.74137,80.822333 134.59083,81.275697 134.59083,81.849845 L 134.59083,85.173948 L 133.61934,85.173948 L 133.61934,79.292442 L 134.59083,79.292442 L 134.59083,80.20617 C 134.82189,79.85259 135.09321,79.58827 135.40479,79.413217 C 135.71987,79.238181 136.08222,79.150659 136.49182,79.150651 C 137.16749,79.150659 137.67862,79.36071 138.02522,79.780813 C 138.3718,80.197424 138.54509,80.811833 138.5451,81.62404 M 145.51364,81.991628 L 145.51364,82.464254 L 141.071,82.464254 C 141.11301,83.129424 141.31256,83.637057 141.66965,83.987137 C 142.03025,84.333734 142.53087,84.507024 143.17154,84.507024 C 143.54263,84.507024 143.90147,84.461517 144.24806,84.370487 C 144.59815,84.279465 144.94474,84.142936 145.28783,83.960884 L 145.28783,84.87462 C 144.94124,85.021657 144.58589,85.133687 144.22181,85.210701 C 143.85771,85.287723 143.48837,85.32623 143.11377,85.32623 C 142.17553,85.32623 141.43159,85.053164 140.88195,84.507024 C 140.33581,83.960884 140.06274,83.2222 140.06274,82.290955 C 140.06274,81.328212 140.32181,80.565021 140.83994,80.001373 C 141.36158,79.434233 142.0635,79.150659 142.94573,79.150651 C 143.73693,79.150659 144.36184,79.406226 144.82046,79.91735 C 145.28257,80.424984 145.51363,81.116407 145.51364,81.991628 M 144.54739,81.708054 C 144.54038,81.17943 144.3916,80.757573 144.10102,80.442483 C 143.81395,80.12741 143.43235,79.969865 142.95624,79.969865 C 142.4171,79.969865 141.98473,80.122156 141.65915,80.426729 C 141.33707,80.731311 141.15152,81.160168 141.10251,81.713308 L 144.54739,81.708054"
         style="font-size:12.81396866px;font-style:normal;font-variant:normal;font-weight:normal;font-stretch:normal;text-align:start;line-height:100%;writing-mode:lr-tb;text-anchor:start;fill:#000000;fill-opacity:1;stroke:none;stroke-width:1px;stroke-linecap:butt;stroke-linejoin:miter;stroke-opacity:1;font-family:Bitstream Vera Sans;-inkscape-font-specification:Bitstream Vera Sans" />
      <path
         id="text2926"
         d="M 152.34199,78.205415 L 152.34199,81.151414 L 153.67583,81.151414 C 154.16945,81.151422 154.55105,81.023639 154.82062,80.768064 C 155.09018,80.512506 155.22497,80.148418 155.22498,79.675792 C 155.22497,79.206674 155.09018,78.844332 154.82062,78.588757 C 154.55105,78.333198 154.16945,78.205415 153.67583,78.205415 L 152.34199,78.205415 M 151.28122,77.333686 L 153.67583,77.333686 C 154.55455,77.333694 155.21797,77.533246 155.66609,77.932341 C 156.1177,78.327953 156.34351,78.9091 156.34351,79.675792 C 156.34351,80.449491 156.1177,81.034139 155.66609,81.429734 C 155.21797,81.825337 154.55455,82.023143 153.67583,82.023135 L 152.34199,82.023135 L 152.34199,85.173948 L 151.28122,85.173948 L 151.28122,77.333686 M 160.17699,85.720088 C 159.90392,86.420265 159.63785,86.877129 159.37879,87.090689 C 159.11972,87.30424 158.77313,87.411016 158.33902,87.411016 L 157.56707,87.411016 L 157.56707,86.602309 L 158.13422,86.602309 C 158.40029,86.602309 158.60684,86.539294 158.75388,86.413265 C 158.90091,86.287228 159.0637,85.989654 159.24226,85.520536 L 159.41555,85.079417 L 157.03669,79.292442 L 158.0607,79.292442 L 159.89867,83.892615 L 161.73664,79.292442 L 162.76066,79.292442 L 160.17699,85.720088 M 165.05024,77.622514 L 165.05024,79.292442 L 167.0405,79.292442 L 167.0405,80.043379 L 165.05024,80.043379 L 165.05024,83.236199 C 165.05024,83.715825 165.11501,84.023898 165.24454,84.160435 C 165.37757,84.296973 165.64539,84.365241 166.048,84.365241 L 167.0405,84.365241 L 167.0405,85.173948 L 166.048,85.173948 C 165.30231,85.173948 164.78767,85.035656 164.5041,84.759091 C 164.22053,84.479016 164.07874,83.971392 164.07874,83.236199 L 164.07874,80.043379 L 163.36981,80.043379 L 163.36981,79.292442 L 164.07874,79.292442 L 164.07874,77.622514 L 165.05024,77.622514 M 173.20557,81.62404 L 173.20557,85.173948 L 172.23933,85.173948 L 172.23933,81.655547 C 172.23932,81.098907 172.1308,80.682296 171.91375,80.405722 C 171.69669,80.129156 171.3711,79.990873 170.937,79.990865 C 170.41536,79.990873 170.00401,80.157163 169.70294,80.489744 C 169.40185,80.822333 169.25132,81.275697 169.25132,81.849845 L 169.25132,85.173948 L 168.27982,85.173948 L 168.27982,77.002851 L 169.25132,77.002851 L 169.25132,80.20617 C 169.48238,79.85259 169.75369,79.58827 170.06528,79.413217 C 170.38035,79.238181 170.74269,79.150659 171.1523,79.150651 C 171.82797,79.150659 172.3391,79.36071 172.6857,79.780813 C 173.03228,80.197424 173.20557,80.811833 173.20557,81.62404 M 177.42241,79.969865 C 176.90427,79.969865 176.49467,80.172917 176.1936,80.57902 C 175.89252,80.981624 175.74198,81.534764 175.74198,82.23844 C 175.74198,82.942126 175.89076,83.49702 176.18834,83.903123 C 176.48942,84.305726 176.90077,84.507024 177.42241,84.507024 C 177.93704,84.507024 178.34489,84.303972 178.64597,83.897869 C 178.94704,83.491766 179.09758,82.938626 179.09759,82.23844 C 179.09758,81.541772 178.94704,80.990377 178.64597,80.584274 C 178.34489,80.174671 177.93704,79.969865 177.42241,79.969865 M 177.42241,79.150651 C 178.26262,79.150659 178.92254,79.423725 179.40216,79.969865 C 179.88178,80.516006 180.12159,81.272197 180.1216,82.23844 C 180.12159,83.201192 179.88178,83.957384 179.40216,84.507024 C 178.92254,85.053164 178.26262,85.32623 177.42241,85.32623 C 176.57869,85.32623 175.91702,85.053164 175.4374,84.507024 C 174.96128,83.957384 174.72322,83.201192 174.72322,82.23844 C 174.72322,81.272197 174.96128,80.516006 175.4374,79.969865 C 175.91702,79.423725 176.57869,79.150659 177.42241,79.150651 M 186.60701,81.62404 L 186.60701,85.173948 L 185.64076,85.173948 L 185.64076,81.655547 C 185.64076,81.098907 185.53223,80.682296 185.31517,80.405722 C 185.09812,80.129156 184.77253,79.990873 184.33842,79.990865 C 183.81679,79.990873 183.40543,80.157163 183.10436,80.489744 C 182.80328,80.822333 182.65274,81.275697 182.65274,81.849845 L 182.65274,85.173948 L 181.68124,85.173948 L 181.68124,79.292442 L 182.65274,79.292442 L 182.65274,80.20617 C 182.8838,79.85259 183.15512,79.58827 183.4667,79.413217 C 183.78178,79.238181 184.14413,79.150659 184.55373,79.150651 C 185.2294,79.150659 185.74053,79.36071 186.08712,79.780813 C 186.43371,80.197424 186.607,80.811833 186.60701,81.62404"
         style="font-size:12.81396866px;font-style:normal;font-variant:normal;font-weight:normal;font-stretch:normal;text-align:start;line-height:100%;writing-mode:lr-tb;text-anchor:start;fill:#000000;fill-opacity:1;stroke:none;stroke-width:1px;stroke-linecap:butt;stroke-linejoin:miter;stroke-opacity:1;font-family:Bitstream Vera Sans;-inkscape-font-specification:Bitstream Vera Sans" />
      <g
         inkscape:export-ydpi="432.78586"
         inkscape:export-xdpi="432.78586"
         inkscape:export-filename="/home/dadafkas/projets/afpy/graphisme/logo_afpy_v3.png"
         transform="matrix(0.5661867,0,0,0.5661867,-167.0236,-170.39481)"
         id="g2894"
         inkscape:label="Calque 1">
        <path
           transform="matrix(1.5467086,0,0,1.5467086,-377.48997,-454.38896)"
           sodipodi:open="true"
           sodipodi:end="8.4919515"
           sodipodi:start="2.2089023"
           d="M 465.43372,563.75576 A 31.927879,31.927879 0 1 1 465.43721,563.75835"
           sodipodi:ry="31.927879"
           sodipodi:rx="31.927879"
           sodipodi:cy="538.11047"
           sodipodi:cx="484.45236"
           id="path2896"
           style="fill:#ffffff;fill-opacity:1;stroke:none;stroke-width:7.5;stroke-linecap:butt;stroke-linejoin:round;stroke-miterlimit:4;stroke-dasharray:none;stroke-opacity:1"
           sodipodi:type="arc" />
        <path
           sodipodi:nodetypes="cccc"
           id="path2898"
           d="M 371.96419,377.46401 L 338.11538,420.32924 C 356.95696,435.25894 382.47099,436.19353 402.34388,422.66685 L 371.96419,377.46401 z"
           style="fill:#ff6f32;fill-opacity:1;stroke:none;stroke-width:6.79567623;stroke-linecap:butt;stroke-linejoin:round;stroke-miterlimit:4;stroke-opacity:1" />
        <path
           sodipodi:nodetypes="cccc"
           id="path2900"
           d="M 371.96419,377.46401 L 401.63888,423.14921 C 421.97163,409.77844 430.804,385.40307 423.75338,362.11173 L 371.96419,377.46401 z"
           style="fill:#84326b;fill-opacity:1;stroke:none;stroke-width:6.79567623;stroke-linecap:butt;stroke-linejoin:round;stroke-miterlimit:4;stroke-opacity:1" />
        <path
           sodipodi:nodetypes="cccc"
           id="path2902"
           d="M 371.96419,377.46401 L 424.05021,363.07646 C 417.4039,339.53324 396.60349,323.70552 372.14053,323.55979 L 371.96419,377.46401 z"
           style="fill:#32ada9;fill-opacity:1;stroke:none;stroke-width:6.79567623;stroke-linecap:butt;stroke-linejoin:round;stroke-miterlimit:4;stroke-opacity:1" />
        <path
           sodipodi:nodetypes="cccc"
           id="path2904"
           d="M 371.96419,377.46401 L 373.4763,323.5969 C 349.05547,322.85854 327.71557,337.86461 320.19374,361.1099 L 371.96419,377.46401 z"
           style="fill:#ebff32;fill-opacity:1;stroke:none;stroke-width:6.79567623;stroke-linecap:butt;stroke-linejoin:round;stroke-miterlimit:4;stroke-dasharray:none;stroke-opacity:1" />
        <path
           sodipodi:nodetypes="cccc"
           id="path2906"
           d="M 371.96419,377.46401 L 320.45347,360.40491 C 312.79361,383.01995 320.34671,407.1823 339.52537,421.40528 L 371.96419,377.46401 z"
           style="fill:#327bd6;fill-opacity:1;stroke:none;stroke-width:6.79567623;stroke-linecap:butt;stroke-linejoin:round;stroke-miterlimit:4;stroke-opacity:1" />
        <path
           id="path2908"
           d="M 366.89769,331.21685 C 358.95058,331.25855 347.92977,333.50909 346.67894,342.96685 C 346.03621,346.08463 346.83826,349.92642 346.21019,352.6231 C 336.75356,351.6096 326.20576,357.41178 324.92894,367.40435 C 322.30195,378.61864 322.93523,393.14594 332.89769,400.4981 C 336.79713,403.15896 342.56499,402.04832 346.17894,402.9356 C 345.1705,410.9603 348.66407,420.09168 357.24144,422.1231 C 369.36912,426.73056 385.18333,426.07901 394.64769,416.40435 C 397.93342,412.60098 396.67427,406.34868 397.58519,402.6231 C 405.187,403.58831 414.59037,401.10012 416.83519,392.90435 C 422.07054,381.06736 421.33528,365.16673 412.11644,355.52935 C 408.02035,352.01873 401.40392,353.26897 397.30394,352.40435 C 398.38106,344.31383 394.86464,334.8998 386.27269,332.7481 C 380.09626,330.72753 373.32513,330.95009 366.89769,331.21685 z"
           style="fill:#ffffff;fill-opacity:1" />
        <g
           id="g2910"
           transform="matrix(0.7960788,0,0,0.7636835,323.11888,330.11106)">
          <path
             id="path2912"
             style="fill:url(#linearGradient2834);fill-opacity:1"
             d="M 60.510156,6.3979729 C 55.926503,6.4192712 51.549217,6.8101906 47.697656,7.4917229 C 36.35144,9.4962267 34.291407,13.691825 34.291406,21.429223 L 34.291406,31.647973 L 61.103906,31.647973 L 61.103906,35.054223 L 34.291406,35.054223 L 24.228906,35.054223 C 16.436447,35.054223 9.6131468,39.73794 7.4789058,48.647973 C 5.0170858,58.860939 4.9078907,65.233996 7.4789058,75.897973 C 9.3848341,83.835825 13.936449,89.491721 21.728906,89.491723 L 30.947656,89.491723 L 30.947656,77.241723 C 30.947656,68.391821 38.6048,60.585475 47.697656,60.585473 L 74.478906,60.585473 C 81.933857,60.585473 87.885159,54.447309 87.885156,46.960473 L 87.885156,21.429223 C 87.885156,14.162884 81.755176,8.7044455 74.478906,7.4917229 C 69.872919,6.7249976 65.093809,6.3766746 60.510156,6.3979729 z M 46.010156,14.616723 C 48.779703,14.616723 51.041406,16.915369 51.041406,19.741723 C 51.041404,22.558059 48.779703,24.835473 46.010156,24.835473 C 43.23068,24.835472 40.978906,22.558058 40.978906,19.741723 C 40.978905,16.91537 43.23068,14.616723 46.010156,14.616723 z" />
          <path
             id="path2914"
             style="fill:url(#linearGradient2836);fill-opacity:1"
             d="M 91.228906,35.054223 L 91.228906,46.960473 C 91.228906,56.191228 83.403011,63.960472 74.478906,63.960473 L 47.697656,63.960473 C 40.361823,63.960473 34.291407,70.238956 34.291406,77.585473 L 34.291406,103.11672 C 34.291406,110.38306 40.609994,114.65704 47.697656,116.74172 C 56.184987,119.23733 64.323893,119.68835 74.478906,116.74172 C 81.229061,114.78733 87.885159,110.85411 87.885156,103.11672 L 87.885156,92.897973 L 61.103906,92.897973 L 61.103906,89.491723 L 87.885156,89.491723 L 101.29141,89.491723 C 109.08387,89.491723 111.98766,84.056315 114.69765,75.897973 C 117.49698,67.499087 117.37787,59.422197 114.69765,48.647973 C 112.77187,40.890532 109.09378,35.054223 101.29141,35.054223 L 91.228906,35.054223 z M 76.166406,99.710473 C 78.945884,99.710476 81.197656,101.98789 81.197656,104.80422 C 81.197654,107.63057 78.945881,109.92922 76.166406,109.92922 C 73.396856,109.92922 71.135156,107.63057 71.135156,104.80422 C 71.135158,101.98789 73.396853,99.710473 76.166406,99.710473 z" />
        </g>
      </g>
      <path
         inkscape:export-ydpi="432.78586"
         inkscape:export-xdpi="432.78586"
         inkscape:export-filename="/home/dadafkas/projets/afpy/graphisme/logo_afpy_v3.png"
         id="text2979"
         d="M 91.289853,43.607823 C 87.512445,43.60784 84.895376,44.039785 83.438629,44.903659 C 81.981875,45.767558 81.253497,47.24125 81.253506,49.324726 C 81.253497,50.984759 81.795542,52.305992 82.879648,53.28845 C 83.980665,54.25398 85.471294,54.736737 87.351534,54.736737 C 89.943181,54.736737 92.018205,53.822035 93.576607,51.992623 C 95.151913,50.146274 95.939578,47.698601 95.939595,44.64957 L 95.939595,43.607823 L 91.289853,43.607823 M 100.61476,41.676781 L 100.61476,57.912796 L 95.939595,57.912796 L 95.939595,53.593351 C 94.872418,55.321132 93.542716,56.600023 91.950465,57.430031 C 90.358189,58.243102 88.410209,58.649641 86.106518,58.649641 C 83.193008,58.649641 80.872372,57.83657 79.144599,56.210428 C 77.433763,54.567349 76.578341,52.373749 76.578341,49.629635 C 76.578341,46.428179 77.645493,44.014371 79.779814,42.388221 C 81.931055,40.762096 85.13252,39.949025 89.384216,39.949008 L 95.939595,39.949008 L 95.939595,39.491649 C 95.939578,37.340424 95.228138,35.6804 93.805291,34.511592 C 92.399331,33.325889 90.417477,32.733025 87.859705,32.732999 C 86.233554,32.733025 84.649755,32.927826 83.108323,33.317395 C 81.566866,33.707014 80.084706,34.29141 78.661842,35.070582 L 78.661842,30.751137 C 80.37267,30.09055 82.032686,29.599317 83.641899,29.277446 C 85.251087,28.938696 86.817941,28.769309 88.342469,28.769275 C 92.458619,28.769309 95.533039,29.836461 97.565737,31.970748 C 99.59839,34.105077 100.61473,37.340424 100.61476,41.676781 M 124.67657,18.377216 L 124.67657,22.264707 L 120.20469,22.264707 C 118.52771,22.264749 117.35893,22.603524 116.69831,23.281048 C 116.05462,23.958639 115.73279,25.17825 115.73279,26.939872 L 115.73279,29.45531 L 123.43156,29.45531 L 123.43156,33.08872 L 115.73279,33.08872 L 115.73279,57.912796 L 111.03223,57.912796 L 111.03223,33.08872 L 106.56034,33.08872 L 106.56034,29.45531 L 111.03223,29.45531 L 111.03223,27.473448 C 111.03222,24.305891 111.76907,22.002191 113.24277,20.56234 C 114.71644,19.105627 117.05403,18.37725 120.2555,18.377216 L 124.67657,18.377216 M 133.08678,53.644171 L 133.08678,68.7368 L 128.38621,68.7368 L 128.38621,29.45531 L 133.08678,29.45531 L 133.08678,33.774746 C 134.06923,32.080872 135.30578,30.827388 136.79642,30.014291 C 138.30397,29.184309 140.0995,28.769309 142.18301,28.769275 C 145.63854,28.769309 148.44194,30.141361 150.59322,32.88545 C 152.76138,35.629589 153.84547,39.237584 153.8455,43.709454 C 153.84547,48.181357 152.76138,51.789361 150.59322,54.533467 C 148.44194,57.27758 145.63854,58.649641 142.18301,58.649641 C 140.0995,58.649641 138.30397,58.243102 136.79642,57.430031 C 135.30578,56.600023 134.06923,55.338069 133.08678,53.644171 M 148.99248,43.709454 C 148.99246,40.270862 148.28102,37.577568 146.85817,35.629563 C 145.45222,33.664663 143.5127,32.682205 141.03963,32.68218 C 138.56652,32.682205 136.61854,33.664663 135.19569,35.629563 C 133.78974,37.577568 133.08677,40.270862 133.08678,43.709454 C 133.08677,47.148079 133.78974,49.849842 135.19569,51.814759 C 136.61854,53.762747 138.56652,54.736737 141.03963,54.736737 C 143.5127,54.736737 145.45222,53.762747 146.85817,51.814759 C 148.28102,49.849842 148.99246,47.148079 148.99248,43.709454 M 173.43543,60.55527 C 172.11417,63.943059 170.82681,66.153597 169.57335,67.186883 C 168.31984,68.220152 166.64289,68.736791 164.54247,68.7368 L 160.80742,68.7368 L 160.80742,64.823895 L 163.55153,64.823895 C 164.83889,64.823887 165.83829,64.518986 166.54974,63.909193 C 167.26116,63.299384 168.04883,61.859574 168.91272,59.589749 L 169.7512,57.455436 L 158.24116,29.45531 L 163.19581,29.45531 L 172.08878,51.713128 L 180.98175,29.45531 L 185.9364,29.45531 L 173.43543,60.55527"
         style="font-size:62px;font-style:normal;font-variant:normal;font-weight:normal;font-stretch:normal;text-align:start;line-height:125%;writing-mode:lr-tb;text-anchor:start;fill:#000000;fill-opacity:1;stroke:none;stroke-width:1px;stroke-linecap:butt;stroke-linejoin:miter;stroke-opacity:1;font-family:Bitstream Vera Sans;-inkscape-font-specification:Bitstream Vera Sans" />
    </g>
    <text
       xml:space="preserve"
       style="font-size:14px;font-style:normal;font-weight:normal;line-height:125%;fill:#ffffff;fill-opacity:1;stroke:none;stroke-width:1px;stroke-linecap:butt;stroke-linejoin:miter;stroke-opacity:1;font-family:Bitstream Vera Sans"
       x="235.50272"
       y="197.45367"
       id="text3392"
       sodipodi:linespacing="125%"><tspan
         sodipodi:role="line"
         id="tspan3394"
         x="235.50272"
         y="197.45367"
         style="font-size:10px;font-style:normal;font-variant:normal;font-weight:normal;font-stretch:normal;text-align:start;line-height:125%;writing-mode:lr-tb;text-anchor:start;fill:#ffffff;fill-opacity:1;font-family:Bitstream Vera Sans;-inkscape-font-specification:Bitstream Vera Sans">http://afpy.org</tspan></text>
    <text
       xml:space="preserve"
       style="font-size:14px;font-style:normal;font-weight:normal;fill:#000000;fill-opacity:1;stroke:none;stroke-width:1px;stroke-linecap:butt;stroke-linejoin:miter;stroke-opacity:1;font-family:Bitstream Vera Sans"
       x="188.19092"
       y="124.69685"
       id="text3396"><tspan
         sodipodi:role="line"
         id="tspan3398"
         x="188.19092"
         y="124.69685" /></text>
    <text
       xml:space="preserve"
       style="font-size:14px;font-style:normal;font-weight:normal;fill:#ffffff;fill-opacity:1;stroke:none;stroke-width:1px;stroke-linecap:butt;stroke-linejoin:miter;stroke-opacity:1;font-family:Bitstream Vera Sans"
       x="99.64286"
       y="103.64172"
       id="text2430"><tspan
         sodipodi:role="line"
         id="tspan2432"
         x="99.64286"
         y="103.64172" /></text>
    <text
       xml:space="preserve"
       style="font-size:12px;font-style:normal;font-variant:normal;font-weight:normal;font-stretch:normal;text-align:start;line-height:125%;writing-mode:lr-tb;text-anchor:start;fill:#000000;fill-opacity:1;stroke:none;stroke-width:1px;stroke-linecap:butt;stroke-linejoin:miter;stroke-opacity:1;font-family:Bitstream Vera Sans;-inkscape-font-specification:Bitstream Vera Sans"
       x="15.40843"
       y="105.5703"
       id="text3204"
       sodipodi:linespacing="125%"><tspan
         sodipodi:role="line"
         id="tspan3206"
         x="15.40843"
         y="105.5703"
         style="font-size:12px;font-style:normal;font-variant:normal;font-weight:normal;font-stretch:normal;text-align:start;line-height:125%;writing-mode:lr-tb;text-anchor:start;fill:#000000;fill-opacity:1;font-family:Bitstream Vera Sans;-inkscape-font-specification:Bitstream Vera Sans">Gaël Pasgrimaud</tspan></text>
    <text
       xml:space="preserve"
       style="font-size:9px;font-style:normal;font-variant:normal;font-weight:normal;font-stretch:normal;text-align:start;line-height:100%;writing-mode:lr-tb;text-anchor:start;fill:#000000;fill-opacity:1;stroke:none;stroke-width:1px;stroke-linecap:butt;stroke-linejoin:miter;stroke-opacity:1;font-family:Bitstream Vera Sans;-inkscape-font-specification:Bitstream Vera Sans"
       x="15.573957"
       y="129.78458"
       id="text3208"
       sodipodi:linespacing="100%"><tspan
         sodipodi:role="line"
         id="tspan3210"
         x="15.573957"
         y="129.78458">email : gawel@afpy.org</tspan></text>
    <text
       xml:space="preserve"
       style="font-size:9px;font-style:normal;font-variant:normal;font-weight:normal;font-stretch:normal;text-align:start;line-height:100%;writing-mode:lr-tb;text-anchor:start;fill:#000000;fill-opacity:1;stroke:none;stroke-width:1px;stroke-linecap:butt;stroke-linejoin:miter;stroke-opacity:1;font-family:Bitstream Vera Sans;-inkscape-font-specification:Bitstream Vera Sans"
       x="15.253157"
       y="141.65759"
       id="text3220"
       sodipodi:linespacing="100%"><tspan
         sodipodi:role="line"
         id="tspan3222"
         x="15.253157"
         y="141.65759">blog : http://www.gawel.org</tspan></text>
    <flowRoot
       xml:space="preserve"
       id="flowRoot3232"
       style="font-size:14px;font-style:normal;font-weight:normal;fill:#000000;fill-opacity:1;stroke:none;stroke-width:1px;stroke-linecap:butt;stroke-linejoin:miter;stroke-opacity:1;font-family:Bitstream Vera Sans"><flowRegion
         id="flowRegion3234"><rect
           id="rect3236"
           width="56.568542"
           height="15.404826"
           x="249.50768"
           y="113.61124" /></flowRegion><flowPara
         id="flowPara3238" /></flowRoot>    <text
       xml:space="preserve"
       style="font-size:14px;font-style:normal;font-weight:normal;fill:#000000;fill-opacity:1;stroke:none;stroke-width:1px;stroke-linecap:butt;stroke-linejoin:miter;stroke-opacity:1;font-family:Bitstream Vera Sans"
       x="264.28116"
       y="120.68231"
       id="text3240"><tspan
         sodipodi:role="line"
         id="tspan3242"
         x="264.28116"
         y="120.68231" /></text>
    <text
       xml:space="preserve"
       style="font-size:14px;font-style:normal;font-weight:normal;fill:#000000;fill-opacity:1;stroke:none;stroke-width:1px;stroke-linecap:butt;stroke-linejoin:miter;stroke-opacity:1;font-family:Bitstream Vera Sans"
       x="190.16122"
       y="114.87393"
       id="text3244"><tspan
         sodipodi:role="line"
         id="tspan3246"
         x="190.16122"
         y="114.87393" /></text>
    <g
       transform="matrix(0.173066,0,0,0.173066,8.2933859,170.1065)"
       id="g3282"
       inkscape:label="Warstwa 1">
      <g
         id="g1894">
        <path
           style="opacity:1;fill:#646464;fill-opacity:1;fill-rule:nonzero;stroke:none;stroke-width:1;stroke-linecap:butt;stroke-linejoin:miter;marker:none;marker-start:none;marker-mid:none;marker-end:none;stroke-miterlimit:4;stroke-dasharray:none;stroke-dashoffset:0;stroke-opacity:1;visibility:visible;display:inline;overflow:visible"
           d="M 411.96875,93.96875 C 392.50446,93.96875 386.95088,113.95536 387.84375,121.8125 C 387.84375,126.27678 388.9159,151.12444 412.84375,150.9375 C 435.52232,150.75893 436.6327,126.47018 436.59375,122.1875 C 436.55473,118.07666 436.25446,93.968751 411.96875,93.96875 z M 412.3125,100.40625 C 414.5433,100.40625 427.3125,100.74108 427.3125,121.8125 C 427.31249,142.88392 418.74107,145.03125 412.3125,145.03125 C 405.88392,145.03124 397.5,141.66071 397.5,121.125 C 397.5,100.58929 409.90313,100.40625 412.3125,100.40625 z"
           id="path8605" />
        <path
           style="opacity:1;fill:#646464;fill-opacity:1;fill-rule:nonzero;stroke:none;stroke-width:1;stroke-linecap:butt;stroke-linejoin:miter;marker:none;marker-start:none;marker-mid:none;marker-end:none;stroke-miterlimit:4;stroke-dasharray:none;stroke-dashoffset:0;stroke-opacity:1;visibility:visible;display:inline;overflow:visible"
           d="M 210.34375,94.15625 C 195.34375,94.15625 186.78125,103.4375 186.78125,103.4375 L 186.78125,173.78125 L 196.0625,178.0625 L 196.0625,146.28125 C 196.0625,146.28125 202.50446,151.28124 213.21875,151.28125 C 223.93303,151.28125 233.9375,140.23214 233.9375,122.375 C 233.9375,104.51786 225.34374,94.156249 210.34375,94.15625 z M 209.28125,100.21875 C 216.78125,100.21875 224.09374,103.60268 224.09375,122.53125 C 224.09375,141.45982 215.8884,144.31249 209.28125,144.3125 C 202.67411,144.3125 196.25,139.31249 196.25,139.3125 L 196.0625,139.15625 L 196.0625,104.6875 C 196.0625,104.6875 201.78125,100.21875 209.28125,100.21875 z"
           id="path8593" />
        <path
           style="opacity:1;fill:#646464;fill-opacity:1;fill-rule:nonzero;stroke:none;stroke-width:1;stroke-linecap:butt;stroke-linejoin:miter;marker:none;marker-start:none;marker-mid:none;marker-end:none;stroke-miterlimit:4;stroke-dasharray:none;stroke-dashoffset:0;stroke-opacity:1;visibility:visible;display:inline;overflow:visible"
           d="M 280.35714,95.397895 L 289.46429,95.397895 L 289.46429,148.25504 C 289.46429,148.25504 290.53571,162.18361 283.57143,169.32647 C 276.60714,176.46932 259.82143,177.71932 259.82143,177.71932 L 258.57143,172.54076 C 258.57143,172.54076 280.89286,170.93361 280.89286,153.43361 L 280.89286,146.29075 C 280.89286,146.29075 270.53571,150.75504 261.60714,150.75504 C 252.67857,150.75504 243.75,145.04075 243.75,134.50504 C 243.75,123.96932 243.75,97.183609 243.75,97.183609 L 253.12798,94.670788 L 253.12798,132.71932 C 253.12798,132.71932 252.5,144.32647 265.53571,144.32647 C 278.57143,144.32647 280.71429,139.32647 280.71429,139.32647 L 280.35714,95.397895 z"
           id="path8597"
           sodipodi:nodetypes="cccsccccsscccscc" />
        <path
           style="opacity:1;fill:#646464;fill-opacity:1;fill-rule:nonzero;stroke:none;stroke-width:1;stroke-linecap:butt;stroke-linejoin:miter;marker:none;marker-start:none;marker-mid:none;marker-end:none;stroke-miterlimit:4;stroke-dasharray:none;stroke-dashoffset:0;stroke-opacity:1;visibility:visible;display:inline;overflow:visible"
           d="M 305.35714,80.576466 L 305.35714,80.576466 L 314.28571,77.719323 L 314.28571,95.397895 L 324.64286,95.397895 L 324.64286,101.29075 L 314.28571,101.29075 L 314.28571,136.64789 C 314.28571,136.64789 313.03571,145.39789 324.28571,145.39789 L 324.28571,150.75504 C 324.28571,150.75504 305.53571,150.93361 305.53571,138.25504 C 305.53571,125.57647 305.53571,101.11218 305.53571,101.11218 L 299.46429,101.11218 L 299.46429,95.397895 L 305.35714,95.397895 L 305.35714,80.576466 z"
           id="path8599" />
        <path
           style="opacity:1;fill:#646464;fill-opacity:1;fill-rule:nonzero;stroke:none;stroke-width:1;stroke-linecap:butt;stroke-linejoin:miter;marker:none;marker-start:none;marker-mid:none;marker-end:none;stroke-miterlimit:4;stroke-dasharray:none;stroke-dashoffset:0;stroke-opacity:1;visibility:visible;display:inline;overflow:visible"
           d="M 335.35714,66.112181 L 344.10714,63.612181 L 344.10714,101.46932 C 344.10714,101.46932 353.39286,95.040752 362.85714,95.040752 C 372.32143,95.040752 379.10714,103.43361 379.10714,109.14789 C 379.10714,114.86218 379.10714,149.86218 379.10714,149.86218 L 370.35714,149.86218 L 370.35714,113.43361 C 370.35714,113.43361 369.46429,100.93361 359.46429,100.93361 C 349.46429,100.93361 344.28572,107.89789 344.28572,107.89789 L 344.28572,150.04075 L 335.17857,150.04075 L 335.35714,66.112181 z"
           id="path8601" />
        <path
           style="opacity:1;fill:#646464;fill-opacity:1;fill-rule:nonzero;stroke:none;stroke-width:1;stroke-linecap:butt;stroke-linejoin:miter;marker:none;marker-start:none;marker-mid:none;marker-end:none;stroke-miterlimit:4;stroke-dasharray:none;stroke-dashoffset:0;stroke-opacity:1;visibility:visible;display:inline;overflow:visible"
           d="M 445.53572,149.86218 L 454.46429,149.86218 L 454.46429,104.32647 C 454.46429,104.32647 458.03572,99.862181 467.14286,99.862181 C 476.25,99.862181 479.82143,108.07647 479.82143,110.21932 C 479.82143,112.36218 479.82143,149.86218 479.82143,149.86218 L 489.10714,149.86218 L 489.10714,107.18361 C 489.10714,107.18361 487.85714,94.147895 470.71429,93.969323 C 453.57143,93.790752 445.35714,103.25504 445.35714,103.25504 L 445.53572,149.86218 z"
           id="path8609" />
        <path
           style="font-size:16px;font-style:normal;font-variant:normal;font-weight:normal;font-stretch:normal;text-align:start;line-height:125%;writing-mode:lr-tb;text-anchor:start;fill:#646464;fill-opacity:1;stroke:none;stroke-width:1px;stroke-linecap:butt;stroke-linejoin:miter;stroke-opacity:1;font-family:Arial"
           d="M 502.40616,88.171577 L 502.40616,78.070015 L 498.63272,78.070015 L 498.63272,76.718452 L 507.71085,76.718452 L 507.71085,78.070015 L 503.92178,78.070015 L 503.92178,88.171577 L 502.40616,88.171577 z M 509.22647,88.171577 L 509.22647,76.718452 L 511.50772,76.718452 L 514.21866,84.827827 C 514.46865,85.583038 514.65094,86.148142 514.76553,86.52314 C 514.89573,86.106475 515.09886,85.494497 515.37491,84.687202 L 518.1171,76.718452 L 520.15616,76.718452 L 520.15616,88.171577 L 518.69522,88.171577 L 518.69522,78.58564 L 515.3671,88.171577 L 513.99991,88.171577 L 510.68741,78.421577 L 510.68741,88.171577 L 509.22647,88.171577 z"
           id="text8611" />
        <path
           style="opacity:1;fill:url(#linearGradient9521);fill-opacity:1;fill-rule:nonzero;stroke:none;stroke-width:1;stroke-linecap:butt;stroke-linejoin:miter;marker:none;marker-start:none;marker-mid:none;marker-end:none;stroke-miterlimit:4;stroke-dasharray:none;stroke-dashoffset:0;stroke-opacity:1;visibility:visible;display:inline;overflow:visible"
           d="M 99.75,67.46875 C 71.718268,67.468752 73.46875,79.625 73.46875,79.625 L 73.5,92.21875 L 100.25,92.21875 L 100.25,96 L 62.875,96 C 62.875,96 44.9375,93.965724 44.9375,122.25 C 44.937498,150.53427 60.59375,149.53125 60.59375,149.53125 L 69.9375,149.53125 L 69.9375,136.40625 C 69.9375,136.40625 69.433848,120.75 85.34375,120.75 C 101.25365,120.75 111.875,120.75 111.875,120.75 C 111.875,120.75 126.78125,120.99096 126.78125,106.34375 C 126.78125,91.696544 126.78125,82.125 126.78125,82.125 C 126.78125,82.124998 129.04443,67.46875 99.75,67.46875 z M 85,75.9375 C 87.661429,75.937498 89.8125,78.088571 89.8125,80.75 C 89.812502,83.411429 87.661429,85.5625 85,85.5625 C 82.338571,85.562502 80.1875,83.411429 80.1875,80.75 C 80.187498,78.088571 82.338571,75.9375 85,75.9375 z"
           id="path8615" />
        <path
           id="path8620"
           d="M 100.5461,177.31485 C 128.57784,177.31485 126.82735,165.1586 126.82735,165.1586 L 126.7961,152.56485 L 100.0461,152.56485 L 100.0461,148.7836 L 137.4211,148.7836 C 137.4211,148.7836 155.3586,150.81787 155.3586,122.53359 C 155.35861,94.249323 139.70235,95.252343 139.70235,95.252343 L 130.3586,95.252343 L 130.3586,108.37734 C 130.3586,108.37734 130.86226,124.03359 114.95235,124.03359 C 99.042448,124.03359 88.421098,124.03359 88.421098,124.03359 C 88.421098,124.03359 73.514848,123.79263 73.514848,138.43985 C 73.514848,153.08705 73.514848,162.6586 73.514848,162.6586 C 73.514848,162.6586 71.251668,177.31485 100.5461,177.31485 z M 115.2961,168.8461 C 112.63467,168.8461 110.4836,166.69503 110.4836,164.0336 C 110.4836,161.37217 112.63467,159.2211 115.2961,159.2211 C 117.95753,159.2211 120.1086,161.37217 120.1086,164.0336 C 120.10861,166.69503 117.95753,168.8461 115.2961,168.8461 z"
           style="opacity:1;fill:url(#linearGradient11307);fill-opacity:1;fill-rule:nonzero;stroke:none;stroke-width:1;stroke-linecap:butt;stroke-linejoin:miter;marker:none;marker-start:none;marker-mid:none;marker-end:none;stroke-miterlimit:4;stroke-dasharray:none;stroke-dashoffset:0;stroke-opacity:1;visibility:visible;display:inline;overflow:visible" />
      </g>
    </g>
    <path
       style="fill:none;fill-opacity:1;fill-rule:evenodd;stroke:none;stroke-width:1px;stroke-linecap:butt;stroke-linejoin:miter;stroke-opacity:1"
       d="M -3.4122342,83.592019 L 229.42792,83.592019"
       id="path3256" />
    <rect
       style="opacity:1;fill:none;fill-opacity:0.23291925;stroke:#000000;stroke-width:0.35433072;stroke-linecap:round;stroke-linejoin:miter;stroke-miterlimit:4;stroke-dasharray:none;stroke-opacity:1"
       id="rect3048"
       width="301.18109"
       height="194.8819"
       x="10.807087"
       y="10.45274" />
  </g>
</svg>
