<?xml version="1.0" encoding="UTF-8" standalone="no"?>
<!-- Created with Inkscape (http://www.inkscape.org/) -->
<svg
   xmlns:dc="http://purl.org/dc/elements/1.1/"
   xmlns:cc="http://creativecommons.org/ns#"
   xmlns:rdf="http://www.w3.org/1999/02/22-rdf-syntax-ns#"
   xmlns:svg="http://www.w3.org/2000/svg"
   xmlns="http://www.w3.org/2000/svg"
   xmlns:xlink="http://www.w3.org/1999/xlink"
   xmlns:sodipodi="http://sodipodi.sourceforge.net/DTD/sodipodi-0.dtd"
   xmlns:inkscape="http://www.inkscape.org/namespaces/inkscape"
   width="438.53528"
   height="103.59492"
   id="svg5295"
   sodipodi:version="0.32"
   inkscape:version="0.46"
   sodipodi:docname="pyconfr2009.svg"
   inkscape:output_extension="org.inkscape.output.svg.inkscape"
   version="1.0"
   inkscape:export-filename="/home/dadafkas/projets/AFPY/homepage/planche_texte.png"
   inkscape:export-xdpi="183.3037"
   inkscape:export-ydpi="183.3037">
  <defs
     id="defs5297">
    <inkscape:perspective
       sodipodi:type="inkscape:persp3d"
       inkscape:vp_x="0 : 51.797459 : 1"
       inkscape:vp_y="0 : 1000 : 0"
       inkscape:vp_z="438.53528 : 51.797459 : 1"
       inkscape:persp3d-origin="219.26764 : 34.531639 : 1"
       id="perspective49" />
    <linearGradient
       id="linearGradient4671-684">
      <stop
         id="stop3849"
         offset="0"
         style="stop-color: rgb(255, 212, 59); stop-opacity: 1;" />
      <stop
         id="stop3851"
         offset="1"
         style="stop-color: rgb(255, 232, 115); stop-opacity: 1;" />
    </linearGradient>
    <linearGradient
       id="linearGradient4689-47">
      <stop
         id="stop3843"
         offset="0"
         style="stop-color: rgb(90, 159, 212); stop-opacity: 1;" />
      <stop
         id="stop3845"
         offset="1"
         style="stop-color: rgb(48, 105, 152); stop-opacity: 1;" />
    </linearGradient>
    <linearGradient
       inkscape:collect="always"
       xlink:href="#linearGradient4689-47"
       id="linearGradient3706"
       gradientUnits="userSpaceOnUse"
       gradientTransform="matrix(0.562541,0,0,0.567972,-9.39975,-5.30532)"
       x1="26.648937"
       y1="20.603781"
       x2="135.66525"
       y2="114.39767" />
    <linearGradient
       inkscape:collect="always"
       xlink:href="#linearGradient4671-684"
       id="linearGradient3708"
       gradientUnits="userSpaceOnUse"
       gradientTransform="matrix(0.562541,0,0,0.567972,-9.39975,-5.30532)"
       x1="150.96111"
       y1="192.35176"
       x2="112.03144"
       y2="137.27299" />
  </defs>
  <sodipodi:namedview
     id="base"
     pagecolor="#ffffff"
     bordercolor="#666666"
     borderopacity="1.0"
     inkscape:pageopacity="0"
     inkscape:pageshadow="2"
     inkscape:zoom="2.8"
     inkscape:cx="106.40647"
     inkscape:cy="48.532926"
     inkscape:document-units="px"
     inkscape:current-layer="layer1"
     showgrid="false"
     inkscape:window-width="1440"
     inkscape:window-height="825"
     inkscape:window-x="0"
     inkscape:window-y="25" />
  <metadata
     id="metadata5300">
    <rdf:RDF>
      <cc:Work
         rdf:about="">
        <dc:format>image/svg+xml</dc:format>
        <dc:type
           rdf:resource="http://purl.org/dc/dcmitype/StillImage" />
        <dc:creator>
          <cc:Agent>
            <dc:title>ccomb</dc:title>
          </cc:Agent>
        </dc:creator>
      </cc:Work>
    </rdf:RDF>
  </metadata>
  <g
     inkscape:label="Calque 1"
     inkscape:groupmode="layer"
     id="layer1"
     transform="translate(-99.091309,-167.6526)">
    <g
       inkscape:label="Calque 1"
       id="g2894"
       transform="matrix(0.6745946,0,0,0.6745946,-109.00393,-38.014)"
       inkscape:export-filename="/home/dadafkas/projets/AFPY/homepage/afpy_logo.png"
       inkscape:export-xdpi="68.766876"
       inkscape:export-ydpi="68.766876">
      <path
         sodipodi:type="arc"
         style="fill:#ffffff;fill-opacity:1;stroke:none;stroke-width:7.5;stroke-linecap:butt;stroke-linejoin:round;stroke-miterlimit:4;stroke-dasharray:none;stroke-opacity:1"
         id="path2896"
         sodipodi:cx="484.45236"
         sodipodi:cy="538.11047"
         sodipodi:rx="31.927879"
         sodipodi:ry="31.927879"
         d="M 465.43372,563.75576 A 31.927879,31.927879 0 1 1 465.43721,563.75835"
         sodipodi:start="2.2089023"
         sodipodi:end="8.4919515"
         sodipodi:open="true"
         transform="matrix(1.5467086,0,0,1.5467086,-377.48997,-454.38896)" />
      <path
         style="fill:#ff6f32;fill-opacity:1;stroke:none;stroke-width:6.79567623;stroke-linecap:butt;stroke-linejoin:round;stroke-miterlimit:4;stroke-opacity:1"
         d="M 371.96419,377.46401 L 338.11538,420.32924 C 356.95696,435.25894 382.47099,436.19353 402.34388,422.66685 L 371.96419,377.46401 z"
         id="path2898"
         sodipodi:nodetypes="cccc" />
      <path
         style="fill:#84326b;fill-opacity:1;stroke:none;stroke-width:6.79567623;stroke-linecap:butt;stroke-linejoin:round;stroke-miterlimit:4;stroke-opacity:1"
         d="M 371.96419,377.46401 L 401.63888,423.14921 C 421.97163,409.77844 430.804,385.40307 423.75338,362.11173 L 371.96419,377.46401 z"
         id="path2900"
         sodipodi:nodetypes="cccc" />
      <path
         style="fill:#32ada9;fill-opacity:1;stroke:none;stroke-width:6.79567623;stroke-linecap:butt;stroke-linejoin:round;stroke-miterlimit:4;stroke-opacity:1"
         d="M 371.96419,377.46401 L 424.05021,363.07646 C 417.4039,339.53324 396.60349,323.70552 372.14053,323.55979 L 371.96419,377.46401 z"
         id="path2902"
         sodipodi:nodetypes="cccc" />
      <path
         style="fill:#ebff32;fill-opacity:1;stroke:none;stroke-width:6.79567623;stroke-linecap:butt;stroke-linejoin:round;stroke-miterlimit:4;stroke-dasharray:none;stroke-opacity:1"
         d="M 371.96419,377.46401 L 373.4763,323.5969 C 349.05547,322.85854 327.71557,337.86461 320.19374,361.1099 L 371.96419,377.46401 z"
         id="path2904"
         sodipodi:nodetypes="cccc" />
      <path
         style="fill:#327bd6;fill-opacity:1;stroke:none;stroke-width:6.79567623;stroke-linecap:butt;stroke-linejoin:round;stroke-miterlimit:4;stroke-opacity:1"
         d="M 371.96419,377.46401 L 320.45347,360.40491 C 312.79361,383.01995 320.34671,407.1823 339.52537,421.40528 L 371.96419,377.46401 z"
         id="path2906"
         sodipodi:nodetypes="cccc" />
      <path
         style="fill:#ffffff;fill-opacity:1"
         d="M 366.89769,331.21685 C 358.95058,331.25855 347.92977,333.50909 346.67894,342.96685 C 346.03621,346.08463 346.83826,349.92642 346.21019,352.6231 C 336.75356,351.6096 326.20576,357.41178 324.92894,367.40435 C 322.30195,378.61864 322.93523,393.14594 332.89769,400.4981 C 336.79713,403.15896 342.56499,402.04832 346.17894,402.9356 C 345.1705,410.9603 348.66407,420.09168 357.24144,422.1231 C 369.36912,426.73056 385.18333,426.07901 394.64769,416.40435 C 397.93342,412.60098 396.67427,406.34868 397.58519,402.6231 C 405.187,403.58831 414.59037,401.10012 416.83519,392.90435 C 422.07054,381.06736 421.33528,365.16673 412.11644,355.52935 C 408.02035,352.01873 401.40392,353.26897 397.30394,352.40435 C 398.38106,344.31383 394.86464,334.8998 386.27269,332.7481 C 380.09626,330.72753 373.32513,330.95009 366.89769,331.21685 z"
         id="path2908" />
      <g
         transform="matrix(0.7960788,0,0,0.7636835,323.11888,330.11106)"
         id="g2910">
        <path
           d="M 60.510156,6.3979729 C 55.926503,6.4192712 51.549217,6.8101906 47.697656,7.4917229 C 36.35144,9.4962267 34.291407,13.691825 34.291406,21.429223 L 34.291406,31.647973 L 61.103906,31.647973 L 61.103906,35.054223 L 34.291406,35.054223 L 24.228906,35.054223 C 16.436447,35.054223 9.6131468,39.73794 7.4789058,48.647973 C 5.0170858,58.860939 4.9078907,65.233996 7.4789058,75.897973 C 9.3848341,83.835825 13.936449,89.491721 21.728906,89.491723 L 30.947656,89.491723 L 30.947656,77.241723 C 30.947656,68.391821 38.6048,60.585475 47.697656,60.585473 L 74.478906,60.585473 C 81.933857,60.585473 87.885159,54.447309 87.885156,46.960473 L 87.885156,21.429223 C 87.885156,14.162884 81.755176,8.7044455 74.478906,7.4917229 C 69.872919,6.7249976 65.093809,6.3766746 60.510156,6.3979729 z M 46.010156,14.616723 C 48.779703,14.616723 51.041406,16.915369 51.041406,19.741723 C 51.041404,22.558059 48.779703,24.835473 46.010156,24.835473 C 43.23068,24.835472 40.978906,22.558058 40.978906,19.741723 C 40.978905,16.91537 43.23068,14.616723 46.010156,14.616723 z"
           style="fill:url(#linearGradient3706);fill-opacity:1"
           id="path2912" />
        <path
           d="M 91.228906,35.054223 L 91.228906,46.960473 C 91.228906,56.191228 83.403011,63.960472 74.478906,63.960473 L 47.697656,63.960473 C 40.361823,63.960473 34.291407,70.238956 34.291406,77.585473 L 34.291406,103.11672 C 34.291406,110.38306 40.609994,114.65704 47.697656,116.74172 C 56.184987,119.23733 64.323893,119.68835 74.478906,116.74172 C 81.229061,114.78733 87.885159,110.85411 87.885156,103.11672 L 87.885156,92.897973 L 61.103906,92.897973 L 61.103906,89.491723 L 87.885156,89.491723 L 101.29141,89.491723 C 109.08387,89.491723 111.98766,84.056315 114.69765,75.897973 C 117.49698,67.499087 117.37787,59.422197 114.69765,48.647973 C 112.77187,40.890532 109.09378,35.054223 101.29141,35.054223 L 91.228906,35.054223 z M 76.166406,99.710473 C 78.945884,99.710476 81.197656,101.98789 81.197656,104.80422 C 81.197654,107.63057 78.945881,109.92922 76.166406,109.92922 C 73.396856,109.92922 71.135156,107.63057 71.135156,104.80422 C 71.135158,101.98789 73.396853,99.710473 76.166406,99.710473 z"
           style="fill:url(#linearGradient3708);fill-opacity:1"
           id="path2914" />
      </g>
    </g>
    <flowRoot
       xml:space="preserve"
       id="flowRoot2421"
       style="font-size:32px;font-style:normal;font-weight:normal;fill:#000000;fill-opacity:1;stroke:none;stroke-width:1px;stroke-linecap:butt;stroke-linejoin:miter;stroke-opacity:1;font-family:Bitstream Vera Sans"
       transform="matrix(1.399737,0,0,1.399737,38.560158,167.68625)"><flowRegion
         id="flowRegion2423"><rect
           id="rect2425"
           width="311.42856"
           height="81.428574"
           x="106.78571"
           y="11.809203" /></flowRegion><flowPara
         id="flowPara2427">PyCon FR 2009</flowPara></flowRoot>  </g>
</svg>
