<?xml version="1.0" encoding="UTF-8" standalone="no"?>
<!-- Created with Inkscape (http://www.inkscape.org/) -->

<svg
   xmlns:dc="http://purl.org/dc/elements/1.1/"
   xmlns:cc="http://creativecommons.org/ns#"
   xmlns:rdf="http://www.w3.org/1999/02/22-rdf-syntax-ns#"
   xmlns:svg="http://www.w3.org/2000/svg"
   xmlns="http://www.w3.org/2000/svg"
   xmlns:sodipodi="http://sodipodi.sourceforge.net/DTD/sodipodi-0.dtd"
   xmlns:inkscape="http://www.inkscape.org/namespaces/inkscape"
   width="1488.189"
   height="1052.3622"
   id="svg3040"
   version="1.1"
   inkscape:version="0.48.3.1 r9886"
   sodipodi:docname="pyconfr2012.svg">
  <defs
     id="defs3042" />
  <sodipodi:namedview
     id="base"
     pagecolor="#ffffff"
     bordercolor="#666666"
     borderopacity="1.0"
     inkscape:pageopacity="0.0"
     inkscape:pageshadow="2"
     inkscape:zoom="0.7"
     inkscape:cx="762.17743"
     inkscape:cy="299.212"
     inkscape:document-units="px"
     inkscape:current-layer="layer1"
     showgrid="false"
     inkscape:window-width="1600"
     inkscape:window-height="900"
     inkscape:window-x="0"
     inkscape:window-y="0"
     inkscape:window-maximized="1" />
  <metadata
     id="metadata3045">
    <rdf:RDF>
      <cc:Work
         rdf:about="">
        <dc:format>image/svg+xml</dc:format>
        <dc:type
           rdf:resource="http://purl.org/dc/dcmitype/StillImage" />
        <dc:title></dc:title>
      </cc:Work>
    </rdf:RDF>
  </metadata>
  <g
     inkscape:label="Calque 1"
     inkscape:groupmode="layer"
     id="layer1"
     transform="translate(0,2.988066e-5)">
    <g
       id="g3801"
       transform="matrix(1.1538895,0,0,1.1538895,-99.771746,-11.806757)">
      <g
         transform="matrix(0.43866496,0,0,0.43866496,90.650437,17.012276)"
         id="g2985">
        <path
           sodipodi:nodetypes="sssccssccsccsssccsccsssccscccccccsccsccsssccsccsssccssccss"
           inkscape:connector-curvature="0"
           id="path3910"
           d="m 135.23882,38.626584 c -45.805273,0 -83.005035,24.233067 -83.005035,54.178479 0,29.945407 37.199762,54.178477 83.005035,54.178477 14.426,0 27.9487,-2.45738 39.7652,-6.69188 l 36.93402,21.74861 c -3.81305,6.27197 -6.04843,13.04679 -6.04843,20.20432 0,30.37619 37.72853,54.95062 84.29195,54.95062 16.16367,0 31.3119,-2.96232 44.14066,-8.10746 l 34.48891,20.20432 c -6.8575,8.56112 -10.80995,18.29633 -10.80995,28.69787 0,9.01363 2.994,17.5295 8.23615,25.22323 l -30.11345,27.66836 c -14.86062,-7.82015 -33.29249,-12.61162 -53.40634,-12.61162 -48.86086,0 -88.53871,27.46244 -88.53871,61.25643 0,33.79395 39.67785,61.12774 88.53871,61.12774 18.66721,0 35.91542,-3.9835 50.18909,-10.80996 l 54.17848,31.52905 c -7.04126,9.00508 -11.06734,19.31659 -11.06734,30.24214 0,8.9539 2.74919,17.48104 7.59271,25.22323 l -40.40865,37.96355 c -16.62308,-9.00324 -37.06416,-14.41328 -59.32608,-14.41328 -55.27493,0 -100.12081,32.74231 -100.12081,73.22459 0,40.48229 44.84588,73.35329 100.12081,73.35329 16.51605,0 31.95387,-3.04726 45.68494,-8.23616 l 61.77119,35.13236 c -9.88932,38.09409 17.77589,89.94532 69.36389,124.18583 44.54518,29.56595 94.27297,37.54086 127.1457,23.80764 l 40.72117,69.3639 2.15096,-0.0737 -2.07741,-63.4993 75.22849,0.24791 0.4044,-2.69339 -83.48302,-37.32009 C 633.9341,789.47688 606.06887,735.07965 552.58038,699.57777 505.24112,668.15728 452.11152,661.09531 419.51494,678.60131 l -49.28822,-27.92519 c 8.69582,-10.86383 13.64114,-23.56007 13.64114,-37.06272 0,-10.12059 -2.78555,-19.67103 -7.85009,-28.44048 l 42.46769,-40.02258 c 14.77905,6.64407 32.33924,10.55258 51.3473,10.55258 51.82278,0 93.94368,-28.64598 93.94368,-64.08761 0,-35.44163 -42.1209,-64.2163 -93.94368,-64.2163 -15.93618,0 -30.86788,2.67049 -44.01197,7.46402 l -59.84084,-34.87498 c 3.29566,-6.41029 5.1476,-13.26936 5.1476,-20.46171 0,-6.52662 -1.51067,-12.76205 -4.24677,-18.66004 l 33.84547,-31.27167 c 13.88138,5.81049 30.30976,9.13699 47.87267,9.13699 50.00958,0 90.46905,-27.16536 90.46905,-60.74168 0,-33.57633 -40.45947,-60.74167 -90.46905,-60.74167 -17.67451,0 -34.19266,3.3869 -48.13005,9.26568 l -34.48892,-20.20433 c 5.43237,-7.26997 8.62223,-15.4331 8.62223,-24.06503 0,-30.37618 -37.85721,-54.95061 -84.42062,-54.95061 -19.55031,0 -37.43282,4.29705 -51.73338,11.58209 l -31.78643,-18.66004 c 7.22246,-8.04277 11.45341,-17.41058 11.45341,-27.410967 0,-29.945412 -37.07107,-54.178479 -82.87634,-54.178479 z"
           style="fill:#f9f2e6;fill-opacity:1;fill-rule:nonzero;stroke:none" />
        <path
           sodipodi:nodetypes="sssccssccsccsssccsccsssccscccccccsccsccsssccsccsssccssccss"
           inkscape:connector-curvature="0"
           id="path3908"
           d="m 126.91898,30.306812 c -45.805271,0 -83.005033,24.233067 -83.005033,54.178479 0,29.945409 37.199762,54.178479 83.005033,54.178479 14.426,0 27.9487,-2.45738 39.7652,-6.69188 l 36.93402,21.74861 c -3.81305,6.27196 -6.04842,13.04679 -6.04842,20.20432 0,30.37619 37.72852,54.95062 84.29194,54.95062 16.16367,0 31.3119,-2.96232 44.14066,-8.10747 l 34.48892,20.20433 c -6.85751,8.56112 -10.80996,18.29632 -10.80996,28.69786 0,9.01364 2.99401,17.52951 8.23616,25.22324 l -30.11346,27.66833 c -14.86062,-7.82013 -33.29249,-12.6116 -53.40635,-12.6116 -48.86084,0 -88.5387,27.46247 -88.5387,61.25642 0,33.7939 39.67786,61.12769 88.5387,61.12769 18.66722,0 35.91543,-3.9835 50.1891,-10.80996 l 54.17848,31.52905 c -7.04125,9.00508 -11.06734,19.31659 -11.06734,30.24214 0,8.9539 2.74919,17.48104 7.59271,25.22324 l -40.40865,37.96354 c -16.62308,-9.00323 -37.06415,-14.41328 -59.32608,-14.41328 -55.27493,0 -100.12081,32.74231 -100.12081,73.2246 0,40.48228 44.84588,73.35328 100.12081,73.35328 16.51605,0 31.95387,-3.04725 45.68494,-8.23616 l 61.77119,35.13237 c -9.88932,38.09408 17.7759,89.94531 69.3639,124.18582 44.54518,29.56596 94.27296,37.54086 127.14569,23.80765 l 40.72117,69.36389 2.15096,-0.0737 -2.07741,-63.4993 75.2285,0.24791 0.40439,-2.69339 -83.48302,-37.32009 C 625.61426,781.15704 597.74903,726.75981 544.26054,691.25793 496.92128,659.83744 443.79168,652.77547 411.1951,670.28147 l -49.28821,-27.92519 c 8.69581,-10.86382 13.64113,-23.56007 13.64113,-37.06271 0,-10.12059 -2.78555,-19.67104 -7.85009,-28.44049 l 42.4677,-40.02258 c 14.77904,6.64407 32.33923,10.55258 51.3473,10.55258 51.82277,0 93.94368,-28.64598 93.94368,-64.08761 0,-35.44163 -42.12091,-64.2163 -93.94368,-64.2163 -15.93619,0 -30.86789,2.6705 -44.01198,7.46402 l -59.84083,-34.87498 c 3.29565,-6.41028 5.1476,-13.26936 5.1476,-20.46166 0,-6.52658 -1.51068,-12.76201 -4.24677,-18.66005 l 33.84546,-31.27166 c 13.88139,5.81052 30.30976,9.13698 47.87267,9.13698 50.00958,0 90.46905,-27.16533 90.46905,-60.74166 0,-33.57632 -40.45947,-60.74166 -90.46905,-60.74166 -17.67451,0 -34.19266,3.38689 -48.13005,9.26567 l -34.48891,-20.20432 c 5.43236,-7.26997 8.62222,-15.4331 8.62222,-24.06503 0,-30.37618 -37.85721,-54.95062 -84.42062,-54.95062 -19.5503,0 -37.43282,4.29706 -51.73338,11.5821 l -31.78642,-18.66004 c 7.22245,-8.04277 11.4534,-17.41058 11.4534,-27.410969 0,-29.945412 -37.07107,-54.178479 -82.87634,-54.178479 z"
           style="fill:#c3bbae;fill-opacity:1;fill-rule:nonzero;stroke:none" />
        <path
           style="fill:#d7cfc1;fill-opacity:1;fill-rule:nonzero;stroke:none"
           d="m 131.0789,34.466698 c -45.805272,0 -83.005034,24.233067 -83.005034,54.178479 0,29.945413 37.199762,54.178483 83.005034,54.178483 14.426,0 27.9487,-2.45738 39.7652,-6.69188 l 36.93402,21.7486 c -3.81305,6.27197 -6.04843,13.0468 -6.04843,20.20433 0,30.37618 37.72853,54.95062 84.29195,54.95062 16.16367,0 31.3119,-2.96233 44.14066,-8.10747 l 34.48891,20.20433 c -6.8575,8.56111 -10.80995,18.29632 -10.80995,28.69786 0,9.01363 2.994,17.5295 8.23615,25.22323 l -30.11345,27.66833 c -14.86062,-7.82011 -33.29249,-12.6116 -53.40634,-12.6116 -48.86086,0 -88.53871,27.46247 -88.53871,61.25641 0,33.79395 39.67785,61.12774 88.53871,61.12774 18.66721,0 35.91542,-3.9835 50.18909,-10.80996 l 54.17848,31.52905 c -7.04126,9.00508 -11.06734,19.31659 -11.06734,30.24214 0,8.9539 2.74919,17.48104 7.59271,25.22324 l -40.40865,37.96354 c -16.62308,-9.00324 -37.06415,-14.41328 -59.32608,-14.41328 -55.27493,0 -100.12081,32.74231 -100.12081,73.2246 0,40.48228 44.84588,73.35328 100.12081,73.35328 16.51605,0 31.95387,-3.04725 45.68494,-8.23616 l 61.77119,35.13237 c -9.88932,38.09408 17.77589,89.94531 69.3639,124.18582 44.54518,29.56596 94.27296,37.54086 127.14569,23.80765 l 40.72117,69.36389 2.15096,-0.0737 -2.07741,-63.4993 75.2285,0.24791 0.40439,-2.69339 -83.48302,-37.32009 C 629.77418,785.31696 601.90895,730.91973 548.42046,695.41785 501.0812,663.99736 447.9516,656.93539 415.35502,674.44139 L 366.0668,646.5162 c 8.69582,-10.86382 13.64114,-23.56007 13.64114,-37.06271 0,-10.1206 -2.78555,-19.67104 -7.85009,-28.44049 l 42.46769,-40.02258 c 14.77905,6.64407 32.33924,10.55258 51.3473,10.55258 51.82278,0 93.94369,-28.64598 93.94369,-64.08761 0,-35.44163 -42.12091,-64.2163 -93.94369,-64.2163 -15.93618,0 -30.86788,2.6705 -44.01197,7.46402 l -59.84084,-34.87498 c 3.29566,-6.41029 5.1476,-13.26936 5.1476,-20.46171 0,-6.52658 -1.51067,-12.76201 -4.24677,-18.66004 l 33.84547,-31.27167 c 13.88138,5.81053 30.30976,9.13699 47.87267,9.13699 50.00958,0 90.46905,-27.16533 90.46905,-60.74165 0,-33.57632 -40.45947,-60.74167 -90.46905,-60.74167 -17.67451,0 -34.19266,3.3869 -48.13005,9.26568 l -34.48892,-20.20433 c 5.43237,-7.26997 8.62223,-15.4331 8.62223,-24.06502 0,-30.37618 -37.85721,-54.95062 -84.42062,-54.95062 -19.5503,0 -37.43282,4.29706 -51.73338,11.5821 l -31.78643,-18.66005 c 7.22246,-8.04277 11.45341,-17.410574 11.45341,-27.410963 0,-29.945412 -37.07107,-54.178479 -82.87634,-54.178479 z"
           id="path3090"
           inkscape:connector-curvature="0"
           sodipodi:nodetypes="sssccssccsccsssccsccsssccscccccccsccsccsssccsccsssccssccss" />
      </g>
      <g
         transform="translate(60.285714,-23.714286)"
         id="g3766">
        <text
           xml:space="preserve"
           style="font-size:90px;font-style:normal;font-variant:normal;font-weight:bold;font-stretch:normal;text-align:start;line-height:125%;writing-mode:lr-tb;text-anchor:start;fill:#006e91;fill-opacity:1;fill-rule:nonzero;stroke:none;font-family:Nimbus Sans L;-inkscape-font-specification:Nimbus Sans L Bold"
           x="431.42856"
           y="269.50504"
           id="text2990"
           sodipodi:linespacing="125%"
           transform="translate(0,-2.988066e-5)"><tspan
             sodipodi:role="line"
             id="tspan2992"
             x="431.42856"
             y="269.50504">PYCON FR 2012</tspan></text>
        <text
           sodipodi:linespacing="125%"
           id="text3762"
           y="389.505"
           x="638.81384"
           style="font-size:90px;font-style:normal;font-variant:normal;font-weight:bold;font-stretch:normal;text-align:start;line-height:125%;writing-mode:lr-tb;text-anchor:start;fill:#fcb500;fill-opacity:1;fill-rule:nonzero;stroke:none;font-family:Nimbus Sans L;-inkscape-font-specification:Nimbus Sans L Bold"
           xml:space="preserve"><tspan
             y="389.505"
             x="638.81384"
             id="tspan3764"
             sodipodi:role="line">PARIS</tspan></text>
      </g>
      <text
         sodipodi:linespacing="125%"
         id="text3772"
         y="103.79073"
         x="375.21042"
         style="font-size:90px;font-style:normal;font-variant:normal;font-weight:bold;font-stretch:normal;text-align:start;line-height:125%;writing-mode:lr-tb;text-anchor:start;fill:#484746;fill-opacity:1;fill-rule:nonzero;stroke:none;font-family:Nimbus Sans L;-inkscape-font-specification:Nimbus Sans L Bold"
         xml:space="preserve"><tspan
           id="tspan3776"
           style="font-size:56px;text-align:start;text-anchor:start"
           y="103.79073"
           x="375.21042"
           sodipodi:role="line">Conférence : 15 - 16 septembre 2012</tspan><tspan
           id="tspan3780"
           style="font-size:28px;text-align:start;text-anchor:start"
           y="147.1461"
           x="375.21042"
           sodipodi:role="line">Cité des sciences et de l'industrie, Porte de la Villette, Paris</tspan></text>
    </g>
    <g
       transform="matrix(1.1538895,0,0,1.1538895,-99.771746,521.05039)"
       id="g3841">
      <g
         id="g3843"
         transform="matrix(0.43866496,0,0,0.43866496,90.650437,17.012276)">
        <path
           style="fill:#f9f2e6;fill-opacity:1;fill-rule:nonzero;stroke:none"
           d="m 135.23882,38.626584 c -45.805273,0 -83.005035,24.233067 -83.005035,54.178479 0,29.945407 37.199762,54.178477 83.005035,54.178477 14.426,0 27.9487,-2.45738 39.7652,-6.69188 l 36.93402,21.74861 c -3.81305,6.27197 -6.04843,13.04679 -6.04843,20.20432 0,30.37619 37.72853,54.95062 84.29195,54.95062 16.16367,0 31.3119,-2.96232 44.14066,-8.10746 l 34.48891,20.20432 c -6.8575,8.56112 -10.80995,18.29633 -10.80995,28.69787 0,9.01363 2.994,17.5295 8.23615,25.22323 l -30.11345,27.66836 c -14.86062,-7.82015 -33.29249,-12.61162 -53.40634,-12.61162 -48.86086,0 -88.53871,27.46244 -88.53871,61.25643 0,33.79395 39.67785,61.12774 88.53871,61.12774 18.66721,0 35.91542,-3.9835 50.18909,-10.80996 l 54.17848,31.52905 c -7.04126,9.00508 -11.06734,19.31659 -11.06734,30.24214 0,8.9539 2.74919,17.48104 7.59271,25.22323 l -40.40865,37.96355 c -16.62308,-9.00324 -37.06416,-14.41328 -59.32608,-14.41328 -55.27493,0 -100.12081,32.74231 -100.12081,73.22459 0,40.48229 44.84588,73.35329 100.12081,73.35329 16.51605,0 31.95387,-3.04726 45.68494,-8.23616 l 61.77119,35.13236 c -9.88932,38.09409 17.77589,89.94532 69.36389,124.18583 44.54518,29.56595 94.27297,37.54086 127.1457,23.80764 l 40.72117,69.3639 2.15096,-0.0737 -2.07741,-63.4993 75.22849,0.24791 0.4044,-2.69339 -83.48302,-37.32009 C 633.9341,789.47688 606.06887,735.07965 552.58038,699.57777 505.24112,668.15728 452.11152,661.09531 419.51494,678.60131 l -49.28822,-27.92519 c 8.69582,-10.86383 13.64114,-23.56007 13.64114,-37.06272 0,-10.12059 -2.78555,-19.67103 -7.85009,-28.44048 l 42.46769,-40.02258 c 14.77905,6.64407 32.33924,10.55258 51.3473,10.55258 51.82278,0 93.94368,-28.64598 93.94368,-64.08761 0,-35.44163 -42.1209,-64.2163 -93.94368,-64.2163 -15.93618,0 -30.86788,2.67049 -44.01197,7.46402 l -59.84084,-34.87498 c 3.29566,-6.41029 5.1476,-13.26936 5.1476,-20.46171 0,-6.52662 -1.51067,-12.76205 -4.24677,-18.66004 l 33.84547,-31.27167 c 13.88138,5.81049 30.30976,9.13699 47.87267,9.13699 50.00958,0 90.46905,-27.16536 90.46905,-60.74168 0,-33.57633 -40.45947,-60.74167 -90.46905,-60.74167 -17.67451,0 -34.19266,3.3869 -48.13005,9.26568 l -34.48892,-20.20433 c 5.43237,-7.26997 8.62223,-15.4331 8.62223,-24.06503 0,-30.37618 -37.85721,-54.95061 -84.42062,-54.95061 -19.55031,0 -37.43282,4.29705 -51.73338,11.58209 l -31.78643,-18.66004 c 7.22246,-8.04277 11.45341,-17.41058 11.45341,-27.410967 0,-29.945412 -37.07107,-54.178479 -82.87634,-54.178479 z"
           id="path3845"
           inkscape:connector-curvature="0"
           sodipodi:nodetypes="sssccssccsccsssccsccsssccscccccccsccsccsssccsccsssccssccss" />
        <path
           style="fill:#c3bbae;fill-opacity:1;fill-rule:nonzero;stroke:none"
           d="m 126.91898,30.306812 c -45.805271,0 -83.005033,24.233067 -83.005033,54.178479 0,29.945409 37.199762,54.178479 83.005033,54.178479 14.426,0 27.9487,-2.45738 39.7652,-6.69188 l 36.93402,21.74861 c -3.81305,6.27196 -6.04842,13.04679 -6.04842,20.20432 0,30.37619 37.72852,54.95062 84.29194,54.95062 16.16367,0 31.3119,-2.96232 44.14066,-8.10747 l 34.48892,20.20433 c -6.85751,8.56112 -10.80996,18.29632 -10.80996,28.69786 0,9.01364 2.99401,17.52951 8.23616,25.22324 l -30.11346,27.66833 c -14.86062,-7.82013 -33.29249,-12.6116 -53.40635,-12.6116 -48.86084,0 -88.5387,27.46247 -88.5387,61.25642 0,33.7939 39.67786,61.12769 88.5387,61.12769 18.66722,0 35.91543,-3.9835 50.1891,-10.80996 l 54.17848,31.52905 c -7.04125,9.00508 -11.06734,19.31659 -11.06734,30.24214 0,8.9539 2.74919,17.48104 7.59271,25.22324 l -40.40865,37.96354 c -16.62308,-9.00323 -37.06415,-14.41328 -59.32608,-14.41328 -55.27493,0 -100.12081,32.74231 -100.12081,73.2246 0,40.48228 44.84588,73.35328 100.12081,73.35328 16.51605,0 31.95387,-3.04725 45.68494,-8.23616 l 61.77119,35.13237 c -9.88932,38.09408 17.7759,89.94531 69.3639,124.18582 44.54518,29.56596 94.27296,37.54086 127.14569,23.80765 l 40.72117,69.36389 2.15096,-0.0737 -2.07741,-63.4993 75.2285,0.24791 0.40439,-2.69339 -83.48302,-37.32009 C 625.61426,781.15704 597.74903,726.75981 544.26054,691.25793 496.92128,659.83744 443.79168,652.77547 411.1951,670.28147 l -49.28821,-27.92519 c 8.69581,-10.86382 13.64113,-23.56007 13.64113,-37.06271 0,-10.12059 -2.78555,-19.67104 -7.85009,-28.44049 l 42.4677,-40.02258 c 14.77904,6.64407 32.33923,10.55258 51.3473,10.55258 51.82277,0 93.94368,-28.64598 93.94368,-64.08761 0,-35.44163 -42.12091,-64.2163 -93.94368,-64.2163 -15.93619,0 -30.86789,2.6705 -44.01198,7.46402 l -59.84083,-34.87498 c 3.29565,-6.41028 5.1476,-13.26936 5.1476,-20.46166 0,-6.52658 -1.51068,-12.76201 -4.24677,-18.66005 l 33.84546,-31.27166 c 13.88139,5.81052 30.30976,9.13698 47.87267,9.13698 50.00958,0 90.46905,-27.16533 90.46905,-60.74166 0,-33.57632 -40.45947,-60.74166 -90.46905,-60.74166 -17.67451,0 -34.19266,3.38689 -48.13005,9.26567 l -34.48891,-20.20432 c 5.43236,-7.26997 8.62222,-15.4331 8.62222,-24.06503 0,-30.37618 -37.85721,-54.95062 -84.42062,-54.95062 -19.5503,0 -37.43282,4.29706 -51.73338,11.5821 l -31.78642,-18.66004 c 7.22245,-8.04277 11.4534,-17.41058 11.4534,-27.410969 0,-29.945412 -37.07107,-54.178479 -82.87634,-54.178479 z"
           id="path3847"
           inkscape:connector-curvature="0"
           sodipodi:nodetypes="sssccssccsccsssccsccsssccscccccccsccsccsssccsccsssccssccss" />
        <path
           sodipodi:nodetypes="sssccssccsccsssccsccsssccscccccccsccsccsssccsccsssccssccss"
           inkscape:connector-curvature="0"
           id="path3849"
           d="m 131.0789,34.466698 c -45.805272,0 -83.005034,24.233067 -83.005034,54.178479 0,29.945413 37.199762,54.178483 83.005034,54.178483 14.426,0 27.9487,-2.45738 39.7652,-6.69188 l 36.93402,21.7486 c -3.81305,6.27197 -6.04843,13.0468 -6.04843,20.20433 0,30.37618 37.72853,54.95062 84.29195,54.95062 16.16367,0 31.3119,-2.96233 44.14066,-8.10747 l 34.48891,20.20433 c -6.8575,8.56111 -10.80995,18.29632 -10.80995,28.69786 0,9.01363 2.994,17.5295 8.23615,25.22323 l -30.11345,27.66833 c -14.86062,-7.82011 -33.29249,-12.6116 -53.40634,-12.6116 -48.86086,0 -88.53871,27.46247 -88.53871,61.25641 0,33.79395 39.67785,61.12774 88.53871,61.12774 18.66721,0 35.91542,-3.9835 50.18909,-10.80996 l 54.17848,31.52905 c -7.04126,9.00508 -11.06734,19.31659 -11.06734,30.24214 0,8.9539 2.74919,17.48104 7.59271,25.22324 l -40.40865,37.96354 c -16.62308,-9.00324 -37.06415,-14.41328 -59.32608,-14.41328 -55.27493,0 -100.12081,32.74231 -100.12081,73.2246 0,40.48228 44.84588,73.35328 100.12081,73.35328 16.51605,0 31.95387,-3.04725 45.68494,-8.23616 l 61.77119,35.13237 c -9.88932,38.09408 17.77589,89.94531 69.3639,124.18582 44.54518,29.56596 94.27296,37.54086 127.14569,23.80765 l 40.72117,69.36389 2.15096,-0.0737 -2.07741,-63.4993 75.2285,0.24791 0.40439,-2.69339 -83.48302,-37.32009 C 629.77418,785.31696 601.90895,730.91973 548.42046,695.41785 501.0812,663.99736 447.9516,656.93539 415.35502,674.44139 L 366.0668,646.5162 c 8.69582,-10.86382 13.64114,-23.56007 13.64114,-37.06271 0,-10.1206 -2.78555,-19.67104 -7.85009,-28.44049 l 42.46769,-40.02258 c 14.77905,6.64407 32.33924,10.55258 51.3473,10.55258 51.82278,0 93.94369,-28.64598 93.94369,-64.08761 0,-35.44163 -42.12091,-64.2163 -93.94369,-64.2163 -15.93618,0 -30.86788,2.6705 -44.01197,7.46402 l -59.84084,-34.87498 c 3.29566,-6.41029 5.1476,-13.26936 5.1476,-20.46171 0,-6.52658 -1.51067,-12.76201 -4.24677,-18.66004 l 33.84547,-31.27167 c 13.88138,5.81053 30.30976,9.13699 47.87267,9.13699 50.00958,0 90.46905,-27.16533 90.46905,-60.74165 0,-33.57632 -40.45947,-60.74167 -90.46905,-60.74167 -17.67451,0 -34.19266,3.3869 -48.13005,9.26568 l -34.48892,-20.20433 c 5.43237,-7.26997 8.62223,-15.4331 8.62223,-24.06502 0,-30.37618 -37.85721,-54.95062 -84.42062,-54.95062 -19.5503,0 -37.43282,4.29706 -51.73338,11.5821 l -31.78643,-18.66005 c 7.22246,-8.04277 11.45341,-17.410574 11.45341,-27.410963 0,-29.945412 -37.07107,-54.178479 -82.87634,-54.178479 z"
           style="fill:#d7cfc1;fill-opacity:1;fill-rule:nonzero;stroke:none" />
      </g>
      <g
         id="g3851"
         transform="translate(60.285714,-23.714286)">
        <text
           transform="translate(0,-2.988066e-5)"
           sodipodi:linespacing="125%"
           id="text3853"
           y="269.50504"
           x="431.42856"
           style="font-size:90px;font-style:normal;font-variant:normal;font-weight:bold;font-stretch:normal;text-align:start;line-height:125%;writing-mode:lr-tb;text-anchor:start;fill:#006e91;fill-opacity:1;fill-rule:nonzero;stroke:none;font-family:Nimbus Sans L;-inkscape-font-specification:Nimbus Sans L Bold"
           xml:space="preserve"><tspan
             y="269.50504"
             x="431.42856"
             id="tspan3855"
             sodipodi:role="line">PYCON FR 2012</tspan></text>
        <text
           xml:space="preserve"
           style="font-size:90px;font-style:normal;font-variant:normal;font-weight:bold;font-stretch:normal;text-align:start;line-height:125%;writing-mode:lr-tb;text-anchor:start;fill:#fcb500;fill-opacity:1;fill-rule:nonzero;stroke:none;font-family:Nimbus Sans L;-inkscape-font-specification:Nimbus Sans L Bold"
           x="638.81384"
           y="389.505"
           id="text3857"
           sodipodi:linespacing="125%"><tspan
             sodipodi:role="line"
             id="tspan3859"
             x="638.81384"
             y="389.505">PARIS</tspan></text>
      </g>
      <text
         xml:space="preserve"
         style="font-size:90px;font-style:normal;font-variant:normal;font-weight:bold;font-stretch:normal;text-align:start;line-height:125%;writing-mode:lr-tb;text-anchor:start;fill:#484746;fill-opacity:1;fill-rule:nonzero;stroke:none;font-family:Nimbus Sans L;-inkscape-font-specification:Nimbus Sans L Bold"
         x="375.21042"
         y="103.79073"
         id="text3861"
         sodipodi:linespacing="125%"><tspan
           sodipodi:role="line"
           x="375.21042"
           y="103.79073"
           style="font-size:56px;text-align:start;text-anchor:start"
           id="tspan3863">Conférence : 15 - 16 septembre 2012</tspan><tspan
           sodipodi:role="line"
           x="375.21042"
           y="147.1461"
           style="font-size:28px;text-align:start;text-anchor:start"
           id="tspan3865">Cité des sciences et de l'industrie, Porte de la Villette, Paris</tspan></text>
    </g>
  </g>
</svg>
